%TF.GenerationSoftware,KiCad,Pcbnew,(6.0.6)*%
%TF.CreationDate,2022-09-23T17:59:27-07:00*%
%TF.ProjectId,POWER_BOARD,504f5745-525f-4424-9f41-52442e6b6963,rev?*%
%TF.SameCoordinates,Original*%
%TF.FileFunction,Legend,Top*%
%TF.FilePolarity,Positive*%
%FSLAX46Y46*%
G04 Gerber Fmt 4.6, Leading zero omitted, Abs format (unit mm)*
G04 Created by KiCad (PCBNEW (6.0.6)) date 2022-09-23 17:59:27*
%MOMM*%
%LPD*%
G01*
G04 APERTURE LIST*
%ADD10C,0.150000*%
%ADD11C,0.120000*%
G04 APERTURE END LIST*
D10*
X77625380Y-75715619D02*
X76625380Y-75715619D01*
X77101571Y-75715619D02*
X77101571Y-75144190D01*
X77625380Y-75144190D02*
X76625380Y-75144190D01*
X77625380Y-74668000D02*
X76625380Y-74668000D01*
X76673000Y-73668000D02*
X76625380Y-73763238D01*
X76625380Y-73906095D01*
X76673000Y-74048952D01*
X76768238Y-74144190D01*
X76863476Y-74191809D01*
X77053952Y-74239428D01*
X77196809Y-74239428D01*
X77387285Y-74191809D01*
X77482523Y-74144190D01*
X77577761Y-74048952D01*
X77625380Y-73906095D01*
X77625380Y-73810857D01*
X77577761Y-73668000D01*
X77530142Y-73620380D01*
X77196809Y-73620380D01*
X77196809Y-73810857D01*
X77625380Y-73191809D02*
X76625380Y-73191809D01*
X77101571Y-73191809D02*
X77101571Y-72620380D01*
X77625380Y-72620380D02*
X76625380Y-72620380D01*
X78235380Y-79691809D02*
X78235380Y-79120380D01*
X79235380Y-79406095D02*
X78235380Y-79406095D01*
X79235380Y-78787047D02*
X78235380Y-78787047D01*
X78711571Y-78787047D02*
X78711571Y-78215619D01*
X79235380Y-78215619D02*
X78235380Y-78215619D01*
X78711571Y-77739428D02*
X78711571Y-77406095D01*
X79235380Y-77263238D02*
X79235380Y-77739428D01*
X78235380Y-77739428D01*
X78235380Y-77263238D01*
X79235380Y-76263238D02*
X78759190Y-76596571D01*
X79235380Y-76834666D02*
X78235380Y-76834666D01*
X78235380Y-76453714D01*
X78283000Y-76358476D01*
X78330619Y-76310857D01*
X78425857Y-76263238D01*
X78568714Y-76263238D01*
X78663952Y-76310857D01*
X78711571Y-76358476D01*
X78759190Y-76453714D01*
X78759190Y-76834666D01*
X79235380Y-75834666D02*
X78235380Y-75834666D01*
X78949666Y-75501333D01*
X78235380Y-75168000D01*
X79235380Y-75168000D01*
X78949666Y-74739428D02*
X78949666Y-74263238D01*
X79235380Y-74834666D02*
X78235380Y-74501333D01*
X79235380Y-74168000D01*
X79235380Y-73358476D02*
X79235380Y-73834666D01*
X78235380Y-73834666D01*
X78235380Y-72358476D02*
X78235380Y-71691809D01*
X79235380Y-72358476D01*
X79235380Y-71691809D01*
X78235380Y-71120380D02*
X78235380Y-70929904D01*
X78283000Y-70834666D01*
X78378238Y-70739428D01*
X78568714Y-70691809D01*
X78902047Y-70691809D01*
X79092523Y-70739428D01*
X79187761Y-70834666D01*
X79235380Y-70929904D01*
X79235380Y-71120380D01*
X79187761Y-71215619D01*
X79092523Y-71310857D01*
X78902047Y-71358476D01*
X78568714Y-71358476D01*
X78378238Y-71310857D01*
X78283000Y-71215619D01*
X78235380Y-71120380D01*
X79235380Y-70263238D02*
X78235380Y-70263238D01*
X79235380Y-69691809D01*
X78235380Y-69691809D01*
X78711571Y-69215619D02*
X78711571Y-68882285D01*
X79235380Y-68739428D02*
X79235380Y-69215619D01*
X78235380Y-69215619D01*
X78235380Y-68739428D01*
X49592785Y-52821535D02*
X49164214Y-52821535D01*
X49378500Y-52821535D02*
X49378500Y-52071535D01*
X49307071Y-52178678D01*
X49235642Y-52250107D01*
X49164214Y-52285821D01*
X49878500Y-52142964D02*
X49914214Y-52107250D01*
X49985642Y-52071535D01*
X50164214Y-52071535D01*
X50235642Y-52107250D01*
X50271357Y-52142964D01*
X50307071Y-52214392D01*
X50307071Y-52285821D01*
X50271357Y-52392964D01*
X49842785Y-52821535D01*
X50307071Y-52821535D01*
X50521357Y-52071535D02*
X50771357Y-52821535D01*
X51021357Y-52071535D01*
X51807071Y-52035821D02*
X51164214Y-53000107D01*
X52414214Y-52071535D02*
X52057071Y-52071535D01*
X52021357Y-52428678D01*
X52057071Y-52392964D01*
X52128500Y-52357250D01*
X52307071Y-52357250D01*
X52378500Y-52392964D01*
X52414214Y-52428678D01*
X52449928Y-52500107D01*
X52449928Y-52678678D01*
X52414214Y-52750107D01*
X52378500Y-52785821D01*
X52307071Y-52821535D01*
X52128500Y-52821535D01*
X52057071Y-52785821D01*
X52021357Y-52750107D01*
X52664214Y-52071535D02*
X52914214Y-52821535D01*
X53164214Y-52071535D01*
X53985642Y-52821535D02*
X53985642Y-52071535D01*
X54271357Y-52071535D01*
X54342785Y-52107250D01*
X54378500Y-52142964D01*
X54414214Y-52214392D01*
X54414214Y-52321535D01*
X54378500Y-52392964D01*
X54342785Y-52428678D01*
X54271357Y-52464392D01*
X53985642Y-52464392D01*
X54878500Y-52071535D02*
X55021357Y-52071535D01*
X55092785Y-52107250D01*
X55164214Y-52178678D01*
X55199928Y-52321535D01*
X55199928Y-52571535D01*
X55164214Y-52714392D01*
X55092785Y-52785821D01*
X55021357Y-52821535D01*
X54878500Y-52821535D01*
X54807071Y-52785821D01*
X54735642Y-52714392D01*
X54699928Y-52571535D01*
X54699928Y-52321535D01*
X54735642Y-52178678D01*
X54807071Y-52107250D01*
X54878500Y-52071535D01*
X55449928Y-52071535D02*
X55628500Y-52821535D01*
X55771357Y-52285821D01*
X55914214Y-52821535D01*
X56092785Y-52071535D01*
X56378500Y-52428678D02*
X56628500Y-52428678D01*
X56735642Y-52821535D02*
X56378500Y-52821535D01*
X56378500Y-52071535D01*
X56735642Y-52071535D01*
X57485642Y-52821535D02*
X57235642Y-52464392D01*
X57057071Y-52821535D02*
X57057071Y-52071535D01*
X57342785Y-52071535D01*
X57414214Y-52107250D01*
X57449928Y-52142964D01*
X57485642Y-52214392D01*
X57485642Y-52321535D01*
X57449928Y-52392964D01*
X57414214Y-52428678D01*
X57342785Y-52464392D01*
X57057071Y-52464392D01*
X58628500Y-52428678D02*
X58735642Y-52464392D01*
X58771357Y-52500107D01*
X58807071Y-52571535D01*
X58807071Y-52678678D01*
X58771357Y-52750107D01*
X58735642Y-52785821D01*
X58664214Y-52821535D01*
X58378500Y-52821535D01*
X58378500Y-52071535D01*
X58628500Y-52071535D01*
X58699928Y-52107250D01*
X58735642Y-52142964D01*
X58771357Y-52214392D01*
X58771357Y-52285821D01*
X58735642Y-52357250D01*
X58699928Y-52392964D01*
X58628500Y-52428678D01*
X58378500Y-52428678D01*
X59271357Y-52071535D02*
X59414214Y-52071535D01*
X59485642Y-52107250D01*
X59557071Y-52178678D01*
X59592785Y-52321535D01*
X59592785Y-52571535D01*
X59557071Y-52714392D01*
X59485642Y-52785821D01*
X59414214Y-52821535D01*
X59271357Y-52821535D01*
X59199928Y-52785821D01*
X59128500Y-52714392D01*
X59092785Y-52571535D01*
X59092785Y-52321535D01*
X59128500Y-52178678D01*
X59199928Y-52107250D01*
X59271357Y-52071535D01*
X59878500Y-52607250D02*
X60235642Y-52607250D01*
X59807071Y-52821535D02*
X60057071Y-52071535D01*
X60307071Y-52821535D01*
X60985642Y-52821535D02*
X60735642Y-52464392D01*
X60557071Y-52821535D02*
X60557071Y-52071535D01*
X60842785Y-52071535D01*
X60914214Y-52107250D01*
X60949928Y-52142964D01*
X60985642Y-52214392D01*
X60985642Y-52321535D01*
X60949928Y-52392964D01*
X60914214Y-52428678D01*
X60842785Y-52464392D01*
X60557071Y-52464392D01*
X61307071Y-52821535D02*
X61307071Y-52071535D01*
X61485642Y-52071535D01*
X61592785Y-52107250D01*
X61664214Y-52178678D01*
X61699928Y-52250107D01*
X61735642Y-52392964D01*
X61735642Y-52500107D01*
X61699928Y-52642964D01*
X61664214Y-52714392D01*
X61592785Y-52785821D01*
X61485642Y-52821535D01*
X61307071Y-52821535D01*
X52092785Y-53636178D02*
X52199928Y-53671892D01*
X52235642Y-53707607D01*
X52271357Y-53779035D01*
X52271357Y-53886178D01*
X52235642Y-53957607D01*
X52199928Y-53993321D01*
X52128500Y-54029035D01*
X51842785Y-54029035D01*
X51842785Y-53279035D01*
X52092785Y-53279035D01*
X52164214Y-53314750D01*
X52199928Y-53350464D01*
X52235642Y-53421892D01*
X52235642Y-53493321D01*
X52199928Y-53564750D01*
X52164214Y-53600464D01*
X52092785Y-53636178D01*
X51842785Y-53636178D01*
X52521357Y-53529035D02*
X52699928Y-54029035D01*
X52878500Y-53529035D02*
X52699928Y-54029035D01*
X52628500Y-54207607D01*
X52592785Y-54243321D01*
X52521357Y-54279035D01*
X53164214Y-53957607D02*
X53199928Y-53993321D01*
X53164214Y-54029035D01*
X53128500Y-53993321D01*
X53164214Y-53957607D01*
X53164214Y-54029035D01*
X53164214Y-53564750D02*
X53199928Y-53600464D01*
X53164214Y-53636178D01*
X53128500Y-53600464D01*
X53164214Y-53564750D01*
X53164214Y-53636178D01*
X54092785Y-54029035D02*
X54092785Y-53279035D01*
X54342785Y-53814750D01*
X54592785Y-53279035D01*
X54592785Y-54029035D01*
X55271357Y-54029035D02*
X55271357Y-53636178D01*
X55235642Y-53564750D01*
X55164214Y-53529035D01*
X55021357Y-53529035D01*
X54949928Y-53564750D01*
X55271357Y-53993321D02*
X55199928Y-54029035D01*
X55021357Y-54029035D01*
X54949928Y-53993321D01*
X54914214Y-53921892D01*
X54914214Y-53850464D01*
X54949928Y-53779035D01*
X55021357Y-53743321D01*
X55199928Y-53743321D01*
X55271357Y-53707607D01*
X55521357Y-53529035D02*
X55807071Y-53529035D01*
X55628500Y-53279035D02*
X55628500Y-53921892D01*
X55664214Y-53993321D01*
X55735642Y-54029035D01*
X55807071Y-54029035D01*
X55949928Y-53529035D02*
X56235642Y-53529035D01*
X56057071Y-53279035D02*
X56057071Y-53921892D01*
X56092785Y-53993321D01*
X56164214Y-54029035D01*
X56235642Y-54029035D01*
X56485642Y-54029035D02*
X56485642Y-53279035D01*
X56807071Y-54029035D02*
X56807071Y-53636178D01*
X56771357Y-53564750D01*
X56699928Y-53529035D01*
X56592785Y-53529035D01*
X56521357Y-53564750D01*
X56485642Y-53600464D01*
X57449928Y-53993321D02*
X57378500Y-54029035D01*
X57235642Y-54029035D01*
X57164214Y-53993321D01*
X57128500Y-53921892D01*
X57128500Y-53636178D01*
X57164214Y-53564750D01*
X57235642Y-53529035D01*
X57378500Y-53529035D01*
X57449928Y-53564750D01*
X57485642Y-53636178D01*
X57485642Y-53707607D01*
X57128500Y-53779035D01*
X57735642Y-53529035D02*
X57878500Y-54029035D01*
X58021357Y-53671892D01*
X58164214Y-54029035D01*
X58307071Y-53529035D01*
X59164214Y-53636178D02*
X59414214Y-53636178D01*
X59521357Y-54029035D02*
X59164214Y-54029035D01*
X59164214Y-53279035D01*
X59521357Y-53279035D01*
X59842785Y-54029035D02*
X59842785Y-53279035D01*
X59842785Y-53564750D02*
X59914214Y-53529035D01*
X60057071Y-53529035D01*
X60128500Y-53564750D01*
X60164214Y-53600464D01*
X60199928Y-53671892D01*
X60199928Y-53886178D01*
X60164214Y-53957607D01*
X60128500Y-53993321D01*
X60057071Y-54029035D01*
X59914214Y-54029035D01*
X59842785Y-53993321D01*
X60807071Y-53993321D02*
X60735642Y-54029035D01*
X60592785Y-54029035D01*
X60521357Y-53993321D01*
X60485642Y-53921892D01*
X60485642Y-53636178D01*
X60521357Y-53564750D01*
X60592785Y-53529035D01*
X60735642Y-53529035D01*
X60807071Y-53564750D01*
X60842785Y-53636178D01*
X60842785Y-53707607D01*
X60485642Y-53779035D01*
X61164214Y-54029035D02*
X61164214Y-53529035D01*
X61164214Y-53671892D02*
X61199928Y-53600464D01*
X61235642Y-53564750D01*
X61307071Y-53529035D01*
X61378500Y-53529035D01*
X61521357Y-53529035D02*
X61807071Y-53529035D01*
X61628500Y-53279035D02*
X61628500Y-53921892D01*
X61664214Y-53993321D01*
X61735642Y-54029035D01*
X61807071Y-54029035D01*
X45728000Y-74167904D02*
X45680380Y-74263142D01*
X45680380Y-74406000D01*
X45728000Y-74548857D01*
X45823238Y-74644095D01*
X45918476Y-74691714D01*
X46108952Y-74739333D01*
X46251809Y-74739333D01*
X46442285Y-74691714D01*
X46537523Y-74644095D01*
X46632761Y-74548857D01*
X46680380Y-74406000D01*
X46680380Y-74310761D01*
X46632761Y-74167904D01*
X46585142Y-74120285D01*
X46251809Y-74120285D01*
X46251809Y-74310761D01*
X46680380Y-73691714D02*
X45680380Y-73691714D01*
X46680380Y-73120285D01*
X45680380Y-73120285D01*
X46680380Y-72644095D02*
X45680380Y-72644095D01*
X45680380Y-72406000D01*
X45728000Y-72263142D01*
X45823238Y-72167904D01*
X45918476Y-72120285D01*
X46108952Y-72072666D01*
X46251809Y-72072666D01*
X46442285Y-72120285D01*
X46537523Y-72167904D01*
X46632761Y-72263142D01*
X46680380Y-72406000D01*
X46680380Y-72644095D01*
X46299428Y-91677904D02*
X46299428Y-90916000D01*
X46680380Y-91296952D02*
X45918476Y-91296952D01*
X46680380Y-89916000D02*
X46680380Y-90487428D01*
X46680380Y-90201714D02*
X45680380Y-90201714D01*
X45823238Y-90296952D01*
X45918476Y-90392190D01*
X45966095Y-90487428D01*
X45775619Y-89535047D02*
X45728000Y-89487428D01*
X45680380Y-89392190D01*
X45680380Y-89154095D01*
X45728000Y-89058857D01*
X45775619Y-89011238D01*
X45870857Y-88963619D01*
X45966095Y-88963619D01*
X46108952Y-89011238D01*
X46680380Y-89582666D01*
X46680380Y-88963619D01*
X45680380Y-88677904D02*
X46680380Y-88344571D01*
X45680380Y-88011238D01*
X46299428Y-80247904D02*
X46299428Y-79486000D01*
X46680380Y-79866952D02*
X45918476Y-79866952D01*
X46680380Y-78486000D02*
X46680380Y-79057428D01*
X46680380Y-78771714D02*
X45680380Y-78771714D01*
X45823238Y-78866952D01*
X45918476Y-78962190D01*
X45966095Y-79057428D01*
X45775619Y-78105047D02*
X45728000Y-78057428D01*
X45680380Y-77962190D01*
X45680380Y-77724095D01*
X45728000Y-77628857D01*
X45775619Y-77581238D01*
X45870857Y-77533619D01*
X45966095Y-77533619D01*
X46108952Y-77581238D01*
X46680380Y-78152666D01*
X46680380Y-77533619D01*
X45680380Y-77247904D02*
X46680380Y-76914571D01*
X45680380Y-76581238D01*
X46299428Y-69325904D02*
X46299428Y-68564000D01*
X46680380Y-68944952D02*
X45918476Y-68944952D01*
X46680380Y-67564000D02*
X46680380Y-68135428D01*
X46680380Y-67849714D02*
X45680380Y-67849714D01*
X45823238Y-67944952D01*
X45918476Y-68040190D01*
X45966095Y-68135428D01*
X45775619Y-67183047D02*
X45728000Y-67135428D01*
X45680380Y-67040190D01*
X45680380Y-66802095D01*
X45728000Y-66706857D01*
X45775619Y-66659238D01*
X45870857Y-66611619D01*
X45966095Y-66611619D01*
X46108952Y-66659238D01*
X46680380Y-67230666D01*
X46680380Y-66611619D01*
X45680380Y-66325904D02*
X46680380Y-65992571D01*
X45680380Y-65659238D01*
X74946095Y-52395428D02*
X75708000Y-52395428D01*
X75327047Y-52776380D02*
X75327047Y-52014476D01*
X76708000Y-52776380D02*
X76136571Y-52776380D01*
X76422285Y-52776380D02*
X76422285Y-51776380D01*
X76327047Y-51919238D01*
X76231809Y-52014476D01*
X76136571Y-52062095D01*
X77088952Y-51871619D02*
X77136571Y-51824000D01*
X77231809Y-51776380D01*
X77469904Y-51776380D01*
X77565142Y-51824000D01*
X77612761Y-51871619D01*
X77660380Y-51966857D01*
X77660380Y-52062095D01*
X77612761Y-52204952D01*
X77041333Y-52776380D01*
X77660380Y-52776380D01*
X77946095Y-51776380D02*
X78279428Y-52776380D01*
X78612761Y-51776380D01*
X71057047Y-96845428D02*
X71818952Y-96845428D01*
X72295142Y-96845428D02*
X73057047Y-96845428D01*
X73533238Y-96845428D02*
X74295142Y-96845428D01*
X75247523Y-96226380D02*
X74771333Y-96226380D01*
X74723714Y-96702571D01*
X74771333Y-96654952D01*
X74866571Y-96607333D01*
X75104666Y-96607333D01*
X75199904Y-96654952D01*
X75247523Y-96702571D01*
X75295142Y-96797809D01*
X75295142Y-97035904D01*
X75247523Y-97131142D01*
X75199904Y-97178761D01*
X75104666Y-97226380D01*
X74866571Y-97226380D01*
X74771333Y-97178761D01*
X74723714Y-97131142D01*
X75580857Y-96226380D02*
X75914190Y-97226380D01*
X76247523Y-96226380D01*
X76580857Y-96845428D02*
X77342761Y-96845428D01*
X77818952Y-96845428D02*
X78580857Y-96845428D01*
X79057047Y-96845428D02*
X79818952Y-96845428D01*
X70692000Y-89225428D02*
X71453904Y-89225428D01*
X71930095Y-89225428D02*
X72692000Y-89225428D01*
X73168190Y-89225428D02*
X73930095Y-89225428D01*
X74930095Y-88654000D02*
X74834857Y-88606380D01*
X74692000Y-88606380D01*
X74549142Y-88654000D01*
X74453904Y-88749238D01*
X74406285Y-88844476D01*
X74358666Y-89034952D01*
X74358666Y-89177809D01*
X74406285Y-89368285D01*
X74453904Y-89463523D01*
X74549142Y-89558761D01*
X74692000Y-89606380D01*
X74787238Y-89606380D01*
X74930095Y-89558761D01*
X74977714Y-89511142D01*
X74977714Y-89177809D01*
X74787238Y-89177809D01*
X75406285Y-89606380D02*
X75406285Y-88606380D01*
X75977714Y-89606380D01*
X75977714Y-88606380D01*
X76453904Y-89606380D02*
X76453904Y-88606380D01*
X76692000Y-88606380D01*
X76834857Y-88654000D01*
X76930095Y-88749238D01*
X76977714Y-88844476D01*
X77025333Y-89034952D01*
X77025333Y-89177809D01*
X76977714Y-89368285D01*
X76930095Y-89463523D01*
X76834857Y-89558761D01*
X76692000Y-89606380D01*
X76453904Y-89606380D01*
X77453904Y-89225428D02*
X78215809Y-89225428D01*
X78692000Y-89225428D02*
X79453904Y-89225428D01*
X79930095Y-89225428D02*
X80692000Y-89225428D01*
X45728000Y-85597904D02*
X45680380Y-85693142D01*
X45680380Y-85836000D01*
X45728000Y-85978857D01*
X45823238Y-86074095D01*
X45918476Y-86121714D01*
X46108952Y-86169333D01*
X46251809Y-86169333D01*
X46442285Y-86121714D01*
X46537523Y-86074095D01*
X46632761Y-85978857D01*
X46680380Y-85836000D01*
X46680380Y-85740761D01*
X46632761Y-85597904D01*
X46585142Y-85550285D01*
X46251809Y-85550285D01*
X46251809Y-85740761D01*
X46680380Y-85121714D02*
X45680380Y-85121714D01*
X46680380Y-84550285D01*
X45680380Y-84550285D01*
X46680380Y-84074095D02*
X45680380Y-84074095D01*
X45680380Y-83836000D01*
X45728000Y-83693142D01*
X45823238Y-83597904D01*
X45918476Y-83550285D01*
X46108952Y-83502666D01*
X46251809Y-83502666D01*
X46442285Y-83550285D01*
X46537523Y-83597904D01*
X46632761Y-83693142D01*
X46680380Y-83836000D01*
X46680380Y-84074095D01*
X45728000Y-62737904D02*
X45680380Y-62833142D01*
X45680380Y-62976000D01*
X45728000Y-63118857D01*
X45823238Y-63214095D01*
X45918476Y-63261714D01*
X46108952Y-63309333D01*
X46251809Y-63309333D01*
X46442285Y-63261714D01*
X46537523Y-63214095D01*
X46632761Y-63118857D01*
X46680380Y-62976000D01*
X46680380Y-62880761D01*
X46632761Y-62737904D01*
X46585142Y-62690285D01*
X46251809Y-62690285D01*
X46251809Y-62880761D01*
X46680380Y-62261714D02*
X45680380Y-62261714D01*
X46680380Y-61690285D01*
X45680380Y-61690285D01*
X46680380Y-61214095D02*
X45680380Y-61214095D01*
X45680380Y-60976000D01*
X45728000Y-60833142D01*
X45823238Y-60737904D01*
X45918476Y-60690285D01*
X46108952Y-60642666D01*
X46251809Y-60642666D01*
X46442285Y-60690285D01*
X46537523Y-60737904D01*
X46632761Y-60833142D01*
X46680380Y-60976000D01*
X46680380Y-61214095D01*
X70358095Y-51824000D02*
X70262857Y-51776380D01*
X70120000Y-51776380D01*
X69977142Y-51824000D01*
X69881904Y-51919238D01*
X69834285Y-52014476D01*
X69786666Y-52204952D01*
X69786666Y-52347809D01*
X69834285Y-52538285D01*
X69881904Y-52633523D01*
X69977142Y-52728761D01*
X70120000Y-52776380D01*
X70215238Y-52776380D01*
X70358095Y-52728761D01*
X70405714Y-52681142D01*
X70405714Y-52347809D01*
X70215238Y-52347809D01*
X70834285Y-52776380D02*
X70834285Y-51776380D01*
X71405714Y-52776380D01*
X71405714Y-51776380D01*
X71881904Y-52776380D02*
X71881904Y-51776380D01*
X72120000Y-51776380D01*
X72262857Y-51824000D01*
X72358095Y-51919238D01*
X72405714Y-52014476D01*
X72453333Y-52204952D01*
X72453333Y-52347809D01*
X72405714Y-52538285D01*
X72358095Y-52633523D01*
X72262857Y-52728761D01*
X72120000Y-52776380D01*
X71881904Y-52776380D01*
%TO.C,J6*%
X66210380Y-93048333D02*
X66924666Y-93048333D01*
X67067523Y-93095952D01*
X67162761Y-93191190D01*
X67210380Y-93334047D01*
X67210380Y-93429285D01*
X66210380Y-92143571D02*
X66210380Y-92334047D01*
X66258000Y-92429285D01*
X66305619Y-92476904D01*
X66448476Y-92572142D01*
X66638952Y-92619761D01*
X67019904Y-92619761D01*
X67115142Y-92572142D01*
X67162761Y-92524523D01*
X67210380Y-92429285D01*
X67210380Y-92238809D01*
X67162761Y-92143571D01*
X67115142Y-92095952D01*
X67019904Y-92048333D01*
X66781809Y-92048333D01*
X66686571Y-92095952D01*
X66638952Y-92143571D01*
X66591333Y-92238809D01*
X66591333Y-92429285D01*
X66638952Y-92524523D01*
X66686571Y-92572142D01*
X66781809Y-92619761D01*
%TO.C,H4*%
X51816095Y-56840380D02*
X51816095Y-55840380D01*
X51816095Y-56316571D02*
X52387523Y-56316571D01*
X52387523Y-56840380D02*
X52387523Y-55840380D01*
X53292285Y-56173714D02*
X53292285Y-56840380D01*
X53054190Y-55792761D02*
X52816095Y-56507047D01*
X53435142Y-56507047D01*
%TO.C,H2*%
X87884095Y-61814380D02*
X87884095Y-60814380D01*
X87884095Y-61290571D02*
X88455523Y-61290571D01*
X88455523Y-61814380D02*
X88455523Y-60814380D01*
X88884095Y-60909619D02*
X88931714Y-60862000D01*
X89026952Y-60814380D01*
X89265047Y-60814380D01*
X89360285Y-60862000D01*
X89407904Y-60909619D01*
X89455523Y-61004857D01*
X89455523Y-61100095D01*
X89407904Y-61242952D01*
X88836476Y-61814380D01*
X89455523Y-61814380D01*
%TO.C,H1*%
X87884095Y-93564380D02*
X87884095Y-92564380D01*
X87884095Y-93040571D02*
X88455523Y-93040571D01*
X88455523Y-93564380D02*
X88455523Y-92564380D01*
X89455523Y-93564380D02*
X88884095Y-93564380D01*
X89169809Y-93564380D02*
X89169809Y-92564380D01*
X89074571Y-92707238D01*
X88979333Y-92802476D01*
X88884095Y-92850095D01*
%TO.C,J3*%
X55332380Y-58499333D02*
X56046666Y-58499333D01*
X56189523Y-58546952D01*
X56284761Y-58642190D01*
X56332380Y-58785047D01*
X56332380Y-58880285D01*
X55332380Y-58118380D02*
X55332380Y-57499333D01*
X55713333Y-57832666D01*
X55713333Y-57689809D01*
X55760952Y-57594571D01*
X55808571Y-57546952D01*
X55903809Y-57499333D01*
X56141904Y-57499333D01*
X56237142Y-57546952D01*
X56284761Y-57594571D01*
X56332380Y-57689809D01*
X56332380Y-57975523D01*
X56284761Y-58070761D01*
X56237142Y-58118380D01*
%TO.C,U1*%
X68286380Y-74924904D02*
X69095904Y-74924904D01*
X69191142Y-74877285D01*
X69238761Y-74829666D01*
X69286380Y-74734428D01*
X69286380Y-74543952D01*
X69238761Y-74448714D01*
X69191142Y-74401095D01*
X69095904Y-74353476D01*
X68286380Y-74353476D01*
X69286380Y-73353476D02*
X69286380Y-73924904D01*
X69286380Y-73639190D02*
X68286380Y-73639190D01*
X68429238Y-73734428D01*
X68524476Y-73829666D01*
X68572095Y-73924904D01*
%TO.C,R2*%
X81367333Y-80124380D02*
X81034000Y-79648190D01*
X80795904Y-80124380D02*
X80795904Y-79124380D01*
X81176857Y-79124380D01*
X81272095Y-79172000D01*
X81319714Y-79219619D01*
X81367333Y-79314857D01*
X81367333Y-79457714D01*
X81319714Y-79552952D01*
X81272095Y-79600571D01*
X81176857Y-79648190D01*
X80795904Y-79648190D01*
X81748285Y-79219619D02*
X81795904Y-79172000D01*
X81891142Y-79124380D01*
X82129238Y-79124380D01*
X82224476Y-79172000D01*
X82272095Y-79219619D01*
X82319714Y-79314857D01*
X82319714Y-79410095D01*
X82272095Y-79552952D01*
X81700666Y-80124380D01*
X82319714Y-80124380D01*
%TO.C,R1*%
X74255333Y-67508380D02*
X73922000Y-67032190D01*
X73683904Y-67508380D02*
X73683904Y-66508380D01*
X74064857Y-66508380D01*
X74160095Y-66556000D01*
X74207714Y-66603619D01*
X74255333Y-66698857D01*
X74255333Y-66841714D01*
X74207714Y-66936952D01*
X74160095Y-66984571D01*
X74064857Y-67032190D01*
X73683904Y-67032190D01*
X75207714Y-67508380D02*
X74636285Y-67508380D01*
X74922000Y-67508380D02*
X74922000Y-66508380D01*
X74826761Y-66651238D01*
X74731523Y-66746476D01*
X74636285Y-66794095D01*
%TO.C,J4*%
X73874666Y-64132380D02*
X73874666Y-64846666D01*
X73827047Y-64989523D01*
X73731809Y-65084761D01*
X73588952Y-65132380D01*
X73493714Y-65132380D01*
X74779428Y-64465714D02*
X74779428Y-65132380D01*
X74541333Y-64084761D02*
X74303238Y-64799047D01*
X74922285Y-64799047D01*
%TO.C,J2*%
X57528380Y-87415333D02*
X58242666Y-87415333D01*
X58385523Y-87462952D01*
X58480761Y-87558190D01*
X58528380Y-87701047D01*
X58528380Y-87796285D01*
X57623619Y-86986761D02*
X57576000Y-86939142D01*
X57528380Y-86843904D01*
X57528380Y-86605809D01*
X57576000Y-86510571D01*
X57623619Y-86462952D01*
X57718857Y-86415333D01*
X57814095Y-86415333D01*
X57956952Y-86462952D01*
X58528380Y-87034380D01*
X58528380Y-86415333D01*
%TO.C,J1*%
X57618380Y-75009333D02*
X58332666Y-75009333D01*
X58475523Y-75056952D01*
X58570761Y-75152190D01*
X58618380Y-75295047D01*
X58618380Y-75390285D01*
X58618380Y-74009333D02*
X58618380Y-74580761D01*
X58618380Y-74295047D02*
X57618380Y-74295047D01*
X57761238Y-74390285D01*
X57856476Y-74485523D01*
X57904095Y-74580761D01*
%TO.C,D2*%
X87574380Y-71355095D02*
X86574380Y-71355095D01*
X86574380Y-71117000D01*
X86622000Y-70974142D01*
X86717238Y-70878904D01*
X86812476Y-70831285D01*
X87002952Y-70783666D01*
X87145809Y-70783666D01*
X87336285Y-70831285D01*
X87431523Y-70878904D01*
X87526761Y-70974142D01*
X87574380Y-71117000D01*
X87574380Y-71355095D01*
X86669619Y-70402714D02*
X86622000Y-70355095D01*
X86574380Y-70259857D01*
X86574380Y-70021761D01*
X86622000Y-69926523D01*
X86669619Y-69878904D01*
X86764857Y-69831285D01*
X86860095Y-69831285D01*
X87002952Y-69878904D01*
X87574380Y-70450333D01*
X87574380Y-69831285D01*
%TO.C,D1*%
X84018380Y-56871095D02*
X83018380Y-56871095D01*
X83018380Y-56633000D01*
X83066000Y-56490142D01*
X83161238Y-56394904D01*
X83256476Y-56347285D01*
X83446952Y-56299666D01*
X83589809Y-56299666D01*
X83780285Y-56347285D01*
X83875523Y-56394904D01*
X83970761Y-56490142D01*
X84018380Y-56633000D01*
X84018380Y-56871095D01*
X84018380Y-55347285D02*
X84018380Y-55918714D01*
X84018380Y-55633000D02*
X83018380Y-55633000D01*
X83161238Y-55728238D01*
X83256476Y-55823476D01*
X83304095Y-55918714D01*
%TO.C,C6*%
X79335333Y-85955142D02*
X79287714Y-86002761D01*
X79144857Y-86050380D01*
X79049619Y-86050380D01*
X78906761Y-86002761D01*
X78811523Y-85907523D01*
X78763904Y-85812285D01*
X78716285Y-85621809D01*
X78716285Y-85478952D01*
X78763904Y-85288476D01*
X78811523Y-85193238D01*
X78906761Y-85098000D01*
X79049619Y-85050380D01*
X79144857Y-85050380D01*
X79287714Y-85098000D01*
X79335333Y-85145619D01*
X80192476Y-85050380D02*
X80002000Y-85050380D01*
X79906761Y-85098000D01*
X79859142Y-85145619D01*
X79763904Y-85288476D01*
X79716285Y-85478952D01*
X79716285Y-85859904D01*
X79763904Y-85955142D01*
X79811523Y-86002761D01*
X79906761Y-86050380D01*
X80097238Y-86050380D01*
X80192476Y-86002761D01*
X80240095Y-85955142D01*
X80287714Y-85859904D01*
X80287714Y-85621809D01*
X80240095Y-85526571D01*
X80192476Y-85478952D01*
X80097238Y-85431333D01*
X79906761Y-85431333D01*
X79811523Y-85478952D01*
X79763904Y-85526571D01*
X79716285Y-85621809D01*
%TO.C,C5*%
X67921142Y-83224666D02*
X67968761Y-83272285D01*
X68016380Y-83415142D01*
X68016380Y-83510380D01*
X67968761Y-83653238D01*
X67873523Y-83748476D01*
X67778285Y-83796095D01*
X67587809Y-83843714D01*
X67444952Y-83843714D01*
X67254476Y-83796095D01*
X67159238Y-83748476D01*
X67064000Y-83653238D01*
X67016380Y-83510380D01*
X67016380Y-83415142D01*
X67064000Y-83272285D01*
X67111619Y-83224666D01*
X67016380Y-82319904D02*
X67016380Y-82796095D01*
X67492571Y-82843714D01*
X67444952Y-82796095D01*
X67397333Y-82700857D01*
X67397333Y-82462761D01*
X67444952Y-82367523D01*
X67492571Y-82319904D01*
X67587809Y-82272285D01*
X67825904Y-82272285D01*
X67921142Y-82319904D01*
X67968761Y-82367523D01*
X68016380Y-82462761D01*
X68016380Y-82700857D01*
X67968761Y-82796095D01*
X67921142Y-82843714D01*
%TO.C,C4*%
X67651333Y-65381142D02*
X67603714Y-65428761D01*
X67460857Y-65476380D01*
X67365619Y-65476380D01*
X67222761Y-65428761D01*
X67127523Y-65333523D01*
X67079904Y-65238285D01*
X67032285Y-65047809D01*
X67032285Y-64904952D01*
X67079904Y-64714476D01*
X67127523Y-64619238D01*
X67222761Y-64524000D01*
X67365619Y-64476380D01*
X67460857Y-64476380D01*
X67603714Y-64524000D01*
X67651333Y-64571619D01*
X68508476Y-64809714D02*
X68508476Y-65476380D01*
X68270380Y-64428761D02*
X68032285Y-65143047D01*
X68651333Y-65143047D01*
%TO.C,C3*%
X61571142Y-86526666D02*
X61618761Y-86574285D01*
X61666380Y-86717142D01*
X61666380Y-86812380D01*
X61618761Y-86955238D01*
X61523523Y-87050476D01*
X61428285Y-87098095D01*
X61237809Y-87145714D01*
X61094952Y-87145714D01*
X60904476Y-87098095D01*
X60809238Y-87050476D01*
X60714000Y-86955238D01*
X60666380Y-86812380D01*
X60666380Y-86717142D01*
X60714000Y-86574285D01*
X60761619Y-86526666D01*
X60666380Y-86193333D02*
X60666380Y-85574285D01*
X61047333Y-85907619D01*
X61047333Y-85764761D01*
X61094952Y-85669523D01*
X61142571Y-85621904D01*
X61237809Y-85574285D01*
X61475904Y-85574285D01*
X61571142Y-85621904D01*
X61618761Y-85669523D01*
X61666380Y-85764761D01*
X61666380Y-86050476D01*
X61618761Y-86145714D01*
X61571142Y-86193333D01*
%TO.C,C2*%
X61571142Y-76620666D02*
X61618761Y-76668285D01*
X61666380Y-76811142D01*
X61666380Y-76906380D01*
X61618761Y-77049238D01*
X61523523Y-77144476D01*
X61428285Y-77192095D01*
X61237809Y-77239714D01*
X61094952Y-77239714D01*
X60904476Y-77192095D01*
X60809238Y-77144476D01*
X60714000Y-77049238D01*
X60666380Y-76906380D01*
X60666380Y-76811142D01*
X60714000Y-76668285D01*
X60761619Y-76620666D01*
X60761619Y-76239714D02*
X60714000Y-76192095D01*
X60666380Y-76096857D01*
X60666380Y-75858761D01*
X60714000Y-75763523D01*
X60761619Y-75715904D01*
X60856857Y-75668285D01*
X60952095Y-75668285D01*
X61094952Y-75715904D01*
X61666380Y-76287333D01*
X61666380Y-75668285D01*
%TO.C,C1*%
X61571142Y-66714666D02*
X61618761Y-66762285D01*
X61666380Y-66905142D01*
X61666380Y-67000380D01*
X61618761Y-67143238D01*
X61523523Y-67238476D01*
X61428285Y-67286095D01*
X61237809Y-67333714D01*
X61094952Y-67333714D01*
X60904476Y-67286095D01*
X60809238Y-67238476D01*
X60714000Y-67143238D01*
X60666380Y-67000380D01*
X60666380Y-66905142D01*
X60714000Y-66762285D01*
X60761619Y-66714666D01*
X61666380Y-65762285D02*
X61666380Y-66333714D01*
X61666380Y-66048000D02*
X60666380Y-66048000D01*
X60809238Y-66143238D01*
X60904476Y-66238476D01*
X60952095Y-66333714D01*
D11*
%TO.C,J6*%
X67758000Y-90115000D02*
X83118000Y-90115000D01*
X70358000Y-92715000D02*
X67758000Y-92715000D01*
X70358000Y-95315000D02*
X83118000Y-95315000D01*
X83118000Y-95315000D02*
X83118000Y-90115000D01*
X67758000Y-95315000D02*
X67758000Y-93985000D01*
X69088000Y-95315000D02*
X67758000Y-95315000D01*
X67758000Y-92715000D02*
X67758000Y-90115000D01*
X70358000Y-95315000D02*
X70358000Y-92715000D01*
%TO.C,J3*%
X53445000Y-67270000D02*
G75*
G03*
X53445000Y-67270000I-1680000J0D01*
G01*
X53300000Y-62954000D02*
G75*
G03*
X53300427Y-61586958I-1534993J684001D01*
G01*
X52449000Y-60735000D02*
G75*
G03*
X51081958Y-60734573I-684001J-1534993D01*
G01*
X50085000Y-62270000D02*
G75*
G03*
X50230244Y-62953318I1680000J0D01*
G01*
X50230000Y-61586000D02*
G75*
G03*
X50084747Y-62298805I1535001J-683999D01*
G01*
X51081000Y-63805001D02*
G75*
G03*
X52448042Y-63805427I684000J1535001D01*
G01*
X47665000Y-59710000D02*
X47665000Y-69830000D01*
X54066000Y-59710000D02*
X54066000Y-69830000D01*
X53040000Y-68340000D02*
X53004000Y-68305000D01*
X52834000Y-68545000D02*
X52788000Y-68498000D01*
X57026000Y-69830000D02*
X47105000Y-69830000D01*
X57026000Y-59710000D02*
X47105000Y-59710000D01*
X47605000Y-59470000D02*
X46865000Y-59470000D01*
X50526000Y-66236000D02*
X50491000Y-66201000D01*
X49165000Y-59710000D02*
X49165000Y-69830000D01*
X50742000Y-66043000D02*
X50696000Y-65996000D01*
X47105000Y-59710000D02*
X47105000Y-69830000D01*
X46865000Y-59470000D02*
X46865000Y-59970000D01*
X57026000Y-59710000D02*
X57026000Y-69830000D01*
%TO.C,U1*%
X72514000Y-79503000D02*
X72514000Y-78103000D01*
X70274000Y-70223000D02*
X72514000Y-70223000D01*
X72514000Y-78103000D02*
X70274000Y-78103000D01*
X72524000Y-79503000D02*
X74294000Y-79503000D01*
X74294000Y-79503000D02*
X74294000Y-68833000D01*
X72514000Y-70223000D02*
X72514000Y-68833000D01*
X74294000Y-68833000D02*
X72514000Y-68833000D01*
X70274000Y-78103000D02*
X70274000Y-70223000D01*
%TO.C,R2*%
X85574000Y-82042000D02*
X84804000Y-82042000D01*
X77494000Y-82042000D02*
X78264000Y-82042000D01*
X78264000Y-80672000D02*
X78264000Y-83412000D01*
X84804000Y-83412000D02*
X84804000Y-80672000D01*
X78264000Y-83412000D02*
X84804000Y-83412000D01*
X84804000Y-80672000D02*
X78264000Y-80672000D01*
%TO.C,R1*%
X78208000Y-67056000D02*
X77438000Y-67056000D01*
X70128000Y-67056000D02*
X70898000Y-67056000D01*
X70898000Y-65686000D02*
X70898000Y-68426000D01*
X77438000Y-68426000D02*
X77438000Y-65686000D01*
X70898000Y-68426000D02*
X77438000Y-68426000D01*
X77438000Y-65686000D02*
X70898000Y-65686000D01*
%TO.C,J4*%
X73388000Y-58420000D02*
G75*
G03*
X73388000Y-58420000I-1680000J0D01*
G01*
X76024000Y-59955000D02*
G75*
G03*
X77391042Y-59955427I684001J1534993D01*
G01*
X78243000Y-59104000D02*
G75*
G03*
X78243427Y-57736958I-1534993J684001D01*
G01*
X76708000Y-56740000D02*
G75*
G03*
X76024682Y-56885244I0J-1680000D01*
G01*
X77392000Y-56885000D02*
G75*
G03*
X76679195Y-56739747I-683999J-1535001D01*
G01*
X75172999Y-57736000D02*
G75*
G03*
X75172573Y-59103042I1535001J-684000D01*
G01*
X79268000Y-54320000D02*
X69148000Y-54320000D01*
X79268000Y-60721000D02*
X69148000Y-60721000D01*
X70638000Y-59695000D02*
X70673000Y-59659000D01*
X70433000Y-59489000D02*
X70480000Y-59443000D01*
X69148000Y-63681000D02*
X69148000Y-53760000D01*
X79268000Y-63681000D02*
X79268000Y-53760000D01*
X79508000Y-54260000D02*
X79508000Y-53520000D01*
X72742000Y-57181000D02*
X72777000Y-57146000D01*
X79268000Y-55820000D02*
X69148000Y-55820000D01*
X72935000Y-57397000D02*
X72982000Y-57351000D01*
X79268000Y-53760000D02*
X69148000Y-53760000D01*
X79508000Y-53520000D02*
X79008000Y-53520000D01*
X79268000Y-63681000D02*
X69148000Y-63681000D01*
%TO.C,J2*%
X53496000Y-89582000D02*
G75*
G03*
X53496000Y-89582000I-1680000J0D01*
G01*
X53351000Y-85266000D02*
G75*
G03*
X53351427Y-83898958I-1534993J684001D01*
G01*
X52500000Y-83047000D02*
G75*
G03*
X51132958Y-83046573I-684001J-1534993D01*
G01*
X50136000Y-84582000D02*
G75*
G03*
X50281244Y-85265318I1680000J0D01*
G01*
X50281000Y-83898000D02*
G75*
G03*
X50135747Y-84610805I1535001J-683999D01*
G01*
X51132000Y-86117001D02*
G75*
G03*
X52499042Y-86117427I684000J1535001D01*
G01*
X47716000Y-82022000D02*
X47716000Y-92142000D01*
X54117000Y-82022000D02*
X54117000Y-92142000D01*
X53091000Y-90652000D02*
X53055000Y-90617000D01*
X52885000Y-90857000D02*
X52839000Y-90810000D01*
X57077000Y-92142000D02*
X47156000Y-92142000D01*
X57077000Y-82022000D02*
X47156000Y-82022000D01*
X47656000Y-81782000D02*
X46916000Y-81782000D01*
X50577000Y-88548000D02*
X50542000Y-88513000D01*
X49216000Y-82022000D02*
X49216000Y-92142000D01*
X50793000Y-88355000D02*
X50747000Y-88308000D01*
X47156000Y-82022000D02*
X47156000Y-92142000D01*
X46916000Y-81782000D02*
X46916000Y-82282000D01*
X57077000Y-82022000D02*
X57077000Y-92142000D01*
%TO.C,J1*%
X57077000Y-70846000D02*
X57077000Y-80966000D01*
X46916000Y-70606000D02*
X46916000Y-71106000D01*
X47156000Y-70846000D02*
X47156000Y-80966000D01*
X50793000Y-77179000D02*
X50747000Y-77132000D01*
X49216000Y-70846000D02*
X49216000Y-80966000D01*
X50577000Y-77372000D02*
X50542000Y-77337000D01*
X47656000Y-70606000D02*
X46916000Y-70606000D01*
X57077000Y-70846000D02*
X47156000Y-70846000D01*
X57077000Y-80966000D02*
X47156000Y-80966000D01*
X52885000Y-79681000D02*
X52839000Y-79634000D01*
X53091000Y-79476000D02*
X53055000Y-79441000D01*
X54117000Y-70846000D02*
X54117000Y-80966000D01*
X47716000Y-70846000D02*
X47716000Y-80966000D01*
X51132000Y-74941001D02*
G75*
G03*
X52499042Y-74941427I684000J1535001D01*
G01*
X50281000Y-72722000D02*
G75*
G03*
X50135747Y-73434805I1535001J-683999D01*
G01*
X50136000Y-73406000D02*
G75*
G03*
X50281244Y-74089318I1680000J0D01*
G01*
X52500000Y-71871000D02*
G75*
G03*
X51132958Y-71870573I-684001J-1534993D01*
G01*
X53351000Y-74090000D02*
G75*
G03*
X53351427Y-72722958I-1534993J684001D01*
G01*
X53496000Y-78406000D02*
G75*
G03*
X53496000Y-78406000I-1680000J0D01*
G01*
%TO.C,D2*%
X88667000Y-71608000D02*
X85577000Y-71608000D01*
X85577170Y-71608000D02*
G75*
G03*
X87122462Y-77158000I1544830J-2560000D01*
G01*
X87121538Y-77158000D02*
G75*
G03*
X88666830Y-71608000I462J2990000D01*
G01*
X89622000Y-74168000D02*
G75*
G03*
X89622000Y-74168000I-2500000J0D01*
G01*
%TO.C,D1*%
X85111000Y-57125000D02*
X82021000Y-57125000D01*
X82021170Y-57125000D02*
G75*
G03*
X83566462Y-62675000I1544830J-2560000D01*
G01*
X83565538Y-62675000D02*
G75*
G03*
X85110830Y-57125000I462J2990000D01*
G01*
X86066000Y-59685000D02*
G75*
G03*
X86066000Y-59685000I-2500000J0D01*
G01*
%TO.C,C6*%
X80692000Y-84228000D02*
X80692000Y-86968000D01*
X80692000Y-84228000D02*
X85932000Y-84228000D01*
X85932000Y-84228000D02*
X85932000Y-86968000D01*
X80692000Y-86968000D02*
X85932000Y-86968000D01*
%TO.C,C5*%
X75152000Y-83244380D02*
G75*
G03*
X75152000Y-83244380I-3270000J0D01*
G01*
X68658000Y-83044380D02*
X75106000Y-83044380D01*
X69166000Y-81483380D02*
X70842000Y-81483380D01*
X72922000Y-81123380D02*
X74332000Y-81123380D01*
X72922000Y-82564380D02*
X75041000Y-82564380D01*
X68966000Y-81843380D02*
X70842000Y-81843380D01*
X68687000Y-82764380D02*
X70842000Y-82764380D01*
X72922000Y-82043380D02*
X74884000Y-82043380D01*
X68880000Y-82043380D02*
X70842000Y-82043380D01*
X68671000Y-82884380D02*
X70842000Y-82884380D01*
X68821000Y-82203380D02*
X70842000Y-82203380D01*
X68808000Y-82243380D02*
X70842000Y-82243380D01*
X68896000Y-82003380D02*
X70842000Y-82003380D01*
X69366000Y-81203380D02*
X70842000Y-81203380D01*
X68676000Y-82844380D02*
X70842000Y-82844380D01*
X72922000Y-81403380D02*
X74546000Y-81403380D01*
X69006000Y-81763380D02*
X70842000Y-81763380D01*
X72922000Y-82884380D02*
X75093000Y-82884380D01*
X69334000Y-81243380D02*
X70842000Y-81243380D01*
X72922000Y-81443380D02*
X74572000Y-81443380D01*
X72922000Y-81163380D02*
X74366000Y-81163380D01*
X68655000Y-83084380D02*
X75109000Y-83084380D01*
X72922000Y-81883380D02*
X74816000Y-81883380D01*
X68715000Y-82604380D02*
X70842000Y-82604380D01*
X69140000Y-81523380D02*
X70842000Y-81523380D01*
X72922000Y-81043380D02*
X74262000Y-81043380D01*
X72922000Y-82844380D02*
X75088000Y-82844380D01*
X70620000Y-80243380D02*
X73144000Y-80243380D01*
X69938000Y-80643380D02*
X73826000Y-80643380D01*
X69700000Y-80843380D02*
X74064000Y-80843380D01*
X72922000Y-82163380D02*
X74929000Y-82163380D01*
X72922000Y-81203380D02*
X74398000Y-81203380D01*
X69246000Y-81363380D02*
X70842000Y-81363380D01*
X70717000Y-80203380D02*
X73047000Y-80203380D01*
X72922000Y-82323380D02*
X74980000Y-82323380D01*
X68796000Y-82283380D02*
X70842000Y-82283380D01*
X72922000Y-83004380D02*
X75104000Y-83004380D01*
X69304000Y-81283380D02*
X70842000Y-81283380D01*
X72922000Y-81803380D02*
X74778000Y-81803380D01*
X69617000Y-80923380D02*
X74147000Y-80923380D01*
X69432000Y-81123380D02*
X70842000Y-81123380D01*
X68664000Y-82964380D02*
X70842000Y-82964380D01*
X68741000Y-82483380D02*
X70842000Y-82483380D01*
X72922000Y-82123380D02*
X74915000Y-82123380D01*
X68761000Y-82403380D02*
X70842000Y-82403380D01*
X69116000Y-81563380D02*
X70842000Y-81563380D01*
X72922000Y-82403380D02*
X75003000Y-82403380D01*
X68652000Y-83244380D02*
X75112000Y-83244380D01*
X68784000Y-82323380D02*
X70842000Y-82323380D01*
X68723000Y-82564380D02*
X70842000Y-82564380D01*
X68693000Y-82724380D02*
X70842000Y-82724380D01*
X72922000Y-82203380D02*
X74943000Y-82203380D01*
X68986000Y-81803380D02*
X70842000Y-81803380D01*
X72922000Y-82804380D02*
X75083000Y-82804380D01*
X70942000Y-80123380D02*
X72822000Y-80123380D01*
X70823000Y-80163380D02*
X72941000Y-80163380D01*
X68707000Y-82644380D02*
X70842000Y-82644380D01*
X70301000Y-80403380D02*
X73463000Y-80403380D01*
X69502000Y-81043380D02*
X70842000Y-81043380D01*
X70168000Y-80483380D02*
X73596000Y-80483380D01*
X72922000Y-81683380D02*
X74716000Y-81683380D01*
X69728000Y-86429621D02*
X70358000Y-86429621D01*
X72922000Y-82523380D02*
X75032000Y-82523380D01*
X68849000Y-82123380D02*
X70842000Y-82123380D01*
X72922000Y-81083380D02*
X74298000Y-81083380D01*
X72922000Y-81323380D02*
X74489000Y-81323380D01*
X68772000Y-82363380D02*
X70842000Y-82363380D01*
X72922000Y-82764380D02*
X75077000Y-82764380D01*
X72922000Y-81723380D02*
X74738000Y-81723380D01*
X68864000Y-82083380D02*
X70842000Y-82083380D01*
X72922000Y-81003380D02*
X74225000Y-81003380D01*
X68948000Y-81883380D02*
X70842000Y-81883380D01*
X68732000Y-82523380D02*
X70842000Y-82523380D01*
X70532000Y-80283380D02*
X73232000Y-80283380D01*
X72922000Y-82283380D02*
X74968000Y-82283380D01*
X69539000Y-81003380D02*
X70842000Y-81003380D01*
X72922000Y-81923380D02*
X74834000Y-81923380D01*
X69790000Y-80763380D02*
X73974000Y-80763380D01*
X69838000Y-80723380D02*
X73926000Y-80723380D01*
X72922000Y-81843380D02*
X74798000Y-81843380D01*
X72922000Y-81963380D02*
X74852000Y-81963380D01*
X72922000Y-82483380D02*
X75023000Y-82483380D01*
X69275000Y-81323380D02*
X70842000Y-81323380D01*
X69745000Y-80803380D02*
X74019000Y-80803380D01*
X72922000Y-81563380D02*
X74648000Y-81563380D01*
X68930000Y-81923380D02*
X70842000Y-81923380D01*
X69092000Y-81603380D02*
X70842000Y-81603380D01*
X68667000Y-82924380D02*
X70842000Y-82924380D01*
X68912000Y-81963380D02*
X70842000Y-81963380D01*
X72922000Y-82924380D02*
X75097000Y-82924380D01*
X72922000Y-81283380D02*
X74460000Y-81283380D01*
X72922000Y-80963380D02*
X74187000Y-80963380D01*
X71249000Y-80043380D02*
X72515000Y-80043380D01*
X72922000Y-81363380D02*
X74518000Y-81363380D01*
X70106000Y-80523380D02*
X73658000Y-80523380D01*
X69192000Y-81443380D02*
X70842000Y-81443380D01*
X69466000Y-81083380D02*
X70842000Y-81083380D01*
X68660000Y-83004380D02*
X70842000Y-83004380D01*
X72922000Y-82443380D02*
X75013000Y-82443380D01*
X69048000Y-81683380D02*
X70842000Y-81683380D01*
X68681000Y-82804380D02*
X70842000Y-82804380D01*
X70450000Y-80323380D02*
X73314000Y-80323380D01*
X69218000Y-81403380D02*
X70842000Y-81403380D01*
X72922000Y-82964380D02*
X75100000Y-82964380D01*
X72922000Y-82644380D02*
X75057000Y-82644380D01*
X70232000Y-80443380D02*
X73532000Y-80443380D01*
X69398000Y-81163380D02*
X70842000Y-81163380D01*
X72922000Y-82083380D02*
X74900000Y-82083380D01*
X69658000Y-80883380D02*
X74106000Y-80883380D01*
X70373000Y-80363380D02*
X73391000Y-80363380D01*
X72922000Y-82724380D02*
X75071000Y-82724380D01*
X72922000Y-81483380D02*
X74598000Y-81483380D01*
X69070000Y-81643380D02*
X70842000Y-81643380D01*
X72922000Y-82003380D02*
X74868000Y-82003380D01*
X72922000Y-82604380D02*
X75049000Y-82604380D01*
X71480000Y-80003380D02*
X72284000Y-80003380D01*
X72922000Y-81523380D02*
X74624000Y-81523380D01*
X70043000Y-86744621D02*
X70043000Y-86114621D01*
X72922000Y-81603380D02*
X74672000Y-81603380D01*
X68654000Y-83124380D02*
X75110000Y-83124380D01*
X71080000Y-80083380D02*
X72684000Y-80083380D01*
X68700000Y-82684380D02*
X70842000Y-82684380D01*
X69577000Y-80963380D02*
X70842000Y-80963380D01*
X69026000Y-81723380D02*
X70842000Y-81723380D01*
X72922000Y-81643380D02*
X74694000Y-81643380D01*
X72922000Y-82684380D02*
X75064000Y-82684380D01*
X69887000Y-80683380D02*
X73877000Y-80683380D01*
X70048000Y-80563380D02*
X73716000Y-80563380D01*
X68652000Y-83204380D02*
X75112000Y-83204380D01*
X72922000Y-82243380D02*
X74956000Y-82243380D01*
X72922000Y-82363380D02*
X74992000Y-82363380D01*
X68652000Y-83164380D02*
X75112000Y-83164380D01*
X68751000Y-82443380D02*
X70842000Y-82443380D01*
X69992000Y-80603380D02*
X73772000Y-80603380D01*
X68835000Y-82163380D02*
X70842000Y-82163380D01*
X72922000Y-81763380D02*
X74758000Y-81763380D01*
X72922000Y-81243380D02*
X74430000Y-81243380D01*
%TO.C,C4*%
X60752677Y-58703000D02*
X60752677Y-55440000D01*
X59392677Y-63422000D02*
X59392677Y-61185000D01*
X61112677Y-58703000D02*
X61112677Y-55270000D01*
X59952677Y-63933000D02*
X59952677Y-61185000D01*
X61352677Y-64712000D02*
X61352677Y-61185000D01*
X58552677Y-62233000D02*
X58552677Y-57655000D01*
X59872677Y-58703000D02*
X59872677Y-56019000D01*
X58232677Y-61454000D02*
X58232677Y-58434000D01*
X62673677Y-65006000D02*
X62673677Y-54882000D01*
X61632677Y-58703000D02*
X61632677Y-55082000D01*
X61632677Y-64806000D02*
X61632677Y-61185000D01*
X61792677Y-64851000D02*
X61792677Y-61185000D01*
X58432677Y-61981000D02*
X58432677Y-57907000D01*
X58352677Y-61790000D02*
X58352677Y-58098000D01*
X59512677Y-58703000D02*
X59512677Y-56343000D01*
X60192677Y-64110000D02*
X60192677Y-61185000D01*
X62793677Y-65014000D02*
X62793677Y-54874000D01*
X61512677Y-58703000D02*
X61512677Y-55120000D01*
X59992677Y-58703000D02*
X59992677Y-55924000D01*
X59152677Y-63150000D02*
X59152677Y-56738000D01*
X60272677Y-64165000D02*
X60272677Y-61185000D01*
X61032677Y-58703000D02*
X61032677Y-55305000D01*
X60152677Y-58703000D02*
X60152677Y-55806000D01*
X58632677Y-62383000D02*
X58632677Y-57505000D01*
X61592677Y-64794000D02*
X61592677Y-61185000D01*
X60952677Y-64547000D02*
X60952677Y-61185000D01*
X63073677Y-65024000D02*
X63073677Y-54864000D01*
X60992677Y-64565000D02*
X60992677Y-61185000D01*
X68593323Y-62819000D02*
X67593323Y-62819000D01*
X61112677Y-64618000D02*
X61112677Y-61185000D01*
X58152677Y-61174000D02*
X58152677Y-58714000D01*
X60232677Y-64138000D02*
X60232677Y-61185000D01*
X59312677Y-63336000D02*
X59312677Y-56552000D01*
X61592677Y-58703000D02*
X61592677Y-55094000D01*
X61232677Y-64667000D02*
X61232677Y-61185000D01*
X62192677Y-64941000D02*
X62192677Y-54947000D01*
X62032677Y-64909000D02*
X62032677Y-54979000D01*
X58192677Y-61322000D02*
X58192677Y-58566000D01*
X59432677Y-63464000D02*
X59432677Y-61185000D01*
X60792677Y-64469000D02*
X60792677Y-61185000D01*
X62392677Y-64974000D02*
X62392677Y-54914000D01*
X61432677Y-58703000D02*
X61432677Y-55147000D01*
X59792677Y-58703000D02*
X59792677Y-56086000D01*
X61952677Y-64891000D02*
X61952677Y-54997000D01*
X60952677Y-58703000D02*
X60952677Y-55341000D01*
X59712677Y-63733000D02*
X59712677Y-61185000D01*
X59672677Y-58703000D02*
X59672677Y-56191000D01*
X58312677Y-61686000D02*
X58312677Y-58202000D01*
X58832677Y-62714000D02*
X58832677Y-57174000D01*
X61832677Y-58703000D02*
X61832677Y-55026000D01*
X62152677Y-64934000D02*
X62152677Y-54954000D01*
X58472677Y-62069000D02*
X58472677Y-57819000D01*
X59992677Y-63964000D02*
X59992677Y-61185000D01*
X61312677Y-64698000D02*
X61312677Y-61185000D01*
X61352677Y-58703000D02*
X61352677Y-55176000D01*
X60712677Y-58703000D02*
X60712677Y-55461000D01*
X60912677Y-58703000D02*
X60912677Y-55360000D01*
X59592677Y-63623000D02*
X59592677Y-61185000D01*
X62473677Y-64984000D02*
X62473677Y-54904000D01*
X58792677Y-62653000D02*
X58792677Y-57235000D01*
X60352677Y-64217000D02*
X60352677Y-61185000D01*
X58272677Y-61574000D02*
X58272677Y-58314000D01*
X62633677Y-65002000D02*
X62633677Y-54886000D01*
X58992677Y-62944000D02*
X58992677Y-56944000D01*
X61552677Y-64781000D02*
X61552677Y-61185000D01*
X59912677Y-63901000D02*
X59912677Y-61185000D01*
X58752677Y-62589000D02*
X58752677Y-57299000D01*
X60432677Y-64267000D02*
X60432677Y-61185000D01*
X61912677Y-64882000D02*
X61912677Y-55006000D01*
X61192677Y-58703000D02*
X61192677Y-55237000D01*
X60152677Y-64082000D02*
X60152677Y-61185000D01*
X63033677Y-65024000D02*
X63033677Y-54864000D01*
X61232677Y-58703000D02*
X61232677Y-55221000D01*
X59352677Y-63380000D02*
X59352677Y-56508000D01*
X61392677Y-58703000D02*
X61392677Y-55161000D01*
X62112677Y-64926000D02*
X62112677Y-54962000D01*
X60272677Y-58703000D02*
X60272677Y-55723000D01*
X62272677Y-64955000D02*
X62272677Y-54933000D01*
X60232677Y-58703000D02*
X60232677Y-55750000D01*
X58912677Y-62833000D02*
X58912677Y-57055000D01*
X60592677Y-64361000D02*
X60592677Y-61185000D01*
X59472677Y-63505000D02*
X59472677Y-61185000D01*
X59832677Y-63836000D02*
X59832677Y-61185000D01*
X62993677Y-65023000D02*
X62993677Y-54865000D01*
X58112677Y-61006000D02*
X58112677Y-58882000D01*
X62352677Y-64968000D02*
X62352677Y-54920000D01*
X60112677Y-58703000D02*
X60112677Y-55834000D01*
X60032677Y-63994000D02*
X60032677Y-61185000D01*
X60072677Y-58703000D02*
X60072677Y-55864000D01*
X60872677Y-58703000D02*
X60872677Y-55380000D01*
X61672677Y-58703000D02*
X61672677Y-55070000D01*
X59392677Y-58703000D02*
X59392677Y-56466000D01*
X62312677Y-64962000D02*
X62312677Y-54926000D01*
X61792677Y-58703000D02*
X61792677Y-55037000D01*
X58032677Y-60543000D02*
X58032677Y-59345000D01*
X60632677Y-64384000D02*
X60632677Y-61185000D01*
X61192677Y-64651000D02*
X61192677Y-61185000D01*
X60312677Y-64191000D02*
X60312677Y-61185000D01*
X60432677Y-58703000D02*
X60432677Y-55621000D01*
X60872677Y-64508000D02*
X60872677Y-61185000D01*
X59432677Y-58703000D02*
X59432677Y-56424000D01*
X60112677Y-64054000D02*
X60112677Y-61185000D01*
X59032677Y-62998000D02*
X59032677Y-56890000D01*
X60712677Y-64427000D02*
X60712677Y-61185000D01*
X60552677Y-64339000D02*
X60552677Y-61185000D01*
X58592677Y-62309000D02*
X58592677Y-57579000D01*
X58952677Y-62889000D02*
X58952677Y-56999000D01*
X60992677Y-58703000D02*
X60992677Y-55323000D01*
X61272677Y-58703000D02*
X61272677Y-55206000D01*
X61312677Y-58703000D02*
X61312677Y-55190000D01*
X59672677Y-63697000D02*
X59672677Y-61185000D01*
X59552677Y-63584000D02*
X59552677Y-61185000D01*
X60512677Y-64315000D02*
X60512677Y-61185000D01*
X59552677Y-58703000D02*
X59552677Y-56304000D01*
X60832677Y-58703000D02*
X60832677Y-55399000D01*
X61872677Y-64872000D02*
X61872677Y-55016000D01*
X60912677Y-64528000D02*
X60912677Y-61185000D01*
X62953677Y-65022000D02*
X62953677Y-54866000D01*
X68093323Y-63319000D02*
X68093323Y-62319000D01*
X59712677Y-58703000D02*
X59712677Y-56155000D01*
X58712677Y-62523000D02*
X58712677Y-57365000D01*
X61832677Y-64862000D02*
X61832677Y-61185000D01*
X62873677Y-65019000D02*
X62873677Y-54869000D01*
X60672677Y-58703000D02*
X60672677Y-55482000D01*
X61152677Y-58703000D02*
X61152677Y-55254000D01*
X59912677Y-58703000D02*
X59912677Y-55987000D01*
X59072677Y-63050000D02*
X59072677Y-56838000D01*
X62713677Y-65009000D02*
X62713677Y-54879000D01*
X61472677Y-58703000D02*
X61472677Y-55133000D01*
X60472677Y-64291000D02*
X60472677Y-61185000D01*
X58672677Y-62454000D02*
X58672677Y-57434000D01*
X60552677Y-58703000D02*
X60552677Y-55549000D01*
X62833677Y-65017000D02*
X62833677Y-54871000D01*
X59752677Y-63768000D02*
X59752677Y-61185000D01*
X59232677Y-63245000D02*
X59232677Y-56643000D01*
X59192677Y-63198000D02*
X59192677Y-56690000D01*
X60352677Y-58703000D02*
X60352677Y-55671000D01*
X59752677Y-58703000D02*
X59752677Y-56120000D01*
X60832677Y-64489000D02*
X60832677Y-61185000D01*
X60032677Y-58703000D02*
X60032677Y-55894000D01*
X62072677Y-64918000D02*
X62072677Y-54970000D01*
X59872677Y-63869000D02*
X59872677Y-61185000D01*
X61512677Y-64768000D02*
X61512677Y-61185000D01*
X59272677Y-63291000D02*
X59272677Y-56597000D01*
X61712677Y-58703000D02*
X61712677Y-55059000D01*
X61272677Y-64682000D02*
X61272677Y-61185000D01*
X60632677Y-58703000D02*
X60632677Y-55504000D01*
X59792677Y-63802000D02*
X59792677Y-61185000D01*
X59592677Y-58703000D02*
X59592677Y-56265000D01*
X61072677Y-64601000D02*
X61072677Y-61185000D01*
X61552677Y-58703000D02*
X61552677Y-55107000D01*
X61392677Y-64727000D02*
X61392677Y-61185000D01*
X60592677Y-58703000D02*
X60592677Y-55527000D01*
X62593677Y-64998000D02*
X62593677Y-54890000D01*
X61992677Y-64900000D02*
X61992677Y-54988000D01*
X59632677Y-58703000D02*
X59632677Y-56228000D01*
X62913677Y-65021000D02*
X62913677Y-54867000D01*
X61672677Y-64818000D02*
X61672677Y-61185000D01*
X62232677Y-64948000D02*
X62232677Y-54940000D01*
X58512677Y-62153000D02*
X58512677Y-57735000D01*
X59832677Y-58703000D02*
X59832677Y-56052000D01*
X60312677Y-58703000D02*
X60312677Y-55697000D01*
X61472677Y-64755000D02*
X61472677Y-61185000D01*
X60752677Y-64448000D02*
X60752677Y-61185000D01*
X61752677Y-58703000D02*
X61752677Y-55047000D01*
X62433677Y-64979000D02*
X62433677Y-54909000D01*
X59632677Y-63660000D02*
X59632677Y-61185000D01*
X60392677Y-64242000D02*
X60392677Y-61185000D01*
X59952677Y-58703000D02*
X59952677Y-55955000D01*
X59472677Y-58703000D02*
X59472677Y-56383000D01*
X61032677Y-64583000D02*
X61032677Y-61185000D01*
X60792677Y-58703000D02*
X60792677Y-55419000D01*
X59112677Y-63100000D02*
X59112677Y-56788000D01*
X62553677Y-64994000D02*
X62553677Y-54894000D01*
X62753677Y-65012000D02*
X62753677Y-54876000D01*
X58392677Y-61888000D02*
X58392677Y-58000000D01*
X61432677Y-64741000D02*
X61432677Y-61185000D01*
X59512677Y-63545000D02*
X59512677Y-61185000D01*
X61752677Y-64841000D02*
X61752677Y-61185000D01*
X58072677Y-60806000D02*
X58072677Y-59082000D01*
X61712677Y-64829000D02*
X61712677Y-61185000D01*
X61152677Y-64634000D02*
X61152677Y-61185000D01*
X60072677Y-64024000D02*
X60072677Y-61185000D01*
X58872677Y-62774000D02*
X58872677Y-57114000D01*
X61072677Y-58703000D02*
X61072677Y-55287000D01*
X60472677Y-58703000D02*
X60472677Y-55597000D01*
X60672677Y-64406000D02*
X60672677Y-61185000D01*
X60392677Y-58703000D02*
X60392677Y-55646000D01*
X60192677Y-58703000D02*
X60192677Y-55778000D01*
X60512677Y-58703000D02*
X60512677Y-55573000D01*
X63113677Y-65024000D02*
X63113677Y-54864000D01*
X62513677Y-64989000D02*
X62513677Y-54899000D01*
X68233677Y-59944000D02*
G75*
G03*
X68233677Y-59944000I-5120000J0D01*
G01*
%TO.C,C3*%
X62254000Y-88863380D02*
X63762000Y-88863380D01*
X62254000Y-89383380D02*
X64090000Y-89383380D01*
X58167000Y-89783380D02*
X60174000Y-89783380D01*
X59324000Y-88223380D02*
X63104000Y-88223380D01*
X58083000Y-90063380D02*
X60174000Y-90063380D01*
X57984000Y-90784380D02*
X64444000Y-90784380D01*
X62254000Y-89983380D02*
X64324000Y-89983380D01*
X62254000Y-89863380D02*
X64288000Y-89863380D01*
X57984000Y-90824380D02*
X64444000Y-90824380D01*
X59380000Y-88183380D02*
X63048000Y-88183380D01*
X59219000Y-88303380D02*
X63209000Y-88303380D01*
X62254000Y-90304380D02*
X64396000Y-90304380D01*
X62254000Y-89263380D02*
X64026000Y-89263380D01*
X58358000Y-89343380D02*
X60174000Y-89343380D01*
X58909000Y-88583380D02*
X60174000Y-88583380D01*
X58032000Y-90304380D02*
X60174000Y-90304380D01*
X60412000Y-87703380D02*
X62016000Y-87703380D01*
X57986000Y-90744380D02*
X64442000Y-90744380D01*
X62254000Y-89223380D02*
X64004000Y-89223380D01*
X59375000Y-94364621D02*
X59375000Y-93734621D01*
X62254000Y-89143380D02*
X63956000Y-89143380D01*
X60812000Y-87623380D02*
X61616000Y-87623380D01*
X62254000Y-90224380D02*
X64381000Y-90224380D01*
X62254000Y-89623380D02*
X64200000Y-89623380D01*
X58402000Y-89263380D02*
X60174000Y-89263380D01*
X62254000Y-89103380D02*
X63930000Y-89103380D01*
X62254000Y-90344380D02*
X64403000Y-90344380D01*
X59705000Y-87983380D02*
X62723000Y-87983380D01*
X58990000Y-88503380D02*
X63438000Y-88503380D01*
X62254000Y-89703380D02*
X64232000Y-89703380D01*
X58730000Y-88783380D02*
X60174000Y-88783380D01*
X59564000Y-88063380D02*
X62864000Y-88063380D01*
X62254000Y-90264380D02*
X64389000Y-90264380D01*
X62254000Y-90584380D02*
X64432000Y-90584380D01*
X58550000Y-89023380D02*
X60174000Y-89023380D01*
X59782000Y-87943380D02*
X62646000Y-87943380D01*
X58013000Y-90424380D02*
X60174000Y-90424380D01*
X58380000Y-89303380D02*
X60174000Y-89303380D01*
X62254000Y-90063380D02*
X64345000Y-90063380D01*
X57992000Y-90624380D02*
X60174000Y-90624380D01*
X58798000Y-88703380D02*
X60174000Y-88703380D01*
X58524000Y-89063380D02*
X60174000Y-89063380D01*
X59438000Y-88143380D02*
X62990000Y-88143380D01*
X62254000Y-88983380D02*
X63850000Y-88983380D01*
X60581000Y-87663380D02*
X61847000Y-87663380D01*
X62254000Y-88583380D02*
X63519000Y-88583380D01*
X62254000Y-88903380D02*
X63792000Y-88903380D01*
X62254000Y-90544380D02*
X64429000Y-90544380D01*
X58244000Y-89583380D02*
X60174000Y-89583380D01*
X57999000Y-90544380D02*
X60174000Y-90544380D01*
X58424000Y-89223380D02*
X60174000Y-89223380D01*
X58262000Y-89543380D02*
X60174000Y-89543380D01*
X62254000Y-89183380D02*
X63980000Y-89183380D01*
X59077000Y-88423380D02*
X63351000Y-88423380D01*
X58607000Y-88943380D02*
X60174000Y-88943380D01*
X62254000Y-90103380D02*
X64355000Y-90103380D01*
X62254000Y-89583380D02*
X64184000Y-89583380D01*
X62254000Y-89463380D02*
X64130000Y-89463380D01*
X59170000Y-88343380D02*
X63258000Y-88343380D01*
X59122000Y-88383380D02*
X63306000Y-88383380D01*
X62254000Y-89543380D02*
X64166000Y-89543380D01*
X58871000Y-88623380D02*
X60174000Y-88623380D01*
X62254000Y-89903380D02*
X64300000Y-89903380D01*
X59864000Y-87903380D02*
X62564000Y-87903380D01*
X58064000Y-90143380D02*
X60174000Y-90143380D01*
X58280000Y-89503380D02*
X60174000Y-89503380D01*
X62254000Y-88623380D02*
X63557000Y-88623380D01*
X58196000Y-89703380D02*
X60174000Y-89703380D01*
X62254000Y-89343380D02*
X64070000Y-89343380D01*
X62254000Y-90384380D02*
X64409000Y-90384380D01*
X58104000Y-89983380D02*
X60174000Y-89983380D01*
X62254000Y-88943380D02*
X63821000Y-88943380D01*
X62254000Y-88703380D02*
X63630000Y-88703380D01*
X58181000Y-89743380D02*
X60174000Y-89743380D01*
X62254000Y-90143380D02*
X64364000Y-90143380D01*
X59060000Y-94049621D02*
X59690000Y-94049621D01*
X62254000Y-89303380D02*
X64048000Y-89303380D01*
X59500000Y-88103380D02*
X62928000Y-88103380D01*
X58834000Y-88663380D02*
X60174000Y-88663380D01*
X59633000Y-88023380D02*
X62795000Y-88023380D01*
X58039000Y-90264380D02*
X60174000Y-90264380D01*
X60155000Y-87783380D02*
X62273000Y-87783380D01*
X60274000Y-87743380D02*
X62154000Y-87743380D01*
X62254000Y-90424380D02*
X64415000Y-90424380D01*
X58318000Y-89423380D02*
X60174000Y-89423380D01*
X62254000Y-89823380D02*
X64275000Y-89823380D01*
X58025000Y-90344380D02*
X60174000Y-90344380D01*
X58055000Y-90184380D02*
X60174000Y-90184380D01*
X58116000Y-89943380D02*
X60174000Y-89943380D01*
X57984000Y-90864380D02*
X64444000Y-90864380D01*
X62254000Y-90023380D02*
X64335000Y-90023380D01*
X58448000Y-89183380D02*
X60174000Y-89183380D01*
X58093000Y-90023380D02*
X60174000Y-90023380D01*
X62254000Y-89743380D02*
X64247000Y-89743380D01*
X58073000Y-90103380D02*
X60174000Y-90103380D01*
X57996000Y-90584380D02*
X60174000Y-90584380D01*
X58764000Y-88743380D02*
X60174000Y-88743380D01*
X58949000Y-88543380D02*
X63479000Y-88543380D01*
X62254000Y-89423380D02*
X64110000Y-89423380D01*
X58636000Y-88903380D02*
X60174000Y-88903380D01*
X62254000Y-90624380D02*
X64436000Y-90624380D01*
X58128000Y-89903380D02*
X60174000Y-89903380D01*
X62254000Y-89943380D02*
X64312000Y-89943380D01*
X60049000Y-87823380D02*
X62379000Y-87823380D01*
X58578000Y-88983380D02*
X60174000Y-88983380D01*
X62254000Y-88823380D02*
X63730000Y-88823380D01*
X62254000Y-89783380D02*
X64261000Y-89783380D01*
X59032000Y-88463380D02*
X63396000Y-88463380D01*
X59270000Y-88263380D02*
X63158000Y-88263380D01*
X59952000Y-87863380D02*
X62476000Y-87863380D01*
X62254000Y-90464380D02*
X64420000Y-90464380D01*
X62254000Y-88663380D02*
X63594000Y-88663380D01*
X58472000Y-89143380D02*
X60174000Y-89143380D01*
X58047000Y-90224380D02*
X60174000Y-90224380D01*
X62254000Y-89503380D02*
X64148000Y-89503380D01*
X57987000Y-90704380D02*
X64441000Y-90704380D01*
X62254000Y-88783380D02*
X63698000Y-88783380D01*
X62254000Y-89063380D02*
X63904000Y-89063380D01*
X58666000Y-88863380D02*
X60174000Y-88863380D01*
X62254000Y-90504380D02*
X64425000Y-90504380D01*
X58338000Y-89383380D02*
X60174000Y-89383380D01*
X62254000Y-89023380D02*
X63878000Y-89023380D01*
X58008000Y-90464380D02*
X60174000Y-90464380D01*
X58698000Y-88823380D02*
X60174000Y-88823380D01*
X58228000Y-89623380D02*
X60174000Y-89623380D01*
X58140000Y-89863380D02*
X60174000Y-89863380D01*
X58153000Y-89823380D02*
X60174000Y-89823380D01*
X58003000Y-90504380D02*
X60174000Y-90504380D01*
X58212000Y-89663380D02*
X60174000Y-89663380D01*
X62254000Y-89663380D02*
X64216000Y-89663380D01*
X58019000Y-90384380D02*
X60174000Y-90384380D01*
X58298000Y-89463380D02*
X60174000Y-89463380D01*
X62254000Y-90184380D02*
X64373000Y-90184380D01*
X62254000Y-88743380D02*
X63664000Y-88743380D01*
X58498000Y-89103380D02*
X60174000Y-89103380D01*
X57990000Y-90664380D02*
X64438000Y-90664380D01*
X64484000Y-90864380D02*
G75*
G03*
X64484000Y-90864380I-3270000J0D01*
G01*
%TO.C,C2*%
X64484000Y-81212380D02*
G75*
G03*
X64484000Y-81212380I-3270000J0D01*
G01*
X57990000Y-81012380D02*
X64438000Y-81012380D01*
X58498000Y-79451380D02*
X60174000Y-79451380D01*
X62254000Y-79091380D02*
X63664000Y-79091380D01*
X62254000Y-80532380D02*
X64373000Y-80532380D01*
X58298000Y-79811380D02*
X60174000Y-79811380D01*
X58019000Y-80732380D02*
X60174000Y-80732380D01*
X62254000Y-80011380D02*
X64216000Y-80011380D01*
X58212000Y-80011380D02*
X60174000Y-80011380D01*
X58003000Y-80852380D02*
X60174000Y-80852380D01*
X58153000Y-80171380D02*
X60174000Y-80171380D01*
X58140000Y-80211380D02*
X60174000Y-80211380D01*
X58228000Y-79971380D02*
X60174000Y-79971380D01*
X58698000Y-79171380D02*
X60174000Y-79171380D01*
X58008000Y-80812380D02*
X60174000Y-80812380D01*
X62254000Y-79371380D02*
X63878000Y-79371380D01*
X58338000Y-79731380D02*
X60174000Y-79731380D01*
X62254000Y-80852380D02*
X64425000Y-80852380D01*
X58666000Y-79211380D02*
X60174000Y-79211380D01*
X62254000Y-79411380D02*
X63904000Y-79411380D01*
X62254000Y-79131380D02*
X63698000Y-79131380D01*
X57987000Y-81052380D02*
X64441000Y-81052380D01*
X62254000Y-79851380D02*
X64148000Y-79851380D01*
X58047000Y-80572380D02*
X60174000Y-80572380D01*
X58472000Y-79491380D02*
X60174000Y-79491380D01*
X62254000Y-79011380D02*
X63594000Y-79011380D01*
X62254000Y-80812380D02*
X64420000Y-80812380D01*
X59952000Y-78211380D02*
X62476000Y-78211380D01*
X59270000Y-78611380D02*
X63158000Y-78611380D01*
X59032000Y-78811380D02*
X63396000Y-78811380D01*
X62254000Y-80131380D02*
X64261000Y-80131380D01*
X62254000Y-79171380D02*
X63730000Y-79171380D01*
X58578000Y-79331380D02*
X60174000Y-79331380D01*
X60049000Y-78171380D02*
X62379000Y-78171380D01*
X62254000Y-80291380D02*
X64312000Y-80291380D01*
X58128000Y-80251380D02*
X60174000Y-80251380D01*
X62254000Y-80972380D02*
X64436000Y-80972380D01*
X58636000Y-79251380D02*
X60174000Y-79251380D01*
X62254000Y-79771380D02*
X64110000Y-79771380D01*
X58949000Y-78891380D02*
X63479000Y-78891380D01*
X58764000Y-79091380D02*
X60174000Y-79091380D01*
X57996000Y-80932380D02*
X60174000Y-80932380D01*
X58073000Y-80451380D02*
X60174000Y-80451380D01*
X62254000Y-80091380D02*
X64247000Y-80091380D01*
X58093000Y-80371380D02*
X60174000Y-80371380D01*
X58448000Y-79531380D02*
X60174000Y-79531380D01*
X62254000Y-80371380D02*
X64335000Y-80371380D01*
X57984000Y-81212380D02*
X64444000Y-81212380D01*
X58116000Y-80291380D02*
X60174000Y-80291380D01*
X58055000Y-80532380D02*
X60174000Y-80532380D01*
X58025000Y-80692380D02*
X60174000Y-80692380D01*
X62254000Y-80171380D02*
X64275000Y-80171380D01*
X58318000Y-79771380D02*
X60174000Y-79771380D01*
X62254000Y-80772380D02*
X64415000Y-80772380D01*
X60274000Y-78091380D02*
X62154000Y-78091380D01*
X60155000Y-78131380D02*
X62273000Y-78131380D01*
X58039000Y-80612380D02*
X60174000Y-80612380D01*
X59633000Y-78371380D02*
X62795000Y-78371380D01*
X58834000Y-79011380D02*
X60174000Y-79011380D01*
X59500000Y-78451380D02*
X62928000Y-78451380D01*
X62254000Y-79651380D02*
X64048000Y-79651380D01*
X59060000Y-84397621D02*
X59690000Y-84397621D01*
X62254000Y-80491380D02*
X64364000Y-80491380D01*
X58181000Y-80091380D02*
X60174000Y-80091380D01*
X62254000Y-79051380D02*
X63630000Y-79051380D01*
X62254000Y-79291380D02*
X63821000Y-79291380D01*
X58104000Y-80331380D02*
X60174000Y-80331380D01*
X62254000Y-80732380D02*
X64409000Y-80732380D01*
X62254000Y-79691380D02*
X64070000Y-79691380D01*
X58196000Y-80051380D02*
X60174000Y-80051380D01*
X62254000Y-78971380D02*
X63557000Y-78971380D01*
X58280000Y-79851380D02*
X60174000Y-79851380D01*
X58064000Y-80491380D02*
X60174000Y-80491380D01*
X59864000Y-78251380D02*
X62564000Y-78251380D01*
X62254000Y-80251380D02*
X64300000Y-80251380D01*
X58871000Y-78971380D02*
X60174000Y-78971380D01*
X62254000Y-79891380D02*
X64166000Y-79891380D01*
X59122000Y-78731380D02*
X63306000Y-78731380D01*
X59170000Y-78691380D02*
X63258000Y-78691380D01*
X62254000Y-79811380D02*
X64130000Y-79811380D01*
X62254000Y-79931380D02*
X64184000Y-79931380D01*
X62254000Y-80451380D02*
X64355000Y-80451380D01*
X58607000Y-79291380D02*
X60174000Y-79291380D01*
X59077000Y-78771380D02*
X63351000Y-78771380D01*
X62254000Y-79531380D02*
X63980000Y-79531380D01*
X58262000Y-79891380D02*
X60174000Y-79891380D01*
X58424000Y-79571380D02*
X60174000Y-79571380D01*
X57999000Y-80892380D02*
X60174000Y-80892380D01*
X58244000Y-79931380D02*
X60174000Y-79931380D01*
X62254000Y-80892380D02*
X64429000Y-80892380D01*
X62254000Y-79251380D02*
X63792000Y-79251380D01*
X62254000Y-78931380D02*
X63519000Y-78931380D01*
X60581000Y-78011380D02*
X61847000Y-78011380D01*
X62254000Y-79331380D02*
X63850000Y-79331380D01*
X59438000Y-78491380D02*
X62990000Y-78491380D01*
X58524000Y-79411380D02*
X60174000Y-79411380D01*
X58798000Y-79051380D02*
X60174000Y-79051380D01*
X57992000Y-80972380D02*
X60174000Y-80972380D01*
X62254000Y-80411380D02*
X64345000Y-80411380D01*
X58380000Y-79651380D02*
X60174000Y-79651380D01*
X58013000Y-80772380D02*
X60174000Y-80772380D01*
X59782000Y-78291380D02*
X62646000Y-78291380D01*
X58550000Y-79371380D02*
X60174000Y-79371380D01*
X62254000Y-80932380D02*
X64432000Y-80932380D01*
X62254000Y-80612380D02*
X64389000Y-80612380D01*
X59564000Y-78411380D02*
X62864000Y-78411380D01*
X58730000Y-79131380D02*
X60174000Y-79131380D01*
X62254000Y-80051380D02*
X64232000Y-80051380D01*
X58990000Y-78851380D02*
X63438000Y-78851380D01*
X59705000Y-78331380D02*
X62723000Y-78331380D01*
X62254000Y-80692380D02*
X64403000Y-80692380D01*
X62254000Y-79451380D02*
X63930000Y-79451380D01*
X58402000Y-79611380D02*
X60174000Y-79611380D01*
X62254000Y-79971380D02*
X64200000Y-79971380D01*
X62254000Y-80572380D02*
X64381000Y-80572380D01*
X60812000Y-77971380D02*
X61616000Y-77971380D01*
X62254000Y-79491380D02*
X63956000Y-79491380D01*
X59375000Y-84712621D02*
X59375000Y-84082621D01*
X62254000Y-79571380D02*
X64004000Y-79571380D01*
X57986000Y-81092380D02*
X64442000Y-81092380D01*
X60412000Y-78051380D02*
X62016000Y-78051380D01*
X58032000Y-80652380D02*
X60174000Y-80652380D01*
X58909000Y-78931380D02*
X60174000Y-78931380D01*
X58358000Y-79691380D02*
X60174000Y-79691380D01*
X62254000Y-79611380D02*
X64026000Y-79611380D01*
X62254000Y-80652380D02*
X64396000Y-80652380D01*
X59219000Y-78651380D02*
X63209000Y-78651380D01*
X59380000Y-78531380D02*
X63048000Y-78531380D01*
X57984000Y-81172380D02*
X64444000Y-81172380D01*
X62254000Y-80211380D02*
X64288000Y-80211380D01*
X62254000Y-80331380D02*
X64324000Y-80331380D01*
X57984000Y-81132380D02*
X64444000Y-81132380D01*
X58083000Y-80411380D02*
X60174000Y-80411380D01*
X59324000Y-78571380D02*
X63104000Y-78571380D01*
X58167000Y-80131380D02*
X60174000Y-80131380D01*
X62254000Y-79731380D02*
X64090000Y-79731380D01*
X62254000Y-79211380D02*
X63762000Y-79211380D01*
%TO.C,C1*%
X64484000Y-71052380D02*
G75*
G03*
X64484000Y-71052380I-3270000J0D01*
G01*
X57990000Y-70852380D02*
X64438000Y-70852380D01*
X58498000Y-69291380D02*
X60174000Y-69291380D01*
X62254000Y-68931380D02*
X63664000Y-68931380D01*
X62254000Y-70372380D02*
X64373000Y-70372380D01*
X58298000Y-69651380D02*
X60174000Y-69651380D01*
X58019000Y-70572380D02*
X60174000Y-70572380D01*
X62254000Y-69851380D02*
X64216000Y-69851380D01*
X58212000Y-69851380D02*
X60174000Y-69851380D01*
X58003000Y-70692380D02*
X60174000Y-70692380D01*
X58153000Y-70011380D02*
X60174000Y-70011380D01*
X58140000Y-70051380D02*
X60174000Y-70051380D01*
X58228000Y-69811380D02*
X60174000Y-69811380D01*
X58698000Y-69011380D02*
X60174000Y-69011380D01*
X58008000Y-70652380D02*
X60174000Y-70652380D01*
X62254000Y-69211380D02*
X63878000Y-69211380D01*
X58338000Y-69571380D02*
X60174000Y-69571380D01*
X62254000Y-70692380D02*
X64425000Y-70692380D01*
X58666000Y-69051380D02*
X60174000Y-69051380D01*
X62254000Y-69251380D02*
X63904000Y-69251380D01*
X62254000Y-68971380D02*
X63698000Y-68971380D01*
X57987000Y-70892380D02*
X64441000Y-70892380D01*
X62254000Y-69691380D02*
X64148000Y-69691380D01*
X58047000Y-70412380D02*
X60174000Y-70412380D01*
X58472000Y-69331380D02*
X60174000Y-69331380D01*
X62254000Y-68851380D02*
X63594000Y-68851380D01*
X62254000Y-70652380D02*
X64420000Y-70652380D01*
X59952000Y-68051380D02*
X62476000Y-68051380D01*
X59270000Y-68451380D02*
X63158000Y-68451380D01*
X59032000Y-68651380D02*
X63396000Y-68651380D01*
X62254000Y-69971380D02*
X64261000Y-69971380D01*
X62254000Y-69011380D02*
X63730000Y-69011380D01*
X58578000Y-69171380D02*
X60174000Y-69171380D01*
X60049000Y-68011380D02*
X62379000Y-68011380D01*
X62254000Y-70131380D02*
X64312000Y-70131380D01*
X58128000Y-70091380D02*
X60174000Y-70091380D01*
X62254000Y-70812380D02*
X64436000Y-70812380D01*
X58636000Y-69091380D02*
X60174000Y-69091380D01*
X62254000Y-69611380D02*
X64110000Y-69611380D01*
X58949000Y-68731380D02*
X63479000Y-68731380D01*
X58764000Y-68931380D02*
X60174000Y-68931380D01*
X57996000Y-70772380D02*
X60174000Y-70772380D01*
X58073000Y-70291380D02*
X60174000Y-70291380D01*
X62254000Y-69931380D02*
X64247000Y-69931380D01*
X58093000Y-70211380D02*
X60174000Y-70211380D01*
X58448000Y-69371380D02*
X60174000Y-69371380D01*
X62254000Y-70211380D02*
X64335000Y-70211380D01*
X57984000Y-71052380D02*
X64444000Y-71052380D01*
X58116000Y-70131380D02*
X60174000Y-70131380D01*
X58055000Y-70372380D02*
X60174000Y-70372380D01*
X58025000Y-70532380D02*
X60174000Y-70532380D01*
X62254000Y-70011380D02*
X64275000Y-70011380D01*
X58318000Y-69611380D02*
X60174000Y-69611380D01*
X62254000Y-70612380D02*
X64415000Y-70612380D01*
X60274000Y-67931380D02*
X62154000Y-67931380D01*
X60155000Y-67971380D02*
X62273000Y-67971380D01*
X58039000Y-70452380D02*
X60174000Y-70452380D01*
X59633000Y-68211380D02*
X62795000Y-68211380D01*
X58834000Y-68851380D02*
X60174000Y-68851380D01*
X59500000Y-68291380D02*
X62928000Y-68291380D01*
X62254000Y-69491380D02*
X64048000Y-69491380D01*
X59060000Y-74237621D02*
X59690000Y-74237621D01*
X62254000Y-70331380D02*
X64364000Y-70331380D01*
X58181000Y-69931380D02*
X60174000Y-69931380D01*
X62254000Y-68891380D02*
X63630000Y-68891380D01*
X62254000Y-69131380D02*
X63821000Y-69131380D01*
X58104000Y-70171380D02*
X60174000Y-70171380D01*
X62254000Y-70572380D02*
X64409000Y-70572380D01*
X62254000Y-69531380D02*
X64070000Y-69531380D01*
X58196000Y-69891380D02*
X60174000Y-69891380D01*
X62254000Y-68811380D02*
X63557000Y-68811380D01*
X58280000Y-69691380D02*
X60174000Y-69691380D01*
X58064000Y-70331380D02*
X60174000Y-70331380D01*
X59864000Y-68091380D02*
X62564000Y-68091380D01*
X62254000Y-70091380D02*
X64300000Y-70091380D01*
X58871000Y-68811380D02*
X60174000Y-68811380D01*
X62254000Y-69731380D02*
X64166000Y-69731380D01*
X59122000Y-68571380D02*
X63306000Y-68571380D01*
X59170000Y-68531380D02*
X63258000Y-68531380D01*
X62254000Y-69651380D02*
X64130000Y-69651380D01*
X62254000Y-69771380D02*
X64184000Y-69771380D01*
X62254000Y-70291380D02*
X64355000Y-70291380D01*
X58607000Y-69131380D02*
X60174000Y-69131380D01*
X59077000Y-68611380D02*
X63351000Y-68611380D01*
X62254000Y-69371380D02*
X63980000Y-69371380D01*
X58262000Y-69731380D02*
X60174000Y-69731380D01*
X58424000Y-69411380D02*
X60174000Y-69411380D01*
X57999000Y-70732380D02*
X60174000Y-70732380D01*
X58244000Y-69771380D02*
X60174000Y-69771380D01*
X62254000Y-70732380D02*
X64429000Y-70732380D01*
X62254000Y-69091380D02*
X63792000Y-69091380D01*
X62254000Y-68771380D02*
X63519000Y-68771380D01*
X60581000Y-67851380D02*
X61847000Y-67851380D01*
X62254000Y-69171380D02*
X63850000Y-69171380D01*
X59438000Y-68331380D02*
X62990000Y-68331380D01*
X58524000Y-69251380D02*
X60174000Y-69251380D01*
X58798000Y-68891380D02*
X60174000Y-68891380D01*
X57992000Y-70812380D02*
X60174000Y-70812380D01*
X62254000Y-70251380D02*
X64345000Y-70251380D01*
X58380000Y-69491380D02*
X60174000Y-69491380D01*
X58013000Y-70612380D02*
X60174000Y-70612380D01*
X59782000Y-68131380D02*
X62646000Y-68131380D01*
X58550000Y-69211380D02*
X60174000Y-69211380D01*
X62254000Y-70772380D02*
X64432000Y-70772380D01*
X62254000Y-70452380D02*
X64389000Y-70452380D01*
X59564000Y-68251380D02*
X62864000Y-68251380D01*
X58730000Y-68971380D02*
X60174000Y-68971380D01*
X62254000Y-69891380D02*
X64232000Y-69891380D01*
X58990000Y-68691380D02*
X63438000Y-68691380D01*
X59705000Y-68171380D02*
X62723000Y-68171380D01*
X62254000Y-70532380D02*
X64403000Y-70532380D01*
X62254000Y-69291380D02*
X63930000Y-69291380D01*
X58402000Y-69451380D02*
X60174000Y-69451380D01*
X62254000Y-69811380D02*
X64200000Y-69811380D01*
X62254000Y-70412380D02*
X64381000Y-70412380D01*
X60812000Y-67811380D02*
X61616000Y-67811380D01*
X62254000Y-69331380D02*
X63956000Y-69331380D01*
X59375000Y-74552621D02*
X59375000Y-73922621D01*
X62254000Y-69411380D02*
X64004000Y-69411380D01*
X57986000Y-70932380D02*
X64442000Y-70932380D01*
X60412000Y-67891380D02*
X62016000Y-67891380D01*
X58032000Y-70492380D02*
X60174000Y-70492380D01*
X58909000Y-68771380D02*
X60174000Y-68771380D01*
X58358000Y-69531380D02*
X60174000Y-69531380D01*
X62254000Y-69451380D02*
X64026000Y-69451380D01*
X62254000Y-70492380D02*
X64396000Y-70492380D01*
X59219000Y-68491380D02*
X63209000Y-68491380D01*
X59380000Y-68371380D02*
X63048000Y-68371380D01*
X57984000Y-71012380D02*
X64444000Y-71012380D01*
X62254000Y-70051380D02*
X64288000Y-70051380D01*
X62254000Y-70171380D02*
X64324000Y-70171380D01*
X57984000Y-70972380D02*
X64444000Y-70972380D01*
X58083000Y-70251380D02*
X60174000Y-70251380D01*
X59324000Y-68411380D02*
X63104000Y-68411380D01*
X58167000Y-69971380D02*
X60174000Y-69971380D01*
X62254000Y-69571380D02*
X64090000Y-69571380D01*
X62254000Y-69051380D02*
X63762000Y-69051380D01*
%TD*%
M02*
