%TF.GenerationSoftware,KiCad,Pcbnew,(6.0.6)*%
%TF.CreationDate,2022-09-23T17:59:27-07:00*%
%TF.ProjectId,POWER_BOARD,504f5745-525f-4424-9f41-52442e6b6963,rev?*%
%TF.SameCoordinates,Original*%
%TF.FileFunction,Soldermask,Bot*%
%TF.FilePolarity,Negative*%
%FSLAX46Y46*%
G04 Gerber Fmt 4.6, Leading zero omitted, Abs format (unit mm)*
G04 Created by KiCad (PCBNEW (6.0.6)) date 2022-09-23 17:59:27*
%MOMM*%
%LPD*%
G01*
G04 APERTURE LIST*
%ADD10R,1.700000X1.700000*%
%ADD11O,1.700000X1.700000*%
%ADD12C,3.800000*%
%ADD13C,2.600000*%
%ADD14R,2.600000X2.600000*%
%ADD15R,1.800000X1.800000*%
%ADD16C,1.800000*%
%ADD17C,1.600000*%
%ADD18O,1.600000X1.600000*%
%ADD19R,1.600000X1.600000*%
%ADD20R,2.000000X2.000000*%
%ADD21C,2.000000*%
G04 APERTURE END LIST*
D10*
%TO.C,J6*%
X69088000Y-93985000D03*
D11*
X69088000Y-91445000D03*
X71628000Y-93985000D03*
X71628000Y-91445000D03*
X74168000Y-93985000D03*
X74168000Y-91445000D03*
X76708000Y-93985000D03*
X76708000Y-91445000D03*
X79248000Y-93985000D03*
X79248000Y-91445000D03*
X81788000Y-93985000D03*
X81788000Y-91445000D03*
%TD*%
D12*
%TO.C,H4*%
X49276000Y-56388000D03*
%TD*%
%TO.C,H3*%
X49276000Y-96012000D03*
%TD*%
%TO.C,H2*%
X88646000Y-64262000D03*
%TD*%
%TO.C,H1*%
X88646000Y-96012000D03*
%TD*%
D13*
%TO.C,J3*%
X51765000Y-67270000D03*
D14*
X51765000Y-62270000D03*
%TD*%
D15*
%TO.C,U1*%
X71374000Y-71623000D03*
D16*
X71374000Y-74163000D03*
X71374000Y-76703000D03*
%TD*%
D17*
%TO.C,R2*%
X76454000Y-82042000D03*
D18*
X86614000Y-82042000D03*
%TD*%
D17*
%TO.C,R1*%
X69088000Y-67056000D03*
D18*
X79248000Y-67056000D03*
%TD*%
D13*
%TO.C,J4*%
X71708000Y-58420000D03*
D14*
X76708000Y-58420000D03*
%TD*%
D13*
%TO.C,J2*%
X51816000Y-89582000D03*
D14*
X51816000Y-84582000D03*
%TD*%
%TO.C,J1*%
X51816000Y-73406000D03*
D13*
X51816000Y-78406000D03*
%TD*%
D15*
%TO.C,D2*%
X87122000Y-72898000D03*
D16*
X87122000Y-75438000D03*
%TD*%
D15*
%TO.C,D1*%
X83566000Y-58415000D03*
D16*
X83566000Y-60955000D03*
%TD*%
D17*
%TO.C,C6*%
X82062000Y-85598000D03*
X84562000Y-85598000D03*
%TD*%
%TO.C,C5*%
X71882000Y-81994380D03*
D19*
X71882000Y-84494380D03*
%TD*%
D20*
%TO.C,C4*%
X65613677Y-59944000D03*
D21*
X60613677Y-59944000D03*
%TD*%
D19*
%TO.C,C3*%
X61214000Y-92114380D03*
D17*
X61214000Y-89614380D03*
%TD*%
%TO.C,C2*%
X61214000Y-79962380D03*
D19*
X61214000Y-82462380D03*
%TD*%
D17*
%TO.C,C1*%
X61214000Y-69802380D03*
D19*
X61214000Y-72302380D03*
%TD*%
M02*
