M48
; DRILL file {KiCad (6.0.6)} date Fri Sep 23 17:59:28 2022
; FORMAT={-:-/ absolute / inch / decimal}
; #@! TF.CreationDate,2022-09-23T17:59:28-07:00
; #@! TF.GenerationSoftware,Kicad,Pcbnew,(6.0.6)
; #@! TF.FileFunction,Plated,1,2,PTH
FMAT,2
INCH
; #@! TA.AperFunction,Plated,PTH,ComponentDrill
T1C0.0315
; #@! TA.AperFunction,Plated,PTH,ComponentDrill
T2C0.0354
; #@! TA.AperFunction,Plated,PTH,ComponentDrill
T3C0.0394
; #@! TA.AperFunction,Plated,PTH,ComponentDrill
T4C0.0512
; #@! TA.AperFunction,Plated,PTH,ComponentDrill
T5C0.0866
%
G90
G05
T1
X2.41Y-2.7481
X2.41Y-2.8466
X2.41Y-3.1481
X2.41Y-3.2466
X2.41Y-3.5281
X2.41Y-3.6266
X2.72Y-2.64
X2.83Y-3.2281
X2.83Y-3.3266
X3.01Y-3.23
X3.12Y-2.64
X3.2308Y-3.37
X3.3292Y-3.37
X3.41Y-3.23
T2
X3.29Y-2.2998
X3.29Y-2.3998
X3.43Y-2.87
X3.43Y-2.97
T3
X2.3864Y-2.36
X2.5832Y-2.36
X2.72Y-3.6002
X2.72Y-3.7002
X2.81Y-2.8198
X2.81Y-2.9198
X2.81Y-3.0198
X2.82Y-3.6002
X2.82Y-3.7002
X2.92Y-3.6002
X2.92Y-3.7002
X3.02Y-3.6002
X3.02Y-3.7002
X3.12Y-3.6002
X3.12Y-3.7002
X3.22Y-3.6002
X3.22Y-3.7002
T4
X2.038Y-2.4516
X2.038Y-2.6484
X2.04Y-2.89
X2.04Y-3.0869
X2.04Y-3.33
X2.04Y-3.5269
X2.8231Y-2.3
X3.02Y-2.3
T5
X1.94Y-2.22
X1.94Y-3.78
X3.49Y-2.53
X3.49Y-3.78
T0
M30
