%TF.GenerationSoftware,KiCad,Pcbnew,(6.0.6)*%
%TF.CreationDate,2022-09-23T16:22:25-07:00*%
%TF.ProjectId,SCRAPPY_PCB,53435241-5050-4595-9f50-43422e6b6963,R-0*%
%TF.SameCoordinates,Original*%
%TF.FileFunction,Legend,Top*%
%TF.FilePolarity,Positive*%
%FSLAX46Y46*%
G04 Gerber Fmt 4.6, Leading zero omitted, Abs format (unit mm)*
G04 Created by KiCad (PCBNEW (6.0.6)) date 2022-09-23 16:22:25*
%MOMM*%
%LPD*%
G01*
G04 APERTURE LIST*
%ADD10C,0.150000*%
%ADD11C,0.120000*%
G04 APERTURE END LIST*
D10*
X135445571Y-131476400D02*
X135374142Y-131440685D01*
X135267000Y-131440685D01*
X135159857Y-131476400D01*
X135088428Y-131547828D01*
X135052714Y-131619257D01*
X135017000Y-131762114D01*
X135017000Y-131869257D01*
X135052714Y-132012114D01*
X135088428Y-132083542D01*
X135159857Y-132154971D01*
X135267000Y-132190685D01*
X135338428Y-132190685D01*
X135445571Y-132154971D01*
X135481285Y-132119257D01*
X135481285Y-131869257D01*
X135338428Y-131869257D01*
X135802714Y-132190685D02*
X135802714Y-131440685D01*
X136231285Y-132190685D01*
X136231285Y-131440685D01*
X136588428Y-132190685D02*
X136588428Y-131440685D01*
X136767000Y-131440685D01*
X136874142Y-131476400D01*
X136945571Y-131547828D01*
X136981285Y-131619257D01*
X137017000Y-131762114D01*
X137017000Y-131869257D01*
X136981285Y-132012114D01*
X136945571Y-132083542D01*
X136874142Y-132154971D01*
X136767000Y-132190685D01*
X136588428Y-132190685D01*
X132448371Y-124212000D02*
X132376942Y-124176285D01*
X132269800Y-124176285D01*
X132162657Y-124212000D01*
X132091228Y-124283428D01*
X132055514Y-124354857D01*
X132019800Y-124497714D01*
X132019800Y-124604857D01*
X132055514Y-124747714D01*
X132091228Y-124819142D01*
X132162657Y-124890571D01*
X132269800Y-124926285D01*
X132341228Y-124926285D01*
X132448371Y-124890571D01*
X132484085Y-124854857D01*
X132484085Y-124604857D01*
X132341228Y-124604857D01*
X132805514Y-124926285D02*
X132805514Y-124176285D01*
X133234085Y-124926285D01*
X133234085Y-124176285D01*
X133591228Y-124926285D02*
X133591228Y-124176285D01*
X133769800Y-124176285D01*
X133876942Y-124212000D01*
X133948371Y-124283428D01*
X133984085Y-124354857D01*
X134019800Y-124497714D01*
X134019800Y-124604857D01*
X133984085Y-124747714D01*
X133948371Y-124819142D01*
X133876942Y-124890571D01*
X133769800Y-124926285D01*
X133591228Y-124926285D01*
X132091228Y-126868685D02*
X132555514Y-126868685D01*
X132305514Y-127154400D01*
X132412657Y-127154400D01*
X132484085Y-127190114D01*
X132519800Y-127225828D01*
X132555514Y-127297257D01*
X132555514Y-127475828D01*
X132519800Y-127547257D01*
X132484085Y-127582971D01*
X132412657Y-127618685D01*
X132198371Y-127618685D01*
X132126942Y-127582971D01*
X132091228Y-127547257D01*
X132769800Y-126868685D02*
X133019800Y-127618685D01*
X133269800Y-126868685D01*
X133448371Y-126868685D02*
X133912657Y-126868685D01*
X133662657Y-127154400D01*
X133769800Y-127154400D01*
X133841228Y-127190114D01*
X133876942Y-127225828D01*
X133912657Y-127297257D01*
X133912657Y-127475828D01*
X133876942Y-127547257D01*
X133841228Y-127582971D01*
X133769800Y-127618685D01*
X133555514Y-127618685D01*
X133484085Y-127582971D01*
X133448371Y-127547257D01*
X135063028Y-118994685D02*
X135527314Y-118994685D01*
X135277314Y-119280400D01*
X135384457Y-119280400D01*
X135455885Y-119316114D01*
X135491600Y-119351828D01*
X135527314Y-119423257D01*
X135527314Y-119601828D01*
X135491600Y-119673257D01*
X135455885Y-119708971D01*
X135384457Y-119744685D01*
X135170171Y-119744685D01*
X135098742Y-119708971D01*
X135063028Y-119673257D01*
X135741600Y-118994685D02*
X135991600Y-119744685D01*
X136241600Y-118994685D01*
X136420171Y-118994685D02*
X136884457Y-118994685D01*
X136634457Y-119280400D01*
X136741600Y-119280400D01*
X136813028Y-119316114D01*
X136848742Y-119351828D01*
X136884457Y-119423257D01*
X136884457Y-119601828D01*
X136848742Y-119673257D01*
X136813028Y-119708971D01*
X136741600Y-119744685D01*
X136527314Y-119744685D01*
X136455885Y-119708971D01*
X136420171Y-119673257D01*
X50085809Y-101036380D02*
X50085809Y-100036380D01*
X50085809Y-100512571D02*
X50657238Y-100512571D01*
X50657238Y-101036380D02*
X50657238Y-100036380D01*
X51133428Y-101036380D02*
X51133428Y-100369714D01*
X51133428Y-100036380D02*
X51085809Y-100084000D01*
X51133428Y-100131619D01*
X51181047Y-100084000D01*
X51133428Y-100036380D01*
X51133428Y-100131619D01*
X51609619Y-100369714D02*
X51609619Y-101036380D01*
X51609619Y-100464952D02*
X51657238Y-100417333D01*
X51752476Y-100369714D01*
X51895333Y-100369714D01*
X51990571Y-100417333D01*
X52038190Y-100512571D01*
X52038190Y-101036380D01*
X53085809Y-100941142D02*
X53038190Y-100988761D01*
X52895333Y-101036380D01*
X52800095Y-101036380D01*
X52657238Y-100988761D01*
X52562000Y-100893523D01*
X52514380Y-100798285D01*
X52466761Y-100607809D01*
X52466761Y-100464952D01*
X52514380Y-100274476D01*
X52562000Y-100179238D01*
X52657238Y-100084000D01*
X52800095Y-100036380D01*
X52895333Y-100036380D01*
X53038190Y-100084000D01*
X53085809Y-100131619D01*
X54740771Y-133024271D02*
X54740771Y-131524271D01*
X55216961Y-131524271D01*
X55336009Y-131595700D01*
X55395533Y-131667128D01*
X55455057Y-131809985D01*
X55455057Y-132024271D01*
X55395533Y-132167128D01*
X55336009Y-132238557D01*
X55216961Y-132309985D01*
X54740771Y-132309985D01*
X55990771Y-133024271D02*
X55990771Y-132024271D01*
X55990771Y-132309985D02*
X56050295Y-132167128D01*
X56109819Y-132095700D01*
X56228866Y-132024271D01*
X56347914Y-132024271D01*
X56943152Y-133024271D02*
X56824104Y-132952842D01*
X56764580Y-132881414D01*
X56705057Y-132738557D01*
X56705057Y-132309985D01*
X56764580Y-132167128D01*
X56824104Y-132095700D01*
X56943152Y-132024271D01*
X57121723Y-132024271D01*
X57240771Y-132095700D01*
X57300295Y-132167128D01*
X57359819Y-132309985D01*
X57359819Y-132738557D01*
X57300295Y-132881414D01*
X57240771Y-132952842D01*
X57121723Y-133024271D01*
X56943152Y-133024271D01*
X57895533Y-132024271D02*
X57895533Y-133309985D01*
X57836009Y-133452842D01*
X57716961Y-133524271D01*
X57657438Y-133524271D01*
X57895533Y-131524271D02*
X57836009Y-131595700D01*
X57895533Y-131667128D01*
X57955057Y-131595700D01*
X57895533Y-131524271D01*
X57895533Y-131667128D01*
X58966961Y-132952842D02*
X58847914Y-133024271D01*
X58609819Y-133024271D01*
X58490771Y-132952842D01*
X58431247Y-132809985D01*
X58431247Y-132238557D01*
X58490771Y-132095700D01*
X58609819Y-132024271D01*
X58847914Y-132024271D01*
X58966961Y-132095700D01*
X59026485Y-132238557D01*
X59026485Y-132381414D01*
X58431247Y-132524271D01*
X60097914Y-132952842D02*
X59978866Y-133024271D01*
X59740771Y-133024271D01*
X59621723Y-132952842D01*
X59562200Y-132881414D01*
X59502676Y-132738557D01*
X59502676Y-132309985D01*
X59562200Y-132167128D01*
X59621723Y-132095700D01*
X59740771Y-132024271D01*
X59978866Y-132024271D01*
X60097914Y-132095700D01*
X60455057Y-132024271D02*
X60931247Y-132024271D01*
X60633628Y-131524271D02*
X60633628Y-132809985D01*
X60693152Y-132952842D01*
X60812200Y-133024271D01*
X60931247Y-133024271D01*
X61347914Y-132881414D02*
X61407438Y-132952842D01*
X61347914Y-133024271D01*
X61288390Y-132952842D01*
X61347914Y-132881414D01*
X61347914Y-133024271D01*
X61347914Y-132095700D02*
X61407438Y-132167128D01*
X61347914Y-132238557D01*
X61288390Y-132167128D01*
X61347914Y-132095700D01*
X61347914Y-132238557D01*
X62836009Y-132952842D02*
X63014580Y-133024271D01*
X63312200Y-133024271D01*
X63431247Y-132952842D01*
X63490771Y-132881414D01*
X63550295Y-132738557D01*
X63550295Y-132595700D01*
X63490771Y-132452842D01*
X63431247Y-132381414D01*
X63312200Y-132309985D01*
X63074104Y-132238557D01*
X62955057Y-132167128D01*
X62895533Y-132095700D01*
X62836009Y-131952842D01*
X62836009Y-131809985D01*
X62895533Y-131667128D01*
X62955057Y-131595700D01*
X63074104Y-131524271D01*
X63371723Y-131524271D01*
X63550295Y-131595700D01*
X64800295Y-132881414D02*
X64740771Y-132952842D01*
X64562200Y-133024271D01*
X64443152Y-133024271D01*
X64264580Y-132952842D01*
X64145533Y-132809985D01*
X64086009Y-132667128D01*
X64026485Y-132381414D01*
X64026485Y-132167128D01*
X64086009Y-131881414D01*
X64145533Y-131738557D01*
X64264580Y-131595700D01*
X64443152Y-131524271D01*
X64562200Y-131524271D01*
X64740771Y-131595700D01*
X64800295Y-131667128D01*
X66050295Y-133024271D02*
X65633628Y-132309985D01*
X65336009Y-133024271D02*
X65336009Y-131524271D01*
X65812200Y-131524271D01*
X65931247Y-131595700D01*
X65990771Y-131667128D01*
X66050295Y-131809985D01*
X66050295Y-132024271D01*
X65990771Y-132167128D01*
X65931247Y-132238557D01*
X65812200Y-132309985D01*
X65336009Y-132309985D01*
X66526485Y-132595700D02*
X67121723Y-132595700D01*
X66407438Y-133024271D02*
X66824104Y-131524271D01*
X67240771Y-133024271D01*
X67657438Y-133024271D02*
X67657438Y-131524271D01*
X68133628Y-131524271D01*
X68252676Y-131595700D01*
X68312200Y-131667128D01*
X68371723Y-131809985D01*
X68371723Y-132024271D01*
X68312200Y-132167128D01*
X68252676Y-132238557D01*
X68133628Y-132309985D01*
X67657438Y-132309985D01*
X68907438Y-133024271D02*
X68907438Y-131524271D01*
X69383628Y-131524271D01*
X69502676Y-131595700D01*
X69562200Y-131667128D01*
X69621723Y-131809985D01*
X69621723Y-132024271D01*
X69562200Y-132167128D01*
X69502676Y-132238557D01*
X69383628Y-132309985D01*
X68907438Y-132309985D01*
X70395533Y-132309985D02*
X70395533Y-133024271D01*
X69978866Y-131524271D02*
X70395533Y-132309985D01*
X70812200Y-131524271D01*
X52538390Y-135439271D02*
X52538390Y-133939271D01*
X52955057Y-135010700D01*
X53371723Y-133939271D01*
X53371723Y-135439271D01*
X54502676Y-135439271D02*
X54502676Y-134653557D01*
X54443152Y-134510700D01*
X54324104Y-134439271D01*
X54086009Y-134439271D01*
X53966961Y-134510700D01*
X54502676Y-135367842D02*
X54383628Y-135439271D01*
X54086009Y-135439271D01*
X53966961Y-135367842D01*
X53907438Y-135224985D01*
X53907438Y-135082128D01*
X53966961Y-134939271D01*
X54086009Y-134867842D01*
X54383628Y-134867842D01*
X54502676Y-134796414D01*
X55097914Y-135439271D02*
X55097914Y-134439271D01*
X55097914Y-133939271D02*
X55038390Y-134010700D01*
X55097914Y-134082128D01*
X55157438Y-134010700D01*
X55097914Y-133939271D01*
X55097914Y-134082128D01*
X55693152Y-134439271D02*
X55693152Y-135439271D01*
X55693152Y-134582128D02*
X55752676Y-134510700D01*
X55871723Y-134439271D01*
X56050295Y-134439271D01*
X56169342Y-134510700D01*
X56228866Y-134653557D01*
X56228866Y-135439271D01*
X58490771Y-135296414D02*
X58431247Y-135367842D01*
X58252676Y-135439271D01*
X58133628Y-135439271D01*
X57955057Y-135367842D01*
X57836009Y-135224985D01*
X57776485Y-135082128D01*
X57716961Y-134796414D01*
X57716961Y-134582128D01*
X57776485Y-134296414D01*
X57836009Y-134153557D01*
X57955057Y-134010700D01*
X58133628Y-133939271D01*
X58252676Y-133939271D01*
X58431247Y-134010700D01*
X58490771Y-134082128D01*
X59205057Y-135439271D02*
X59086009Y-135367842D01*
X59026485Y-135296414D01*
X58966961Y-135153557D01*
X58966961Y-134724985D01*
X59026485Y-134582128D01*
X59086009Y-134510700D01*
X59205057Y-134439271D01*
X59383628Y-134439271D01*
X59502676Y-134510700D01*
X59562200Y-134582128D01*
X59621723Y-134724985D01*
X59621723Y-135153557D01*
X59562200Y-135296414D01*
X59502676Y-135367842D01*
X59383628Y-135439271D01*
X59205057Y-135439271D01*
X60157438Y-134439271D02*
X60157438Y-135439271D01*
X60157438Y-134582128D02*
X60216961Y-134510700D01*
X60336009Y-134439271D01*
X60514580Y-134439271D01*
X60633628Y-134510700D01*
X60693152Y-134653557D01*
X60693152Y-135439271D01*
X61109819Y-134439271D02*
X61586009Y-134439271D01*
X61288390Y-133939271D02*
X61288390Y-135224985D01*
X61347914Y-135367842D01*
X61466961Y-135439271D01*
X61586009Y-135439271D01*
X62002676Y-135439271D02*
X62002676Y-134439271D01*
X62002676Y-134724985D02*
X62062200Y-134582128D01*
X62121723Y-134510700D01*
X62240771Y-134439271D01*
X62359819Y-134439271D01*
X62955057Y-135439271D02*
X62836009Y-135367842D01*
X62776485Y-135296414D01*
X62716961Y-135153557D01*
X62716961Y-134724985D01*
X62776485Y-134582128D01*
X62836009Y-134510700D01*
X62955057Y-134439271D01*
X63133628Y-134439271D01*
X63252676Y-134510700D01*
X63312200Y-134582128D01*
X63371723Y-134724985D01*
X63371723Y-135153557D01*
X63312200Y-135296414D01*
X63252676Y-135367842D01*
X63133628Y-135439271D01*
X62955057Y-135439271D01*
X64086009Y-135439271D02*
X63966961Y-135367842D01*
X63907438Y-135224985D01*
X63907438Y-133939271D01*
X64740771Y-135439271D02*
X64621723Y-135367842D01*
X64562200Y-135224985D01*
X64562200Y-133939271D01*
X65693152Y-135367842D02*
X65574104Y-135439271D01*
X65336009Y-135439271D01*
X65216961Y-135367842D01*
X65157438Y-135224985D01*
X65157438Y-134653557D01*
X65216961Y-134510700D01*
X65336009Y-134439271D01*
X65574104Y-134439271D01*
X65693152Y-134510700D01*
X65752676Y-134653557D01*
X65752676Y-134796414D01*
X65157438Y-134939271D01*
X66288390Y-135439271D02*
X66288390Y-134439271D01*
X66288390Y-134724985D02*
X66347914Y-134582128D01*
X66407438Y-134510700D01*
X66526485Y-134439271D01*
X66645533Y-134439271D01*
X68431247Y-134653557D02*
X68609819Y-134724985D01*
X68669342Y-134796414D01*
X68728866Y-134939271D01*
X68728866Y-135153557D01*
X68669342Y-135296414D01*
X68609819Y-135367842D01*
X68490771Y-135439271D01*
X68014580Y-135439271D01*
X68014580Y-133939271D01*
X68431247Y-133939271D01*
X68550295Y-134010700D01*
X68609819Y-134082128D01*
X68669342Y-134224985D01*
X68669342Y-134367842D01*
X68609819Y-134510700D01*
X68550295Y-134582128D01*
X68431247Y-134653557D01*
X68014580Y-134653557D01*
X69443152Y-135439271D02*
X69324104Y-135367842D01*
X69264580Y-135296414D01*
X69205057Y-135153557D01*
X69205057Y-134724985D01*
X69264580Y-134582128D01*
X69324104Y-134510700D01*
X69443152Y-134439271D01*
X69621723Y-134439271D01*
X69740771Y-134510700D01*
X69800295Y-134582128D01*
X69859819Y-134724985D01*
X69859819Y-135153557D01*
X69800295Y-135296414D01*
X69740771Y-135367842D01*
X69621723Y-135439271D01*
X69443152Y-135439271D01*
X70931247Y-135439271D02*
X70931247Y-134653557D01*
X70871723Y-134510700D01*
X70752676Y-134439271D01*
X70514580Y-134439271D01*
X70395533Y-134510700D01*
X70931247Y-135367842D02*
X70812200Y-135439271D01*
X70514580Y-135439271D01*
X70395533Y-135367842D01*
X70336009Y-135224985D01*
X70336009Y-135082128D01*
X70395533Y-134939271D01*
X70514580Y-134867842D01*
X70812200Y-134867842D01*
X70931247Y-134796414D01*
X71526485Y-135439271D02*
X71526485Y-134439271D01*
X71526485Y-134724985D02*
X71586009Y-134582128D01*
X71645533Y-134510700D01*
X71764580Y-134439271D01*
X71883628Y-134439271D01*
X72836009Y-135439271D02*
X72836009Y-133939271D01*
X72836009Y-135367842D02*
X72716961Y-135439271D01*
X72478866Y-135439271D01*
X72359819Y-135367842D01*
X72300295Y-135296414D01*
X72240771Y-135153557D01*
X72240771Y-134724985D01*
X72300295Y-134582128D01*
X72359819Y-134510700D01*
X72478866Y-134439271D01*
X72716961Y-134439271D01*
X72836009Y-134510700D01*
X126254095Y-50363428D02*
X127016000Y-50363428D01*
X126635047Y-50744380D02*
X126635047Y-49982476D01*
X128016000Y-50744380D02*
X127444571Y-50744380D01*
X127730285Y-50744380D02*
X127730285Y-49744380D01*
X127635047Y-49887238D01*
X127539809Y-49982476D01*
X127444571Y-50030095D01*
X128396952Y-49839619D02*
X128444571Y-49792000D01*
X128539809Y-49744380D01*
X128777904Y-49744380D01*
X128873142Y-49792000D01*
X128920761Y-49839619D01*
X128968380Y-49934857D01*
X128968380Y-50030095D01*
X128920761Y-50172952D01*
X128349333Y-50744380D01*
X128968380Y-50744380D01*
X129254095Y-49744380D02*
X129587428Y-50744380D01*
X129920761Y-49744380D01*
X56012904Y-118556428D02*
X55953380Y-118615952D01*
X55774809Y-118675476D01*
X55655761Y-118675476D01*
X55477190Y-118615952D01*
X55358142Y-118496904D01*
X55298619Y-118377857D01*
X55239095Y-118139761D01*
X55239095Y-117961190D01*
X55298619Y-117723095D01*
X55358142Y-117604047D01*
X55477190Y-117485000D01*
X55655761Y-117425476D01*
X55774809Y-117425476D01*
X55953380Y-117485000D01*
X56012904Y-117544523D01*
X50149333Y-121102380D02*
X50149333Y-120102380D01*
X50530285Y-120102380D01*
X50625523Y-120150000D01*
X50673142Y-120197619D01*
X50720761Y-120292857D01*
X50720761Y-120435714D01*
X50673142Y-120530952D01*
X50625523Y-120578571D01*
X50530285Y-120626190D01*
X50149333Y-120626190D01*
X51720761Y-121007142D02*
X51673142Y-121054761D01*
X51530285Y-121102380D01*
X51435047Y-121102380D01*
X51292190Y-121054761D01*
X51196952Y-120959523D01*
X51149333Y-120864285D01*
X51101714Y-120673809D01*
X51101714Y-120530952D01*
X51149333Y-120340476D01*
X51196952Y-120245238D01*
X51292190Y-120150000D01*
X51435047Y-120102380D01*
X51530285Y-120102380D01*
X51673142Y-120150000D01*
X51720761Y-120197619D01*
X52149333Y-121102380D02*
X52149333Y-120102380D01*
X52720761Y-121102380D01*
X52720761Y-120102380D01*
X53054095Y-120102380D02*
X53625523Y-120102380D01*
X53339809Y-121102380D02*
X53339809Y-120102380D01*
X126696838Y-140803523D02*
X126649219Y-140946380D01*
X126649219Y-141184476D01*
X126696838Y-141279714D01*
X126744457Y-141327333D01*
X126839695Y-141374952D01*
X126934933Y-141374952D01*
X127030171Y-141327333D01*
X127077790Y-141279714D01*
X127125409Y-141184476D01*
X127173028Y-140994000D01*
X127220647Y-140898761D01*
X127268266Y-140851142D01*
X127363504Y-140803523D01*
X127458742Y-140803523D01*
X127553980Y-140851142D01*
X127601600Y-140898761D01*
X127649219Y-140994000D01*
X127649219Y-141232095D01*
X127601600Y-141374952D01*
X126744457Y-142374952D02*
X126696838Y-142327333D01*
X126649219Y-142184476D01*
X126649219Y-142089238D01*
X126696838Y-141946380D01*
X126792076Y-141851142D01*
X126887314Y-141803523D01*
X127077790Y-141755904D01*
X127220647Y-141755904D01*
X127411123Y-141803523D01*
X127506361Y-141851142D01*
X127601600Y-141946380D01*
X127649219Y-142089238D01*
X127649219Y-142184476D01*
X127601600Y-142327333D01*
X127553980Y-142374952D01*
X126649219Y-143279714D02*
X126649219Y-142803523D01*
X127649219Y-142803523D01*
X126649219Y-143613047D02*
X127649219Y-143613047D01*
X126649219Y-144184476D02*
X127220647Y-143755904D01*
X127649219Y-144184476D02*
X127077790Y-143613047D01*
X124156838Y-141279714D02*
X124109219Y-141422571D01*
X124109219Y-141660666D01*
X124156838Y-141755904D01*
X124204457Y-141803523D01*
X124299695Y-141851142D01*
X124394933Y-141851142D01*
X124490171Y-141803523D01*
X124537790Y-141755904D01*
X124585409Y-141660666D01*
X124633028Y-141470190D01*
X124680647Y-141374952D01*
X124728266Y-141327333D01*
X124823504Y-141279714D01*
X124918742Y-141279714D01*
X125013980Y-141327333D01*
X125061600Y-141374952D01*
X125109219Y-141470190D01*
X125109219Y-141708285D01*
X125061600Y-141851142D01*
X124109219Y-142279714D02*
X125109219Y-142279714D01*
X125109219Y-142517809D01*
X125061600Y-142660666D01*
X124966361Y-142755904D01*
X124871123Y-142803523D01*
X124680647Y-142851142D01*
X124537790Y-142851142D01*
X124347314Y-142803523D01*
X124252076Y-142755904D01*
X124156838Y-142660666D01*
X124109219Y-142517809D01*
X124109219Y-142279714D01*
X124394933Y-143232095D02*
X124394933Y-143708285D01*
X124109219Y-143136857D02*
X125109219Y-143470190D01*
X124109219Y-143803523D01*
X61272895Y-137053580D02*
X60939561Y-136577390D01*
X60701466Y-137053580D02*
X60701466Y-136053580D01*
X61082419Y-136053580D01*
X61177657Y-136101200D01*
X61225276Y-136148819D01*
X61272895Y-136244057D01*
X61272895Y-136386914D01*
X61225276Y-136482152D01*
X61177657Y-136529771D01*
X61082419Y-136577390D01*
X60701466Y-136577390D01*
X61701466Y-136672628D02*
X62463371Y-136672628D01*
X63130038Y-136053580D02*
X63225276Y-136053580D01*
X63320514Y-136101200D01*
X63368133Y-136148819D01*
X63415752Y-136244057D01*
X63463371Y-136434533D01*
X63463371Y-136672628D01*
X63415752Y-136863104D01*
X63368133Y-136958342D01*
X63320514Y-137005961D01*
X63225276Y-137053580D01*
X63130038Y-137053580D01*
X63034800Y-137005961D01*
X62987180Y-136958342D01*
X62939561Y-136863104D01*
X62891942Y-136672628D01*
X62891942Y-136434533D01*
X62939561Y-136244057D01*
X62987180Y-136148819D01*
X63034800Y-136101200D01*
X63130038Y-136053580D01*
X64082419Y-136053580D02*
X64177657Y-136053580D01*
X64272895Y-136101200D01*
X64320514Y-136148819D01*
X64368133Y-136244057D01*
X64415752Y-136434533D01*
X64415752Y-136672628D01*
X64368133Y-136863104D01*
X64320514Y-136958342D01*
X64272895Y-137005961D01*
X64177657Y-137053580D01*
X64082419Y-137053580D01*
X63987180Y-137005961D01*
X63939561Y-136958342D01*
X63891942Y-136863104D01*
X63844323Y-136672628D01*
X63844323Y-136434533D01*
X63891942Y-136244057D01*
X63939561Y-136148819D01*
X63987180Y-136101200D01*
X64082419Y-136053580D01*
X51578000Y-126436380D02*
X51578000Y-125436380D01*
X51816095Y-125436380D01*
X51958952Y-125484000D01*
X52054190Y-125579238D01*
X52101809Y-125674476D01*
X52149428Y-125864952D01*
X52149428Y-126007809D01*
X52101809Y-126198285D01*
X52054190Y-126293523D01*
X51958952Y-126388761D01*
X51816095Y-126436380D01*
X51578000Y-126436380D01*
X52578000Y-126436380D02*
X52578000Y-125436380D01*
X53625619Y-126436380D02*
X53292285Y-125960190D01*
X53054190Y-126436380D02*
X53054190Y-125436380D01*
X53435142Y-125436380D01*
X53530380Y-125484000D01*
X53578000Y-125531619D01*
X53625619Y-125626857D01*
X53625619Y-125769714D01*
X53578000Y-125864952D01*
X53530380Y-125912571D01*
X53435142Y-125960190D01*
X53054190Y-125960190D01*
X49768380Y-67400466D02*
X50244571Y-67400466D01*
X49673142Y-67686180D02*
X50006476Y-66686180D01*
X50339809Y-67686180D01*
X50673142Y-67686180D02*
X50673142Y-67019514D01*
X50673142Y-66686180D02*
X50625523Y-66733800D01*
X50673142Y-66781419D01*
X50720761Y-66733800D01*
X50673142Y-66686180D01*
X50673142Y-66781419D01*
X51149333Y-67019514D02*
X51149333Y-67686180D01*
X51149333Y-67114752D02*
X51196952Y-67067133D01*
X51292190Y-67019514D01*
X51435047Y-67019514D01*
X51530285Y-67067133D01*
X51577904Y-67162371D01*
X51577904Y-67686180D01*
X52054095Y-67305228D02*
X52816000Y-67305228D01*
X53625523Y-67162371D02*
X53768380Y-67209990D01*
X53816000Y-67257609D01*
X53863619Y-67352847D01*
X53863619Y-67495704D01*
X53816000Y-67590942D01*
X53768380Y-67638561D01*
X53673142Y-67686180D01*
X53292190Y-67686180D01*
X53292190Y-66686180D01*
X53625523Y-66686180D01*
X53720761Y-66733800D01*
X53768380Y-66781419D01*
X53816000Y-66876657D01*
X53816000Y-66971895D01*
X53768380Y-67067133D01*
X53720761Y-67114752D01*
X53625523Y-67162371D01*
X53292190Y-67162371D01*
X49763609Y-62218866D02*
X50239800Y-62218866D01*
X49668371Y-62504580D02*
X50001704Y-61504580D01*
X50335038Y-62504580D01*
X50668371Y-62504580D02*
X50668371Y-61837914D01*
X50668371Y-61504580D02*
X50620752Y-61552200D01*
X50668371Y-61599819D01*
X50715990Y-61552200D01*
X50668371Y-61504580D01*
X50668371Y-61599819D01*
X51144561Y-61837914D02*
X51144561Y-62504580D01*
X51144561Y-61933152D02*
X51192180Y-61885533D01*
X51287419Y-61837914D01*
X51430276Y-61837914D01*
X51525514Y-61885533D01*
X51573133Y-61980771D01*
X51573133Y-62504580D01*
X52049323Y-62123628D02*
X52811228Y-62123628D01*
X53239800Y-62218866D02*
X53715990Y-62218866D01*
X53144561Y-62504580D02*
X53477895Y-61504580D01*
X53811228Y-62504580D01*
X116584457Y-142327333D02*
X116536838Y-142279714D01*
X116489219Y-142136857D01*
X116489219Y-142041619D01*
X116536838Y-141898761D01*
X116632076Y-141803523D01*
X116727314Y-141755904D01*
X116917790Y-141708285D01*
X117060647Y-141708285D01*
X117251123Y-141755904D01*
X117346361Y-141803523D01*
X117441600Y-141898761D01*
X117489219Y-142041619D01*
X117489219Y-142136857D01*
X117441600Y-142279714D01*
X117393980Y-142327333D01*
X116536838Y-142708285D02*
X116489219Y-142851142D01*
X116489219Y-143089238D01*
X116536838Y-143184476D01*
X116584457Y-143232095D01*
X116679695Y-143279714D01*
X116774933Y-143279714D01*
X116870171Y-143232095D01*
X116917790Y-143184476D01*
X116965409Y-143089238D01*
X117013028Y-142898761D01*
X117060647Y-142803523D01*
X117108266Y-142755904D01*
X117203504Y-142708285D01*
X117298742Y-142708285D01*
X117393980Y-142755904D01*
X117441600Y-142803523D01*
X117489219Y-142898761D01*
X117489219Y-143136857D01*
X117441600Y-143279714D01*
X79716380Y-134627809D02*
X80716380Y-134294476D01*
X79716380Y-133961142D01*
X80716380Y-133627809D02*
X80049714Y-133627809D01*
X79716380Y-133627809D02*
X79764000Y-133675428D01*
X79811619Y-133627809D01*
X79764000Y-133580190D01*
X79716380Y-133627809D01*
X79811619Y-133627809D01*
X80049714Y-133151619D02*
X80716380Y-133151619D01*
X80144952Y-133151619D02*
X80097333Y-133104000D01*
X80049714Y-133008761D01*
X80049714Y-132865904D01*
X80097333Y-132770666D01*
X80192571Y-132723047D01*
X80716380Y-132723047D01*
X134129638Y-100985580D02*
X134129638Y-99985580D01*
X134510590Y-99985580D01*
X134605828Y-100033200D01*
X134653447Y-100080819D01*
X134701066Y-100176057D01*
X134701066Y-100318914D01*
X134653447Y-100414152D01*
X134605828Y-100461771D01*
X134510590Y-100509390D01*
X134129638Y-100509390D01*
X135034400Y-99985580D02*
X135272495Y-100985580D01*
X135462971Y-100271295D01*
X135653447Y-100985580D01*
X135891542Y-99985580D01*
X136272495Y-100985580D02*
X136272495Y-99985580D01*
X136605828Y-100699866D01*
X136939161Y-99985580D01*
X136939161Y-100985580D01*
X50085809Y-103322380D02*
X50085809Y-102322380D01*
X50085809Y-102798571D02*
X50657238Y-102798571D01*
X50657238Y-103322380D02*
X50657238Y-102322380D01*
X51133428Y-103322380D02*
X51133428Y-102655714D01*
X51133428Y-102322380D02*
X51085809Y-102370000D01*
X51133428Y-102417619D01*
X51181047Y-102370000D01*
X51133428Y-102322380D01*
X51133428Y-102417619D01*
X51609619Y-102655714D02*
X51609619Y-103322380D01*
X51609619Y-102750952D02*
X51657238Y-102703333D01*
X51752476Y-102655714D01*
X51895333Y-102655714D01*
X51990571Y-102703333D01*
X52038190Y-102798571D01*
X52038190Y-103322380D01*
X52847714Y-102798571D02*
X52990571Y-102846190D01*
X53038190Y-102893809D01*
X53085809Y-102989047D01*
X53085809Y-103131904D01*
X53038190Y-103227142D01*
X52990571Y-103274761D01*
X52895333Y-103322380D01*
X52514380Y-103322380D01*
X52514380Y-102322380D01*
X52847714Y-102322380D01*
X52942952Y-102370000D01*
X52990571Y-102417619D01*
X53038190Y-102512857D01*
X53038190Y-102608095D01*
X52990571Y-102703333D01*
X52942952Y-102750952D01*
X52847714Y-102798571D01*
X52514380Y-102798571D01*
X111450380Y-67032000D02*
X110450380Y-67032000D01*
X110450380Y-66651047D01*
X110498000Y-66555809D01*
X110545619Y-66508190D01*
X110640857Y-66460571D01*
X110783714Y-66460571D01*
X110878952Y-66508190D01*
X110926571Y-66555809D01*
X110974190Y-66651047D01*
X110974190Y-67032000D01*
X111450380Y-66032000D02*
X110450380Y-66032000D01*
X111450380Y-65555809D02*
X110450380Y-65555809D01*
X111450380Y-64984380D01*
X110450380Y-64984380D01*
X111450380Y-63984380D02*
X111450380Y-64555809D01*
X111450380Y-64270095D02*
X110450380Y-64270095D01*
X110593238Y-64365333D01*
X110688476Y-64460571D01*
X110736095Y-64555809D01*
X134121733Y-103728780D02*
X134121733Y-102728780D01*
X134502685Y-102728780D01*
X134597923Y-102776400D01*
X134645542Y-102824019D01*
X134693161Y-102919257D01*
X134693161Y-103062114D01*
X134645542Y-103157352D01*
X134597923Y-103204971D01*
X134502685Y-103252590D01*
X134121733Y-103252590D01*
X135693161Y-103633542D02*
X135645542Y-103681161D01*
X135502685Y-103728780D01*
X135407447Y-103728780D01*
X135264590Y-103681161D01*
X135169352Y-103585923D01*
X135121733Y-103490685D01*
X135074114Y-103300209D01*
X135074114Y-103157352D01*
X135121733Y-102966876D01*
X135169352Y-102871638D01*
X135264590Y-102776400D01*
X135407447Y-102728780D01*
X135502685Y-102728780D01*
X135645542Y-102776400D01*
X135693161Y-102824019D01*
X136121733Y-103728780D02*
X136121733Y-102728780D01*
X136693161Y-103728780D01*
X136693161Y-102728780D01*
X137026495Y-102728780D02*
X137597923Y-102728780D01*
X137312209Y-103728780D02*
X137312209Y-102728780D01*
X121920095Y-49792000D02*
X121824857Y-49744380D01*
X121682000Y-49744380D01*
X121539142Y-49792000D01*
X121443904Y-49887238D01*
X121396285Y-49982476D01*
X121348666Y-50172952D01*
X121348666Y-50315809D01*
X121396285Y-50506285D01*
X121443904Y-50601523D01*
X121539142Y-50696761D01*
X121682000Y-50744380D01*
X121777238Y-50744380D01*
X121920095Y-50696761D01*
X121967714Y-50649142D01*
X121967714Y-50315809D01*
X121777238Y-50315809D01*
X122396285Y-50744380D02*
X122396285Y-49744380D01*
X122967714Y-50744380D01*
X122967714Y-49744380D01*
X123443904Y-50744380D02*
X123443904Y-49744380D01*
X123682000Y-49744380D01*
X123824857Y-49792000D01*
X123920095Y-49887238D01*
X123967714Y-49982476D01*
X124015333Y-50172952D01*
X124015333Y-50315809D01*
X123967714Y-50506285D01*
X123920095Y-50601523D01*
X123824857Y-50696761D01*
X123682000Y-50744380D01*
X123443904Y-50744380D01*
X134077200Y-98394780D02*
X134077200Y-97394780D01*
X134315295Y-97394780D01*
X134458152Y-97442400D01*
X134553390Y-97537638D01*
X134601009Y-97632876D01*
X134648628Y-97823352D01*
X134648628Y-97966209D01*
X134601009Y-98156685D01*
X134553390Y-98251923D01*
X134458152Y-98347161D01*
X134315295Y-98394780D01*
X134077200Y-98394780D01*
X135077200Y-98394780D02*
X135077200Y-97394780D01*
X136124819Y-98394780D02*
X135791485Y-97918590D01*
X135553390Y-98394780D02*
X135553390Y-97394780D01*
X135934342Y-97394780D01*
X136029580Y-97442400D01*
X136077200Y-97490019D01*
X136124819Y-97585257D01*
X136124819Y-97728114D01*
X136077200Y-97823352D01*
X136029580Y-97870971D01*
X135934342Y-97918590D01*
X135553390Y-97918590D01*
X108437371Y-66270095D02*
X108437371Y-65936761D01*
X108961180Y-65793904D02*
X108961180Y-66270095D01*
X107961180Y-66270095D01*
X107961180Y-65793904D01*
X108961180Y-65365333D02*
X107961180Y-65365333D01*
X108961180Y-64793904D01*
X107961180Y-64793904D01*
X134178800Y-111958380D02*
X134178800Y-110958380D01*
X134416895Y-110958380D01*
X134559752Y-111006000D01*
X134654990Y-111101238D01*
X134702609Y-111196476D01*
X134750228Y-111386952D01*
X134750228Y-111529809D01*
X134702609Y-111720285D01*
X134654990Y-111815523D01*
X134559752Y-111910761D01*
X134416895Y-111958380D01*
X134178800Y-111958380D01*
X135178800Y-111958380D02*
X135178800Y-110958380D01*
X136226419Y-111958380D02*
X135893085Y-111482190D01*
X135654990Y-111958380D02*
X135654990Y-110958380D01*
X136035942Y-110958380D01*
X136131180Y-111006000D01*
X136178800Y-111053619D01*
X136226419Y-111148857D01*
X136226419Y-111291714D01*
X136178800Y-111386952D01*
X136131180Y-111434571D01*
X136035942Y-111482190D01*
X135654990Y-111482190D01*
X89488190Y-87844380D02*
X89726285Y-88844380D01*
X89916761Y-88130095D01*
X90107238Y-88844380D01*
X90345333Y-87844380D01*
X90726285Y-88844380D02*
X90726285Y-87844380D01*
X91535809Y-88320571D02*
X91202476Y-88320571D01*
X91202476Y-88844380D02*
X91202476Y-87844380D01*
X91678666Y-87844380D01*
X92059619Y-88844380D02*
X92059619Y-87844380D01*
X92535809Y-88463428D02*
X93297714Y-88463428D01*
X93773904Y-88844380D02*
X93773904Y-87844380D01*
X94345333Y-88844380D02*
X93916761Y-88272952D01*
X94345333Y-87844380D02*
X93773904Y-88415809D01*
X94773904Y-88320571D02*
X95107238Y-88320571D01*
X95250095Y-88844380D02*
X94773904Y-88844380D01*
X94773904Y-87844380D01*
X95250095Y-87844380D01*
X95678666Y-88320571D02*
X96012000Y-88320571D01*
X96154857Y-88844380D02*
X95678666Y-88844380D01*
X95678666Y-87844380D01*
X96154857Y-87844380D01*
X96583428Y-88844380D02*
X96583428Y-87844380D01*
X96964380Y-87844380D01*
X97059619Y-87892000D01*
X97107238Y-87939619D01*
X97154857Y-88034857D01*
X97154857Y-88177714D01*
X97107238Y-88272952D01*
X97059619Y-88320571D01*
X96964380Y-88368190D01*
X96583428Y-88368190D01*
X98916761Y-88749142D02*
X98869142Y-88796761D01*
X98726285Y-88844380D01*
X98631047Y-88844380D01*
X98488190Y-88796761D01*
X98392952Y-88701523D01*
X98345333Y-88606285D01*
X98297714Y-88415809D01*
X98297714Y-88272952D01*
X98345333Y-88082476D01*
X98392952Y-87987238D01*
X98488190Y-87892000D01*
X98631047Y-87844380D01*
X98726285Y-87844380D01*
X98869142Y-87892000D01*
X98916761Y-87939619D01*
X99821523Y-88844380D02*
X99345333Y-88844380D01*
X99345333Y-87844380D01*
X100154857Y-88320571D02*
X100488190Y-88320571D01*
X100631047Y-88844380D02*
X100154857Y-88844380D01*
X100154857Y-87844380D01*
X100631047Y-87844380D01*
X101012000Y-88558666D02*
X101488190Y-88558666D01*
X100916761Y-88844380D02*
X101250095Y-87844380D01*
X101583428Y-88844380D01*
X102488190Y-88844380D02*
X102154857Y-88368190D01*
X101916761Y-88844380D02*
X101916761Y-87844380D01*
X102297714Y-87844380D01*
X102392952Y-87892000D01*
X102440571Y-87939619D01*
X102488190Y-88034857D01*
X102488190Y-88177714D01*
X102440571Y-88272952D01*
X102392952Y-88320571D01*
X102297714Y-88368190D01*
X101916761Y-88368190D01*
X49768380Y-64758866D02*
X50244571Y-64758866D01*
X49673142Y-65044580D02*
X50006476Y-64044580D01*
X50339809Y-65044580D01*
X50673142Y-65044580D02*
X50673142Y-64377914D01*
X50673142Y-64044580D02*
X50625523Y-64092200D01*
X50673142Y-64139819D01*
X50720761Y-64092200D01*
X50673142Y-64044580D01*
X50673142Y-64139819D01*
X51149333Y-64377914D02*
X51149333Y-65044580D01*
X51149333Y-64473152D02*
X51196952Y-64425533D01*
X51292190Y-64377914D01*
X51435047Y-64377914D01*
X51530285Y-64425533D01*
X51577904Y-64520771D01*
X51577904Y-65044580D01*
X52054095Y-64663628D02*
X52816000Y-64663628D01*
X53292190Y-65044580D02*
X53292190Y-64044580D01*
X53530285Y-64044580D01*
X53673142Y-64092200D01*
X53768380Y-64187438D01*
X53816000Y-64282676D01*
X53863619Y-64473152D01*
X53863619Y-64616009D01*
X53816000Y-64806485D01*
X53768380Y-64901723D01*
X53673142Y-64996961D01*
X53530285Y-65044580D01*
X53292190Y-65044580D01*
X119029219Y-141732095D02*
X120029219Y-141732095D01*
X120029219Y-141970190D01*
X119981600Y-142113047D01*
X119886361Y-142208285D01*
X119791123Y-142255904D01*
X119600647Y-142303523D01*
X119457790Y-142303523D01*
X119267314Y-142255904D01*
X119172076Y-142208285D01*
X119076838Y-142113047D01*
X119029219Y-141970190D01*
X119029219Y-141732095D01*
X119124457Y-143303523D02*
X119076838Y-143255904D01*
X119029219Y-143113047D01*
X119029219Y-143017809D01*
X119076838Y-142874952D01*
X119172076Y-142779714D01*
X119267314Y-142732095D01*
X119457790Y-142684476D01*
X119600647Y-142684476D01*
X119791123Y-142732095D01*
X119886361Y-142779714D01*
X119981600Y-142874952D01*
X120029219Y-143017809D01*
X120029219Y-143113047D01*
X119981600Y-143255904D01*
X119933980Y-143303523D01*
X134180438Y-114498380D02*
X134180438Y-113498380D01*
X134561390Y-113498380D01*
X134656628Y-113546000D01*
X134704247Y-113593619D01*
X134751866Y-113688857D01*
X134751866Y-113831714D01*
X134704247Y-113926952D01*
X134656628Y-113974571D01*
X134561390Y-114022190D01*
X134180438Y-114022190D01*
X135085200Y-113498380D02*
X135323295Y-114498380D01*
X135513771Y-113784095D01*
X135704247Y-114498380D01*
X135942342Y-113498380D01*
X136323295Y-114498380D02*
X136323295Y-113498380D01*
X136656628Y-114212666D01*
X136989961Y-113498380D01*
X136989961Y-114498380D01*
X132935600Y-141732095D02*
X132983219Y-141636857D01*
X132983219Y-141494000D01*
X132935600Y-141351142D01*
X132840361Y-141255904D01*
X132745123Y-141208285D01*
X132554647Y-141160666D01*
X132411790Y-141160666D01*
X132221314Y-141208285D01*
X132126076Y-141255904D01*
X132030838Y-141351142D01*
X131983219Y-141494000D01*
X131983219Y-141589238D01*
X132030838Y-141732095D01*
X132078457Y-141779714D01*
X132411790Y-141779714D01*
X132411790Y-141589238D01*
X131983219Y-142208285D02*
X132983219Y-142208285D01*
X131983219Y-142779714D01*
X132983219Y-142779714D01*
X131983219Y-143255904D02*
X132983219Y-143255904D01*
X132983219Y-143494000D01*
X132935600Y-143636857D01*
X132840361Y-143732095D01*
X132745123Y-143779714D01*
X132554647Y-143827333D01*
X132411790Y-143827333D01*
X132221314Y-143779714D01*
X132126076Y-143732095D01*
X132030838Y-143636857D01*
X131983219Y-143494000D01*
X131983219Y-143255904D01*
X130189219Y-141255904D02*
X130189219Y-141874952D01*
X129808266Y-141541619D01*
X129808266Y-141684476D01*
X129760647Y-141779714D01*
X129713028Y-141827333D01*
X129617790Y-141874952D01*
X129379695Y-141874952D01*
X129284457Y-141827333D01*
X129236838Y-141779714D01*
X129189219Y-141684476D01*
X129189219Y-141398761D01*
X129236838Y-141303523D01*
X129284457Y-141255904D01*
X130189219Y-142160666D02*
X129189219Y-142494000D01*
X130189219Y-142827333D01*
X130189219Y-143065428D02*
X130189219Y-143684476D01*
X129808266Y-143351142D01*
X129808266Y-143494000D01*
X129760647Y-143589238D01*
X129713028Y-143636857D01*
X129617790Y-143684476D01*
X129379695Y-143684476D01*
X129284457Y-143636857D01*
X129236838Y-143589238D01*
X129189219Y-143494000D01*
X129189219Y-143208285D01*
X129236838Y-143113047D01*
X129284457Y-143065428D01*
X50085809Y-98496380D02*
X50085809Y-97496380D01*
X50085809Y-97972571D02*
X50657238Y-97972571D01*
X50657238Y-98496380D02*
X50657238Y-97496380D01*
X51133428Y-98496380D02*
X51133428Y-97829714D01*
X51133428Y-97496380D02*
X51085809Y-97544000D01*
X51133428Y-97591619D01*
X51181047Y-97544000D01*
X51133428Y-97496380D01*
X51133428Y-97591619D01*
X51609619Y-97829714D02*
X51609619Y-98496380D01*
X51609619Y-97924952D02*
X51657238Y-97877333D01*
X51752476Y-97829714D01*
X51895333Y-97829714D01*
X51990571Y-97877333D01*
X52038190Y-97972571D01*
X52038190Y-98496380D01*
X52514380Y-98496380D02*
X52514380Y-97496380D01*
X52752476Y-97496380D01*
X52895333Y-97544000D01*
X52990571Y-97639238D01*
X53038190Y-97734476D01*
X53085809Y-97924952D01*
X53085809Y-98067809D01*
X53038190Y-98258285D01*
X52990571Y-98353523D01*
X52895333Y-98448761D01*
X52752476Y-98496380D01*
X52514380Y-98496380D01*
X121569219Y-141874952D02*
X122045409Y-141541619D01*
X121569219Y-141303523D02*
X122569219Y-141303523D01*
X122569219Y-141684476D01*
X122521600Y-141779714D01*
X122473980Y-141827333D01*
X122378742Y-141874952D01*
X122235885Y-141874952D01*
X122140647Y-141827333D01*
X122093028Y-141779714D01*
X122045409Y-141684476D01*
X122045409Y-141303523D01*
X122093028Y-142303523D02*
X122093028Y-142636857D01*
X121569219Y-142779714D02*
X121569219Y-142303523D01*
X122569219Y-142303523D01*
X122569219Y-142779714D01*
X121616838Y-143160666D02*
X121569219Y-143303523D01*
X121569219Y-143541619D01*
X121616838Y-143636857D01*
X121664457Y-143684476D01*
X121759695Y-143732095D01*
X121854933Y-143732095D01*
X121950171Y-143684476D01*
X121997790Y-143636857D01*
X122045409Y-143541619D01*
X122093028Y-143351142D01*
X122140647Y-143255904D01*
X122188266Y-143208285D01*
X122283504Y-143160666D01*
X122378742Y-143160666D01*
X122473980Y-143208285D01*
X122521600Y-143255904D01*
X122569219Y-143351142D01*
X122569219Y-143589238D01*
X122521600Y-143732095D01*
X127458561Y-93992238D02*
X127458561Y-92842238D01*
X127896657Y-92842238D01*
X128006180Y-92897000D01*
X128060942Y-92951761D01*
X128115704Y-93061285D01*
X128115704Y-93225571D01*
X128060942Y-93335095D01*
X128006180Y-93389857D01*
X127896657Y-93444619D01*
X127458561Y-93444619D01*
X128827609Y-92842238D02*
X129046657Y-92842238D01*
X129156180Y-92897000D01*
X129265704Y-93006523D01*
X129320466Y-93225571D01*
X129320466Y-93608904D01*
X129265704Y-93827952D01*
X129156180Y-93937476D01*
X129046657Y-93992238D01*
X128827609Y-93992238D01*
X128718085Y-93937476D01*
X128608561Y-93827952D01*
X128553800Y-93608904D01*
X128553800Y-93225571D01*
X128608561Y-93006523D01*
X128718085Y-92897000D01*
X128827609Y-92842238D01*
X129703800Y-92842238D02*
X129977609Y-93992238D01*
X130196657Y-93170809D01*
X130415704Y-93992238D01*
X130689514Y-92842238D01*
X131127609Y-93389857D02*
X131510942Y-93389857D01*
X131675228Y-93992238D02*
X131127609Y-93992238D01*
X131127609Y-92842238D01*
X131675228Y-92842238D01*
X132825228Y-93992238D02*
X132441895Y-93444619D01*
X132168085Y-93992238D02*
X132168085Y-92842238D01*
X132606180Y-92842238D01*
X132715704Y-92897000D01*
X132770466Y-92951761D01*
X132825228Y-93061285D01*
X132825228Y-93225571D01*
X132770466Y-93335095D01*
X132715704Y-93389857D01*
X132606180Y-93444619D01*
X132168085Y-93444619D01*
X134194276Y-93992238D02*
X134194276Y-92842238D01*
X134741895Y-93992238D02*
X134741895Y-92842238D01*
X135399038Y-93992238D01*
X135399038Y-92842238D01*
X135946657Y-93992238D02*
X135946657Y-92842238D01*
X136220466Y-92842238D01*
X136384752Y-92897000D01*
X136494276Y-93006523D01*
X136549038Y-93116047D01*
X136603800Y-93335095D01*
X136603800Y-93499380D01*
X136549038Y-93718428D01*
X136494276Y-93827952D01*
X136384752Y-93937476D01*
X136220466Y-93992238D01*
X135946657Y-93992238D01*
X116530380Y-67032000D02*
X115530380Y-67032000D01*
X115530380Y-66651047D01*
X115578000Y-66555809D01*
X115625619Y-66508190D01*
X115720857Y-66460571D01*
X115863714Y-66460571D01*
X115958952Y-66508190D01*
X116006571Y-66555809D01*
X116054190Y-66651047D01*
X116054190Y-67032000D01*
X116530380Y-66032000D02*
X115530380Y-66032000D01*
X116530380Y-65555809D02*
X115530380Y-65555809D01*
X116530380Y-64984380D01*
X115530380Y-64984380D01*
X115530380Y-64603428D02*
X115530380Y-63984380D01*
X115911333Y-64317714D01*
X115911333Y-64174857D01*
X115958952Y-64079619D01*
X116006571Y-64032000D01*
X116101809Y-63984380D01*
X116339904Y-63984380D01*
X116435142Y-64032000D01*
X116482761Y-64079619D01*
X116530380Y-64174857D01*
X116530380Y-64460571D01*
X116482761Y-64555809D01*
X116435142Y-64603428D01*
X50081038Y-106370380D02*
X50081038Y-105370380D01*
X50081038Y-105846571D02*
X50652466Y-105846571D01*
X50652466Y-106370380D02*
X50652466Y-105370380D01*
X51128657Y-106370380D02*
X51128657Y-105703714D01*
X51128657Y-105370380D02*
X51081038Y-105418000D01*
X51128657Y-105465619D01*
X51176276Y-105418000D01*
X51128657Y-105370380D01*
X51128657Y-105465619D01*
X51604847Y-105703714D02*
X51604847Y-106370380D01*
X51604847Y-105798952D02*
X51652466Y-105751333D01*
X51747704Y-105703714D01*
X51890561Y-105703714D01*
X51985800Y-105751333D01*
X52033419Y-105846571D01*
X52033419Y-106370380D01*
X52461990Y-106084666D02*
X52938180Y-106084666D01*
X52366752Y-106370380D02*
X52700085Y-105370380D01*
X53033419Y-106370380D01*
X105473523Y-55332380D02*
X104997333Y-55332380D01*
X104949714Y-55808571D01*
X104997333Y-55760952D01*
X105092571Y-55713333D01*
X105330666Y-55713333D01*
X105425904Y-55760952D01*
X105473523Y-55808571D01*
X105521142Y-55903809D01*
X105521142Y-56141904D01*
X105473523Y-56237142D01*
X105425904Y-56284761D01*
X105330666Y-56332380D01*
X105092571Y-56332380D01*
X104997333Y-56284761D01*
X104949714Y-56237142D01*
X105806857Y-55332380D02*
X106140190Y-56332380D01*
X106473523Y-55332380D01*
X113990380Y-67032000D02*
X112990380Y-67032000D01*
X112990380Y-66651047D01*
X113038000Y-66555809D01*
X113085619Y-66508190D01*
X113180857Y-66460571D01*
X113323714Y-66460571D01*
X113418952Y-66508190D01*
X113466571Y-66555809D01*
X113514190Y-66651047D01*
X113514190Y-67032000D01*
X113990380Y-66032000D02*
X112990380Y-66032000D01*
X113990380Y-65555809D02*
X112990380Y-65555809D01*
X113990380Y-64984380D01*
X112990380Y-64984380D01*
X113085619Y-64555809D02*
X113038000Y-64508190D01*
X112990380Y-64412952D01*
X112990380Y-64174857D01*
X113038000Y-64079619D01*
X113085619Y-64032000D01*
X113180857Y-63984380D01*
X113276095Y-63984380D01*
X113418952Y-64032000D01*
X113990380Y-64603428D01*
X113990380Y-63984380D01*
X54432914Y-140466819D02*
X54480533Y-140419200D01*
X54575771Y-140371580D01*
X54813866Y-140371580D01*
X54909104Y-140419200D01*
X54956723Y-140466819D01*
X55004342Y-140562057D01*
X55004342Y-140657295D01*
X54956723Y-140800152D01*
X54385295Y-141371580D01*
X55004342Y-141371580D01*
X55623390Y-140371580D02*
X55718628Y-140371580D01*
X55813866Y-140419200D01*
X55861485Y-140466819D01*
X55909104Y-140562057D01*
X55956723Y-140752533D01*
X55956723Y-140990628D01*
X55909104Y-141181104D01*
X55861485Y-141276342D01*
X55813866Y-141323961D01*
X55718628Y-141371580D01*
X55623390Y-141371580D01*
X55528152Y-141323961D01*
X55480533Y-141276342D01*
X55432914Y-141181104D01*
X55385295Y-140990628D01*
X55385295Y-140752533D01*
X55432914Y-140562057D01*
X55480533Y-140466819D01*
X55528152Y-140419200D01*
X55623390Y-140371580D01*
X56337676Y-140466819D02*
X56385295Y-140419200D01*
X56480533Y-140371580D01*
X56718628Y-140371580D01*
X56813866Y-140419200D01*
X56861485Y-140466819D01*
X56909104Y-140562057D01*
X56909104Y-140657295D01*
X56861485Y-140800152D01*
X56290057Y-141371580D01*
X56909104Y-141371580D01*
X57290057Y-140466819D02*
X57337676Y-140419200D01*
X57432914Y-140371580D01*
X57671009Y-140371580D01*
X57766247Y-140419200D01*
X57813866Y-140466819D01*
X57861485Y-140562057D01*
X57861485Y-140657295D01*
X57813866Y-140800152D01*
X57242438Y-141371580D01*
X57861485Y-141371580D01*
X58290057Y-140990628D02*
X59051961Y-140990628D01*
X59480533Y-141323961D02*
X59623390Y-141371580D01*
X59861485Y-141371580D01*
X59956723Y-141323961D01*
X60004342Y-141276342D01*
X60051961Y-141181104D01*
X60051961Y-141085866D01*
X60004342Y-140990628D01*
X59956723Y-140943009D01*
X59861485Y-140895390D01*
X59671009Y-140847771D01*
X59575771Y-140800152D01*
X59528152Y-140752533D01*
X59480533Y-140657295D01*
X59480533Y-140562057D01*
X59528152Y-140466819D01*
X59575771Y-140419200D01*
X59671009Y-140371580D01*
X59909104Y-140371580D01*
X60051961Y-140419200D01*
X60480533Y-140847771D02*
X60813866Y-140847771D01*
X60956723Y-141371580D02*
X60480533Y-141371580D01*
X60480533Y-140371580D01*
X60956723Y-140371580D01*
X61385295Y-141371580D02*
X61385295Y-140371580D01*
X61766247Y-140371580D01*
X61861485Y-140419200D01*
X61909104Y-140466819D01*
X61956723Y-140562057D01*
X61956723Y-140704914D01*
X61909104Y-140800152D01*
X61861485Y-140847771D01*
X61766247Y-140895390D01*
X61385295Y-140895390D01*
X62242438Y-140371580D02*
X62813866Y-140371580D01*
X62528152Y-141371580D02*
X62528152Y-140371580D01*
X63147200Y-140990628D02*
X63909104Y-140990628D01*
X64337676Y-140466819D02*
X64385295Y-140419200D01*
X64480533Y-140371580D01*
X64718628Y-140371580D01*
X64813866Y-140419200D01*
X64861485Y-140466819D01*
X64909104Y-140562057D01*
X64909104Y-140657295D01*
X64861485Y-140800152D01*
X64290057Y-141371580D01*
X64909104Y-141371580D01*
X65242438Y-140371580D02*
X65861485Y-140371580D01*
X65528152Y-140752533D01*
X65671009Y-140752533D01*
X65766247Y-140800152D01*
X65813866Y-140847771D01*
X65861485Y-140943009D01*
X65861485Y-141181104D01*
X65813866Y-141276342D01*
X65766247Y-141323961D01*
X65671009Y-141371580D01*
X65385295Y-141371580D01*
X65290057Y-141323961D01*
X65242438Y-141276342D01*
X134172533Y-117038380D02*
X134172533Y-116038380D01*
X134553485Y-116038380D01*
X134648723Y-116086000D01*
X134696342Y-116133619D01*
X134743961Y-116228857D01*
X134743961Y-116371714D01*
X134696342Y-116466952D01*
X134648723Y-116514571D01*
X134553485Y-116562190D01*
X134172533Y-116562190D01*
X135743961Y-116943142D02*
X135696342Y-116990761D01*
X135553485Y-117038380D01*
X135458247Y-117038380D01*
X135315390Y-116990761D01*
X135220152Y-116895523D01*
X135172533Y-116800285D01*
X135124914Y-116609809D01*
X135124914Y-116466952D01*
X135172533Y-116276476D01*
X135220152Y-116181238D01*
X135315390Y-116086000D01*
X135458247Y-116038380D01*
X135553485Y-116038380D01*
X135696342Y-116086000D01*
X135743961Y-116133619D01*
X136172533Y-117038380D02*
X136172533Y-116038380D01*
X136743961Y-117038380D01*
X136743961Y-116038380D01*
X137077295Y-116038380D02*
X137648723Y-116038380D01*
X137363009Y-117038380D02*
X137363009Y-116038380D01*
X104394095Y-57920000D02*
X104298857Y-57872380D01*
X104156000Y-57872380D01*
X104013142Y-57920000D01*
X103917904Y-58015238D01*
X103870285Y-58110476D01*
X103822666Y-58300952D01*
X103822666Y-58443809D01*
X103870285Y-58634285D01*
X103917904Y-58729523D01*
X104013142Y-58824761D01*
X104156000Y-58872380D01*
X104251238Y-58872380D01*
X104394095Y-58824761D01*
X104441714Y-58777142D01*
X104441714Y-58443809D01*
X104251238Y-58443809D01*
X104870285Y-58872380D02*
X104870285Y-57872380D01*
X105441714Y-58872380D01*
X105441714Y-57872380D01*
X105917904Y-58872380D02*
X105917904Y-57872380D01*
X106156000Y-57872380D01*
X106298857Y-57920000D01*
X106394095Y-58015238D01*
X106441714Y-58110476D01*
X106489333Y-58300952D01*
X106489333Y-58443809D01*
X106441714Y-58634285D01*
X106394095Y-58729523D01*
X106298857Y-58824761D01*
X106156000Y-58872380D01*
X105917904Y-58872380D01*
X50665238Y-123642380D02*
X50665238Y-122642380D01*
X51046190Y-122642380D01*
X51141428Y-122690000D01*
X51189047Y-122737619D01*
X51236666Y-122832857D01*
X51236666Y-122975714D01*
X51189047Y-123070952D01*
X51141428Y-123118571D01*
X51046190Y-123166190D01*
X50665238Y-123166190D01*
X51570000Y-122642380D02*
X51808095Y-123642380D01*
X51998571Y-122928095D01*
X52189047Y-123642380D01*
X52427142Y-122642380D01*
X52808095Y-123642380D02*
X52808095Y-122642380D01*
X53141428Y-123356666D01*
X53474761Y-122642380D01*
X53474761Y-123642380D01*
X49768380Y-69838866D02*
X50244571Y-69838866D01*
X49673142Y-70124580D02*
X50006476Y-69124580D01*
X50339809Y-70124580D01*
X50673142Y-70124580D02*
X50673142Y-69457914D01*
X50673142Y-69124580D02*
X50625523Y-69172200D01*
X50673142Y-69219819D01*
X50720761Y-69172200D01*
X50673142Y-69124580D01*
X50673142Y-69219819D01*
X51149333Y-69457914D02*
X51149333Y-70124580D01*
X51149333Y-69553152D02*
X51196952Y-69505533D01*
X51292190Y-69457914D01*
X51435047Y-69457914D01*
X51530285Y-69505533D01*
X51577904Y-69600771D01*
X51577904Y-70124580D01*
X52054095Y-69743628D02*
X52816000Y-69743628D01*
X53863619Y-70029342D02*
X53816000Y-70076961D01*
X53673142Y-70124580D01*
X53577904Y-70124580D01*
X53435047Y-70076961D01*
X53339809Y-69981723D01*
X53292190Y-69886485D01*
X53244571Y-69696009D01*
X53244571Y-69553152D01*
X53292190Y-69362676D01*
X53339809Y-69267438D01*
X53435047Y-69172200D01*
X53577904Y-69124580D01*
X53673142Y-69124580D01*
X53816000Y-69172200D01*
X53863619Y-69219819D01*
X54772704Y-139222171D02*
X54915561Y-139269790D01*
X54963180Y-139317409D01*
X55010799Y-139412647D01*
X55010799Y-139555504D01*
X54963180Y-139650742D01*
X54915561Y-139698361D01*
X54820323Y-139745980D01*
X54439371Y-139745980D01*
X54439371Y-138745980D01*
X54772704Y-138745980D01*
X54867942Y-138793600D01*
X54915561Y-138841219D01*
X54963180Y-138936457D01*
X54963180Y-139031695D01*
X54915561Y-139126933D01*
X54867942Y-139174552D01*
X54772704Y-139222171D01*
X54439371Y-139222171D01*
X55344133Y-139079314D02*
X55582228Y-139745980D01*
X55820323Y-139079314D02*
X55582228Y-139745980D01*
X55486990Y-139984076D01*
X55439371Y-140031695D01*
X55344133Y-140079314D01*
X56201276Y-139650742D02*
X56248895Y-139698361D01*
X56201276Y-139745980D01*
X56153657Y-139698361D01*
X56201276Y-139650742D01*
X56201276Y-139745980D01*
X56201276Y-139126933D02*
X56248895Y-139174552D01*
X56201276Y-139222171D01*
X56153657Y-139174552D01*
X56201276Y-139126933D01*
X56201276Y-139222171D01*
X57439371Y-139745980D02*
X57439371Y-138745980D01*
X57772704Y-139460266D01*
X58106038Y-138745980D01*
X58106038Y-139745980D01*
X59010800Y-139745980D02*
X59010800Y-139222171D01*
X58963180Y-139126933D01*
X58867942Y-139079314D01*
X58677466Y-139079314D01*
X58582228Y-139126933D01*
X59010800Y-139698361D02*
X58915561Y-139745980D01*
X58677466Y-139745980D01*
X58582228Y-139698361D01*
X58534609Y-139603123D01*
X58534609Y-139507885D01*
X58582228Y-139412647D01*
X58677466Y-139365028D01*
X58915561Y-139365028D01*
X59010800Y-139317409D01*
X59344133Y-139079314D02*
X59725085Y-139079314D01*
X59486990Y-138745980D02*
X59486990Y-139603123D01*
X59534609Y-139698361D01*
X59629847Y-139745980D01*
X59725085Y-139745980D01*
X59915561Y-139079314D02*
X60296514Y-139079314D01*
X60058419Y-138745980D02*
X60058419Y-139603123D01*
X60106038Y-139698361D01*
X60201276Y-139745980D01*
X60296514Y-139745980D01*
X60629847Y-139745980D02*
X60629847Y-138745980D01*
X61058419Y-139745980D02*
X61058419Y-139222171D01*
X61010800Y-139126933D01*
X60915561Y-139079314D01*
X60772704Y-139079314D01*
X60677466Y-139126933D01*
X60629847Y-139174552D01*
X61915561Y-139698361D02*
X61820323Y-139745980D01*
X61629847Y-139745980D01*
X61534609Y-139698361D01*
X61486990Y-139603123D01*
X61486990Y-139222171D01*
X61534609Y-139126933D01*
X61629847Y-139079314D01*
X61820323Y-139079314D01*
X61915561Y-139126933D01*
X61963180Y-139222171D01*
X61963180Y-139317409D01*
X61486990Y-139412647D01*
X62296514Y-139079314D02*
X62486990Y-139745980D01*
X62677466Y-139269790D01*
X62867942Y-139745980D01*
X63058419Y-139079314D01*
X64201276Y-139222171D02*
X64534609Y-139222171D01*
X64677466Y-139745980D02*
X64201276Y-139745980D01*
X64201276Y-138745980D01*
X64677466Y-138745980D01*
X65106038Y-139745980D02*
X65106038Y-138745980D01*
X65106038Y-139126933D02*
X65201276Y-139079314D01*
X65391752Y-139079314D01*
X65486990Y-139126933D01*
X65534609Y-139174552D01*
X65582228Y-139269790D01*
X65582228Y-139555504D01*
X65534609Y-139650742D01*
X65486990Y-139698361D01*
X65391752Y-139745980D01*
X65201276Y-139745980D01*
X65106038Y-139698361D01*
X66391752Y-139698361D02*
X66296514Y-139745980D01*
X66106038Y-139745980D01*
X66010800Y-139698361D01*
X65963180Y-139603123D01*
X65963180Y-139222171D01*
X66010800Y-139126933D01*
X66106038Y-139079314D01*
X66296514Y-139079314D01*
X66391752Y-139126933D01*
X66439371Y-139222171D01*
X66439371Y-139317409D01*
X65963180Y-139412647D01*
X66867942Y-139745980D02*
X66867942Y-139079314D01*
X66867942Y-139269790D02*
X66915561Y-139174552D01*
X66963180Y-139126933D01*
X67058419Y-139079314D01*
X67153657Y-139079314D01*
X67344133Y-139079314D02*
X67725085Y-139079314D01*
X67486990Y-138745980D02*
X67486990Y-139603123D01*
X67534609Y-139698361D01*
X67629847Y-139745980D01*
X67725085Y-139745980D01*
%TO.C,J11*%
X132980180Y-122704123D02*
X133694466Y-122704123D01*
X133837323Y-122751742D01*
X133932561Y-122846980D01*
X133980180Y-122989838D01*
X133980180Y-123085076D01*
X133980180Y-121704123D02*
X133980180Y-122275552D01*
X133980180Y-121989838D02*
X132980180Y-121989838D01*
X133123038Y-122085076D01*
X133218276Y-122180314D01*
X133265895Y-122275552D01*
X133980180Y-120751742D02*
X133980180Y-121323171D01*
X133980180Y-121037457D02*
X132980180Y-121037457D01*
X133123038Y-121132695D01*
X133218276Y-121227933D01*
X133265895Y-121323171D01*
%TO.C,U1*%
X79926395Y-55606080D02*
X79926395Y-56415604D01*
X79974014Y-56510842D01*
X80021633Y-56558461D01*
X80116871Y-56606080D01*
X80307347Y-56606080D01*
X80402585Y-56558461D01*
X80450204Y-56510842D01*
X80497823Y-56415604D01*
X80497823Y-55606080D01*
X81497823Y-56606080D02*
X80926395Y-56606080D01*
X81212109Y-56606080D02*
X81212109Y-55606080D01*
X81116871Y-55748938D01*
X81021633Y-55844176D01*
X80926395Y-55891795D01*
%TO.C,C3*%
X102526442Y-57868366D02*
X102574061Y-57915985D01*
X102621680Y-58058842D01*
X102621680Y-58154080D01*
X102574061Y-58296938D01*
X102478823Y-58392176D01*
X102383585Y-58439795D01*
X102193109Y-58487414D01*
X102050252Y-58487414D01*
X101859776Y-58439795D01*
X101764538Y-58392176D01*
X101669300Y-58296938D01*
X101621680Y-58154080D01*
X101621680Y-58058842D01*
X101669300Y-57915985D01*
X101716919Y-57868366D01*
X101621680Y-57535033D02*
X101621680Y-56915985D01*
X102002633Y-57249319D01*
X102002633Y-57106461D01*
X102050252Y-57011223D01*
X102097871Y-56963604D01*
X102193109Y-56915985D01*
X102431204Y-56915985D01*
X102526442Y-56963604D01*
X102574061Y-57011223D01*
X102621680Y-57106461D01*
X102621680Y-57392176D01*
X102574061Y-57487414D01*
X102526442Y-57535033D01*
%TO.C,R8*%
X101476633Y-64016080D02*
X101143300Y-63539890D01*
X100905204Y-64016080D02*
X100905204Y-63016080D01*
X101286157Y-63016080D01*
X101381395Y-63063700D01*
X101429014Y-63111319D01*
X101476633Y-63206557D01*
X101476633Y-63349414D01*
X101429014Y-63444652D01*
X101381395Y-63492271D01*
X101286157Y-63539890D01*
X100905204Y-63539890D01*
X102048061Y-63444652D02*
X101952823Y-63397033D01*
X101905204Y-63349414D01*
X101857585Y-63254176D01*
X101857585Y-63206557D01*
X101905204Y-63111319D01*
X101952823Y-63063700D01*
X102048061Y-63016080D01*
X102238538Y-63016080D01*
X102333776Y-63063700D01*
X102381395Y-63111319D01*
X102429014Y-63206557D01*
X102429014Y-63254176D01*
X102381395Y-63349414D01*
X102333776Y-63397033D01*
X102238538Y-63444652D01*
X102048061Y-63444652D01*
X101952823Y-63492271D01*
X101905204Y-63539890D01*
X101857585Y-63635128D01*
X101857585Y-63825604D01*
X101905204Y-63920842D01*
X101952823Y-63968461D01*
X102048061Y-64016080D01*
X102238538Y-64016080D01*
X102333776Y-63968461D01*
X102381395Y-63920842D01*
X102429014Y-63825604D01*
X102429014Y-63635128D01*
X102381395Y-63539890D01*
X102333776Y-63492271D01*
X102238538Y-63444652D01*
%TO.C,Q3*%
X63916619Y-122904238D02*
X63869000Y-122999476D01*
X63773761Y-123094714D01*
X63630904Y-123237571D01*
X63583285Y-123332809D01*
X63583285Y-123428047D01*
X63821380Y-123380428D02*
X63773761Y-123475666D01*
X63678523Y-123570904D01*
X63488047Y-123618523D01*
X63154714Y-123618523D01*
X62964238Y-123570904D01*
X62869000Y-123475666D01*
X62821380Y-123380428D01*
X62821380Y-123189952D01*
X62869000Y-123094714D01*
X62964238Y-122999476D01*
X63154714Y-122951857D01*
X63488047Y-122951857D01*
X63678523Y-122999476D01*
X63773761Y-123094714D01*
X63821380Y-123189952D01*
X63821380Y-123380428D01*
X62821380Y-122618523D02*
X62821380Y-121999476D01*
X63202333Y-122332809D01*
X63202333Y-122189952D01*
X63249952Y-122094714D01*
X63297571Y-122047095D01*
X63392809Y-121999476D01*
X63630904Y-121999476D01*
X63726142Y-122047095D01*
X63773761Y-122094714D01*
X63821380Y-122189952D01*
X63821380Y-122475666D01*
X63773761Y-122570904D01*
X63726142Y-122618523D01*
%TO.C,R4*%
X62106633Y-81796080D02*
X61773300Y-81319890D01*
X61535204Y-81796080D02*
X61535204Y-80796080D01*
X61916157Y-80796080D01*
X62011395Y-80843700D01*
X62059014Y-80891319D01*
X62106633Y-80986557D01*
X62106633Y-81129414D01*
X62059014Y-81224652D01*
X62011395Y-81272271D01*
X61916157Y-81319890D01*
X61535204Y-81319890D01*
X62963776Y-81129414D02*
X62963776Y-81796080D01*
X62725680Y-80748461D02*
X62487585Y-81462747D01*
X63106633Y-81462747D01*
%TO.C,J5*%
X55419666Y-107573380D02*
X55419666Y-108287666D01*
X55372047Y-108430523D01*
X55276809Y-108525761D01*
X55133952Y-108573380D01*
X55038714Y-108573380D01*
X56372047Y-107573380D02*
X55895857Y-107573380D01*
X55848238Y-108049571D01*
X55895857Y-108001952D01*
X55991095Y-107954333D01*
X56229190Y-107954333D01*
X56324428Y-108001952D01*
X56372047Y-108049571D01*
X56419666Y-108144809D01*
X56419666Y-108382904D01*
X56372047Y-108478142D01*
X56324428Y-108525761D01*
X56229190Y-108573380D01*
X55991095Y-108573380D01*
X55895857Y-108525761D01*
X55848238Y-108478142D01*
%TO.C,R18*%
X116746780Y-103004857D02*
X116270590Y-103338190D01*
X116746780Y-103576285D02*
X115746780Y-103576285D01*
X115746780Y-103195333D01*
X115794400Y-103100095D01*
X115842019Y-103052476D01*
X115937257Y-103004857D01*
X116080114Y-103004857D01*
X116175352Y-103052476D01*
X116222971Y-103100095D01*
X116270590Y-103195333D01*
X116270590Y-103576285D01*
X116746780Y-102052476D02*
X116746780Y-102623904D01*
X116746780Y-102338190D02*
X115746780Y-102338190D01*
X115889638Y-102433428D01*
X115984876Y-102528666D01*
X116032495Y-102623904D01*
X116175352Y-101481047D02*
X116127733Y-101576285D01*
X116080114Y-101623904D01*
X115984876Y-101671523D01*
X115937257Y-101671523D01*
X115842019Y-101623904D01*
X115794400Y-101576285D01*
X115746780Y-101481047D01*
X115746780Y-101290571D01*
X115794400Y-101195333D01*
X115842019Y-101147714D01*
X115937257Y-101100095D01*
X115984876Y-101100095D01*
X116080114Y-101147714D01*
X116127733Y-101195333D01*
X116175352Y-101290571D01*
X116175352Y-101481047D01*
X116222971Y-101576285D01*
X116270590Y-101623904D01*
X116365828Y-101671523D01*
X116556304Y-101671523D01*
X116651542Y-101623904D01*
X116699161Y-101576285D01*
X116746780Y-101481047D01*
X116746780Y-101290571D01*
X116699161Y-101195333D01*
X116651542Y-101147714D01*
X116556304Y-101100095D01*
X116365828Y-101100095D01*
X116270590Y-101147714D01*
X116222971Y-101195333D01*
X116175352Y-101290571D01*
%TO.C,U3*%
X94744095Y-92827100D02*
X94744095Y-93636624D01*
X94791714Y-93731862D01*
X94839333Y-93779481D01*
X94934571Y-93827100D01*
X95125047Y-93827100D01*
X95220285Y-93779481D01*
X95267904Y-93731862D01*
X95315523Y-93636624D01*
X95315523Y-92827100D01*
X95696476Y-92827100D02*
X96315523Y-92827100D01*
X95982190Y-93208053D01*
X96125047Y-93208053D01*
X96220285Y-93255672D01*
X96267904Y-93303291D01*
X96315523Y-93398529D01*
X96315523Y-93636624D01*
X96267904Y-93731862D01*
X96220285Y-93779481D01*
X96125047Y-93827100D01*
X95839333Y-93827100D01*
X95744095Y-93779481D01*
X95696476Y-93731862D01*
X95434571Y-116444815D02*
X95434571Y-116111481D01*
X95958380Y-115968624D02*
X95958380Y-116444815D01*
X94958380Y-116444815D01*
X94958380Y-115968624D01*
X95910761Y-115587672D02*
X95958380Y-115444815D01*
X95958380Y-115206720D01*
X95910761Y-115111481D01*
X95863142Y-115063862D01*
X95767904Y-115016243D01*
X95672666Y-115016243D01*
X95577428Y-115063862D01*
X95529809Y-115111481D01*
X95482190Y-115206720D01*
X95434571Y-115397196D01*
X95386952Y-115492434D01*
X95339333Y-115540053D01*
X95244095Y-115587672D01*
X95148857Y-115587672D01*
X95053619Y-115540053D01*
X95006000Y-115492434D01*
X94958380Y-115397196D01*
X94958380Y-115159100D01*
X95006000Y-115016243D01*
X95958380Y-114587672D02*
X94958380Y-114587672D01*
X94958380Y-114206720D01*
X95006000Y-114111481D01*
X95053619Y-114063862D01*
X95148857Y-114016243D01*
X95291714Y-114016243D01*
X95386952Y-114063862D01*
X95434571Y-114111481D01*
X95482190Y-114206720D01*
X95482190Y-114587672D01*
X94958380Y-113682910D02*
X94958380Y-113063862D01*
X95339333Y-113397196D01*
X95339333Y-113254339D01*
X95386952Y-113159100D01*
X95434571Y-113111481D01*
X95529809Y-113063862D01*
X95767904Y-113063862D01*
X95863142Y-113111481D01*
X95910761Y-113159100D01*
X95958380Y-113254339D01*
X95958380Y-113540053D01*
X95910761Y-113635291D01*
X95863142Y-113682910D01*
X95053619Y-112682910D02*
X95006000Y-112635291D01*
X94958380Y-112540053D01*
X94958380Y-112301958D01*
X95006000Y-112206720D01*
X95053619Y-112159100D01*
X95148857Y-112111481D01*
X95244095Y-112111481D01*
X95386952Y-112159100D01*
X95958380Y-112730529D01*
X95958380Y-112111481D01*
X95577428Y-111682910D02*
X95577428Y-110921005D01*
X95958380Y-110444815D02*
X94958380Y-110444815D01*
X94958380Y-110206720D01*
X95006000Y-110063862D01*
X95101238Y-109968624D01*
X95196476Y-109921005D01*
X95386952Y-109873386D01*
X95529809Y-109873386D01*
X95720285Y-109921005D01*
X95815523Y-109968624D01*
X95910761Y-110063862D01*
X95958380Y-110206720D01*
X95958380Y-110444815D01*
X95910761Y-109063862D02*
X95958380Y-109159100D01*
X95958380Y-109349577D01*
X95910761Y-109444815D01*
X95815523Y-109492434D01*
X95434571Y-109492434D01*
X95339333Y-109444815D01*
X95291714Y-109349577D01*
X95291714Y-109159100D01*
X95339333Y-109063862D01*
X95434571Y-109016243D01*
X95529809Y-109016243D01*
X95625047Y-109492434D01*
X95291714Y-108682910D02*
X95958380Y-108444815D01*
X95291714Y-108206720D01*
X95434571Y-107492434D02*
X95482190Y-107349577D01*
X95529809Y-107301958D01*
X95625047Y-107254339D01*
X95767904Y-107254339D01*
X95863142Y-107301958D01*
X95910761Y-107349577D01*
X95958380Y-107444815D01*
X95958380Y-107825767D01*
X94958380Y-107825767D01*
X94958380Y-107492434D01*
X95006000Y-107397196D01*
X95053619Y-107349577D01*
X95148857Y-107301958D01*
X95244095Y-107301958D01*
X95339333Y-107349577D01*
X95386952Y-107397196D01*
X95434571Y-107492434D01*
X95434571Y-107825767D01*
X95958380Y-106682910D02*
X95910761Y-106778148D01*
X95863142Y-106825767D01*
X95767904Y-106873386D01*
X95482190Y-106873386D01*
X95386952Y-106825767D01*
X95339333Y-106778148D01*
X95291714Y-106682910D01*
X95291714Y-106540053D01*
X95339333Y-106444815D01*
X95386952Y-106397196D01*
X95482190Y-106349577D01*
X95767904Y-106349577D01*
X95863142Y-106397196D01*
X95910761Y-106444815D01*
X95958380Y-106540053D01*
X95958380Y-106682910D01*
X95958380Y-105492434D02*
X95434571Y-105492434D01*
X95339333Y-105540053D01*
X95291714Y-105635291D01*
X95291714Y-105825767D01*
X95339333Y-105921005D01*
X95910761Y-105492434D02*
X95958380Y-105587672D01*
X95958380Y-105825767D01*
X95910761Y-105921005D01*
X95815523Y-105968624D01*
X95720285Y-105968624D01*
X95625047Y-105921005D01*
X95577428Y-105825767D01*
X95577428Y-105587672D01*
X95529809Y-105492434D01*
X95958380Y-105016243D02*
X95291714Y-105016243D01*
X95482190Y-105016243D02*
X95386952Y-104968624D01*
X95339333Y-104921005D01*
X95291714Y-104825767D01*
X95291714Y-104730529D01*
X95958380Y-103968624D02*
X94958380Y-103968624D01*
X95910761Y-103968624D02*
X95958380Y-104063862D01*
X95958380Y-104254339D01*
X95910761Y-104349577D01*
X95863142Y-104397196D01*
X95767904Y-104444815D01*
X95482190Y-104444815D01*
X95386952Y-104397196D01*
X95339333Y-104349577D01*
X95291714Y-104254339D01*
X95291714Y-104063862D01*
X95339333Y-103968624D01*
X84305425Y-96159851D02*
X84638759Y-96159851D01*
X84781616Y-96683660D02*
X84305425Y-96683660D01*
X84305425Y-95683660D01*
X84781616Y-95683660D01*
X85210187Y-96683660D02*
X85210187Y-95683660D01*
X85781616Y-96683660D01*
X85781616Y-95683660D01*
X86972092Y-95636041D02*
X86114949Y-96921756D01*
X87876854Y-96683660D02*
X87543520Y-96207470D01*
X87305425Y-96683660D02*
X87305425Y-95683660D01*
X87686378Y-95683660D01*
X87781616Y-95731280D01*
X87829235Y-95778899D01*
X87876854Y-95874137D01*
X87876854Y-96016994D01*
X87829235Y-96112232D01*
X87781616Y-96159851D01*
X87686378Y-96207470D01*
X87305425Y-96207470D01*
X88305425Y-96159851D02*
X88638759Y-96159851D01*
X88781616Y-96683660D02*
X88305425Y-96683660D01*
X88305425Y-95683660D01*
X88781616Y-95683660D01*
X89162568Y-96636041D02*
X89305425Y-96683660D01*
X89543520Y-96683660D01*
X89638759Y-96636041D01*
X89686378Y-96588422D01*
X89733997Y-96493184D01*
X89733997Y-96397946D01*
X89686378Y-96302708D01*
X89638759Y-96255089D01*
X89543520Y-96207470D01*
X89353044Y-96159851D01*
X89257806Y-96112232D01*
X89210187Y-96064613D01*
X89162568Y-95969375D01*
X89162568Y-95874137D01*
X89210187Y-95778899D01*
X89257806Y-95731280D01*
X89353044Y-95683660D01*
X89591140Y-95683660D01*
X89733997Y-95731280D01*
X90162568Y-96159851D02*
X90495901Y-96159851D01*
X90638759Y-96683660D02*
X90162568Y-96683660D01*
X90162568Y-95683660D01*
X90638759Y-95683660D01*
X90924473Y-95683660D02*
X91495901Y-95683660D01*
X91210187Y-96683660D02*
X91210187Y-95683660D01*
X103571833Y-111124000D02*
X103505166Y-111090666D01*
X103405166Y-111090666D01*
X103305166Y-111124000D01*
X103238500Y-111190666D01*
X103205166Y-111257333D01*
X103171833Y-111390666D01*
X103171833Y-111490666D01*
X103205166Y-111624000D01*
X103238500Y-111690666D01*
X103305166Y-111757333D01*
X103405166Y-111790666D01*
X103471833Y-111790666D01*
X103571833Y-111757333D01*
X103605166Y-111724000D01*
X103605166Y-111490666D01*
X103471833Y-111490666D01*
X103905166Y-111790666D02*
X103905166Y-111090666D01*
X104171833Y-111090666D01*
X104238500Y-111124000D01*
X104271833Y-111157333D01*
X104305166Y-111224000D01*
X104305166Y-111324000D01*
X104271833Y-111390666D01*
X104238500Y-111424000D01*
X104171833Y-111457333D01*
X103905166Y-111457333D01*
X104605166Y-111790666D02*
X104605166Y-111090666D01*
X105071833Y-111090666D02*
X105205166Y-111090666D01*
X105271833Y-111124000D01*
X105338500Y-111190666D01*
X105371833Y-111324000D01*
X105371833Y-111557333D01*
X105338500Y-111690666D01*
X105271833Y-111757333D01*
X105205166Y-111790666D01*
X105071833Y-111790666D01*
X105005166Y-111757333D01*
X104938500Y-111690666D01*
X104905166Y-111557333D01*
X104905166Y-111324000D01*
X104938500Y-111190666D01*
X105005166Y-111124000D01*
X105071833Y-111090666D01*
X106038500Y-111790666D02*
X105638500Y-111790666D01*
X105838500Y-111790666D02*
X105838500Y-111090666D01*
X105771833Y-111190666D01*
X105705166Y-111257333D01*
X105638500Y-111290666D01*
X106438500Y-111390666D02*
X106371833Y-111357333D01*
X106338500Y-111324000D01*
X106305166Y-111257333D01*
X106305166Y-111224000D01*
X106338500Y-111157333D01*
X106371833Y-111124000D01*
X106438500Y-111090666D01*
X106571833Y-111090666D01*
X106638500Y-111124000D01*
X106671833Y-111157333D01*
X106705166Y-111224000D01*
X106705166Y-111257333D01*
X106671833Y-111324000D01*
X106638500Y-111357333D01*
X106571833Y-111390666D01*
X106438500Y-111390666D01*
X106371833Y-111424000D01*
X106338500Y-111457333D01*
X106305166Y-111524000D01*
X106305166Y-111657333D01*
X106338500Y-111724000D01*
X106371833Y-111757333D01*
X106438500Y-111790666D01*
X106571833Y-111790666D01*
X106638500Y-111757333D01*
X106671833Y-111724000D01*
X106705166Y-111657333D01*
X106705166Y-111524000D01*
X106671833Y-111457333D01*
X106638500Y-111424000D01*
X106571833Y-111390666D01*
X104238500Y-113664000D02*
X104171833Y-113630666D01*
X104071833Y-113630666D01*
X103971833Y-113664000D01*
X103905166Y-113730666D01*
X103871833Y-113797333D01*
X103838500Y-113930666D01*
X103838500Y-114030666D01*
X103871833Y-114164000D01*
X103905166Y-114230666D01*
X103971833Y-114297333D01*
X104071833Y-114330666D01*
X104138500Y-114330666D01*
X104238500Y-114297333D01*
X104271833Y-114264000D01*
X104271833Y-114030666D01*
X104138500Y-114030666D01*
X104571833Y-114330666D02*
X104571833Y-113630666D01*
X104838500Y-113630666D01*
X104905166Y-113664000D01*
X104938500Y-113697333D01*
X104971833Y-113764000D01*
X104971833Y-113864000D01*
X104938500Y-113930666D01*
X104905166Y-113964000D01*
X104838500Y-113997333D01*
X104571833Y-113997333D01*
X105271833Y-114330666D02*
X105271833Y-113630666D01*
X105738500Y-113630666D02*
X105871833Y-113630666D01*
X105938500Y-113664000D01*
X106005166Y-113730666D01*
X106038500Y-113864000D01*
X106038500Y-114097333D01*
X106005166Y-114230666D01*
X105938500Y-114297333D01*
X105871833Y-114330666D01*
X105738500Y-114330666D01*
X105671833Y-114297333D01*
X105605166Y-114230666D01*
X105571833Y-114097333D01*
X105571833Y-113864000D01*
X105605166Y-113730666D01*
X105671833Y-113664000D01*
X105738500Y-113630666D01*
X106671833Y-113630666D02*
X106338500Y-113630666D01*
X106305166Y-113964000D01*
X106338500Y-113930666D01*
X106405166Y-113897333D01*
X106571833Y-113897333D01*
X106638500Y-113930666D01*
X106671833Y-113964000D01*
X106705166Y-114030666D01*
X106705166Y-114197333D01*
X106671833Y-114264000D01*
X106638500Y-114297333D01*
X106571833Y-114330666D01*
X106405166Y-114330666D01*
X106338500Y-114297333D01*
X106305166Y-114264000D01*
X100071833Y-126366720D02*
X100005166Y-126333386D01*
X99905166Y-126333386D01*
X99805166Y-126366720D01*
X99738500Y-126433386D01*
X99705166Y-126500053D01*
X99671833Y-126633386D01*
X99671833Y-126733386D01*
X99705166Y-126866720D01*
X99738500Y-126933386D01*
X99805166Y-127000053D01*
X99905166Y-127033386D01*
X99971833Y-127033386D01*
X100071833Y-127000053D01*
X100105166Y-126966720D01*
X100105166Y-126733386D01*
X99971833Y-126733386D01*
X100405166Y-127033386D02*
X100405166Y-126333386D01*
X100671833Y-126333386D01*
X100738500Y-126366720D01*
X100771833Y-126400053D01*
X100805166Y-126466720D01*
X100805166Y-126566720D01*
X100771833Y-126633386D01*
X100738500Y-126666720D01*
X100671833Y-126700053D01*
X100405166Y-126700053D01*
X101105166Y-127033386D02*
X101105166Y-126333386D01*
X101571833Y-126333386D02*
X101705166Y-126333386D01*
X101771833Y-126366720D01*
X101838500Y-126433386D01*
X101871833Y-126566720D01*
X101871833Y-126800053D01*
X101838500Y-126933386D01*
X101771833Y-127000053D01*
X101705166Y-127033386D01*
X101571833Y-127033386D01*
X101505166Y-127000053D01*
X101438500Y-126933386D01*
X101405166Y-126800053D01*
X101405166Y-126566720D01*
X101438500Y-126433386D01*
X101505166Y-126366720D01*
X101571833Y-126333386D01*
X102538500Y-127033386D02*
X102138500Y-127033386D01*
X102338500Y-127033386D02*
X102338500Y-126333386D01*
X102271833Y-126433386D01*
X102205166Y-126500053D01*
X102138500Y-126533386D01*
X103171833Y-126333386D02*
X102838500Y-126333386D01*
X102805166Y-126666720D01*
X102838500Y-126633386D01*
X102905166Y-126600053D01*
X103071833Y-126600053D01*
X103138500Y-126633386D01*
X103171833Y-126666720D01*
X103205166Y-126733386D01*
X103205166Y-126900053D01*
X103171833Y-126966720D01*
X103138500Y-127000053D01*
X103071833Y-127033386D01*
X102905166Y-127033386D01*
X102838500Y-127000053D01*
X102805166Y-126966720D01*
X104005166Y-126300053D02*
X103405166Y-127200053D01*
X104238500Y-127033386D02*
X104238500Y-126333386D01*
X104471833Y-126833386D01*
X104705166Y-126333386D01*
X104705166Y-127033386D01*
X104938500Y-126333386D02*
X105338500Y-126333386D01*
X105138500Y-127033386D02*
X105138500Y-126333386D01*
X105571833Y-127033386D02*
X105571833Y-126333386D01*
X105738500Y-126333386D01*
X105838500Y-126366720D01*
X105905166Y-126433386D01*
X105938500Y-126500053D01*
X105971833Y-126633386D01*
X105971833Y-126733386D01*
X105938500Y-126866720D01*
X105905166Y-126933386D01*
X105838500Y-127000053D01*
X105738500Y-127033386D01*
X105571833Y-127033386D01*
X106405166Y-126333386D02*
X106538500Y-126333386D01*
X106605166Y-126366720D01*
X106671833Y-126433386D01*
X106705166Y-126566720D01*
X106705166Y-126800053D01*
X106671833Y-126933386D01*
X106605166Y-127000053D01*
X106538500Y-127033386D01*
X106405166Y-127033386D01*
X106338500Y-127000053D01*
X106271833Y-126933386D01*
X106238500Y-126800053D01*
X106238500Y-126566720D01*
X106271833Y-126433386D01*
X106338500Y-126366720D01*
X106405166Y-126333386D01*
X100034820Y-103504000D02*
X99968153Y-103470666D01*
X99868153Y-103470666D01*
X99768153Y-103504000D01*
X99701486Y-103570666D01*
X99668153Y-103637333D01*
X99634820Y-103770666D01*
X99634820Y-103870666D01*
X99668153Y-104004000D01*
X99701486Y-104070666D01*
X99768153Y-104137333D01*
X99868153Y-104170666D01*
X99934820Y-104170666D01*
X100034820Y-104137333D01*
X100068153Y-104104000D01*
X100068153Y-103870666D01*
X99934820Y-103870666D01*
X100368153Y-104170666D02*
X100368153Y-103470666D01*
X100634820Y-103470666D01*
X100701486Y-103504000D01*
X100734820Y-103537333D01*
X100768153Y-103604000D01*
X100768153Y-103704000D01*
X100734820Y-103770666D01*
X100701486Y-103804000D01*
X100634820Y-103837333D01*
X100368153Y-103837333D01*
X101068153Y-104170666D02*
X101068153Y-103470666D01*
X101534820Y-103470666D02*
X101668153Y-103470666D01*
X101734820Y-103504000D01*
X101801486Y-103570666D01*
X101834820Y-103704000D01*
X101834820Y-103937333D01*
X101801486Y-104070666D01*
X101734820Y-104137333D01*
X101668153Y-104170666D01*
X101534820Y-104170666D01*
X101468153Y-104137333D01*
X101401486Y-104070666D01*
X101368153Y-103937333D01*
X101368153Y-103704000D01*
X101401486Y-103570666D01*
X101468153Y-103504000D01*
X101534820Y-103470666D01*
X102068153Y-103470666D02*
X102501486Y-103470666D01*
X102268153Y-103737333D01*
X102368153Y-103737333D01*
X102434820Y-103770666D01*
X102468153Y-103804000D01*
X102501486Y-103870666D01*
X102501486Y-104037333D01*
X102468153Y-104104000D01*
X102434820Y-104137333D01*
X102368153Y-104170666D01*
X102168153Y-104170666D01*
X102101486Y-104137333D01*
X102068153Y-104104000D01*
X103301486Y-103437333D02*
X102701486Y-104337333D01*
X103534820Y-103470666D02*
X103534820Y-104037333D01*
X103568153Y-104104000D01*
X103601486Y-104137333D01*
X103668153Y-104170666D01*
X103801486Y-104170666D01*
X103868153Y-104137333D01*
X103901486Y-104104000D01*
X103934820Y-104037333D01*
X103934820Y-103470666D01*
X104401486Y-103470666D02*
X104468153Y-103470666D01*
X104534820Y-103504000D01*
X104568153Y-103537333D01*
X104601486Y-103604000D01*
X104634820Y-103737333D01*
X104634820Y-103904000D01*
X104601486Y-104037333D01*
X104568153Y-104104000D01*
X104534820Y-104137333D01*
X104468153Y-104170666D01*
X104401486Y-104170666D01*
X104334820Y-104137333D01*
X104301486Y-104104000D01*
X104268153Y-104037333D01*
X104234820Y-103904000D01*
X104234820Y-103737333D01*
X104268153Y-103604000D01*
X104301486Y-103537333D01*
X104334820Y-103504000D01*
X104401486Y-103470666D01*
X105334820Y-104170666D02*
X105101486Y-103837333D01*
X104934820Y-104170666D02*
X104934820Y-103470666D01*
X105201486Y-103470666D01*
X105268153Y-103504000D01*
X105301486Y-103537333D01*
X105334820Y-103604000D01*
X105334820Y-103704000D01*
X105301486Y-103770666D01*
X105268153Y-103804000D01*
X105201486Y-103837333D01*
X104934820Y-103837333D01*
X105568153Y-103470666D02*
X106034820Y-104170666D01*
X106034820Y-103470666D02*
X105568153Y-104170666D01*
X106301486Y-104170666D02*
X106301486Y-103470666D01*
X106468153Y-103470666D01*
X106568153Y-103504000D01*
X106634820Y-103570666D01*
X106668153Y-103637333D01*
X106701486Y-103770666D01*
X106701486Y-103870666D01*
X106668153Y-104004000D01*
X106634820Y-104070666D01*
X106568153Y-104137333D01*
X106468153Y-104170666D01*
X106301486Y-104170666D01*
X103568153Y-106044000D02*
X103501486Y-106010666D01*
X103401486Y-106010666D01*
X103301486Y-106044000D01*
X103234820Y-106110666D01*
X103201486Y-106177333D01*
X103168153Y-106310666D01*
X103168153Y-106410666D01*
X103201486Y-106544000D01*
X103234820Y-106610666D01*
X103301486Y-106677333D01*
X103401486Y-106710666D01*
X103468153Y-106710666D01*
X103568153Y-106677333D01*
X103601486Y-106644000D01*
X103601486Y-106410666D01*
X103468153Y-106410666D01*
X103901486Y-106710666D02*
X103901486Y-106010666D01*
X104168153Y-106010666D01*
X104234820Y-106044000D01*
X104268153Y-106077333D01*
X104301486Y-106144000D01*
X104301486Y-106244000D01*
X104268153Y-106310666D01*
X104234820Y-106344000D01*
X104168153Y-106377333D01*
X103901486Y-106377333D01*
X104601486Y-106710666D02*
X104601486Y-106010666D01*
X105068153Y-106010666D02*
X105201486Y-106010666D01*
X105268153Y-106044000D01*
X105334820Y-106110666D01*
X105368153Y-106244000D01*
X105368153Y-106477333D01*
X105334820Y-106610666D01*
X105268153Y-106677333D01*
X105201486Y-106710666D01*
X105068153Y-106710666D01*
X105001486Y-106677333D01*
X104934820Y-106610666D01*
X104901486Y-106477333D01*
X104901486Y-106244000D01*
X104934820Y-106110666D01*
X105001486Y-106044000D01*
X105068153Y-106010666D01*
X105634820Y-106077333D02*
X105668153Y-106044000D01*
X105734820Y-106010666D01*
X105901486Y-106010666D01*
X105968153Y-106044000D01*
X106001486Y-106077333D01*
X106034820Y-106144000D01*
X106034820Y-106210666D01*
X106001486Y-106310666D01*
X105601486Y-106710666D01*
X106034820Y-106710666D01*
X106701486Y-106710666D02*
X106301486Y-106710666D01*
X106501486Y-106710666D02*
X106501486Y-106010666D01*
X106434820Y-106110666D01*
X106368153Y-106177333D01*
X106301486Y-106210666D01*
X84703153Y-108584000D02*
X84636486Y-108550666D01*
X84536486Y-108550666D01*
X84436486Y-108584000D01*
X84369820Y-108650666D01*
X84336486Y-108717333D01*
X84303153Y-108850666D01*
X84303153Y-108950666D01*
X84336486Y-109084000D01*
X84369820Y-109150666D01*
X84436486Y-109217333D01*
X84536486Y-109250666D01*
X84603153Y-109250666D01*
X84703153Y-109217333D01*
X84736486Y-109184000D01*
X84736486Y-108950666D01*
X84603153Y-108950666D01*
X85036486Y-109250666D02*
X85036486Y-108550666D01*
X85303153Y-108550666D01*
X85369820Y-108584000D01*
X85403153Y-108617333D01*
X85436486Y-108684000D01*
X85436486Y-108784000D01*
X85403153Y-108850666D01*
X85369820Y-108884000D01*
X85303153Y-108917333D01*
X85036486Y-108917333D01*
X85736486Y-109250666D02*
X85736486Y-108550666D01*
X86203153Y-108550666D02*
X86336486Y-108550666D01*
X86403153Y-108584000D01*
X86469820Y-108650666D01*
X86503153Y-108784000D01*
X86503153Y-109017333D01*
X86469820Y-109150666D01*
X86403153Y-109217333D01*
X86336486Y-109250666D01*
X86203153Y-109250666D01*
X86136486Y-109217333D01*
X86069820Y-109150666D01*
X86036486Y-109017333D01*
X86036486Y-108784000D01*
X86069820Y-108650666D01*
X86136486Y-108584000D01*
X86203153Y-108550666D01*
X86736486Y-108550666D02*
X87169820Y-108550666D01*
X86936486Y-108817333D01*
X87036486Y-108817333D01*
X87103153Y-108850666D01*
X87136486Y-108884000D01*
X87169820Y-108950666D01*
X87169820Y-109117333D01*
X87136486Y-109184000D01*
X87103153Y-109217333D01*
X87036486Y-109250666D01*
X86836486Y-109250666D01*
X86769820Y-109217333D01*
X86736486Y-109184000D01*
X87436486Y-108617333D02*
X87469820Y-108584000D01*
X87536486Y-108550666D01*
X87703153Y-108550666D01*
X87769820Y-108584000D01*
X87803153Y-108617333D01*
X87836486Y-108684000D01*
X87836486Y-108750666D01*
X87803153Y-108850666D01*
X87403153Y-109250666D01*
X87836486Y-109250666D01*
X84703153Y-111124000D02*
X84636486Y-111090666D01*
X84536486Y-111090666D01*
X84436486Y-111124000D01*
X84369820Y-111190666D01*
X84336486Y-111257333D01*
X84303153Y-111390666D01*
X84303153Y-111490666D01*
X84336486Y-111624000D01*
X84369820Y-111690666D01*
X84436486Y-111757333D01*
X84536486Y-111790666D01*
X84603153Y-111790666D01*
X84703153Y-111757333D01*
X84736486Y-111724000D01*
X84736486Y-111490666D01*
X84603153Y-111490666D01*
X85036486Y-111790666D02*
X85036486Y-111090666D01*
X85303153Y-111090666D01*
X85369820Y-111124000D01*
X85403153Y-111157333D01*
X85436486Y-111224000D01*
X85436486Y-111324000D01*
X85403153Y-111390666D01*
X85369820Y-111424000D01*
X85303153Y-111457333D01*
X85036486Y-111457333D01*
X85736486Y-111790666D02*
X85736486Y-111090666D01*
X86203153Y-111090666D02*
X86336486Y-111090666D01*
X86403153Y-111124000D01*
X86469820Y-111190666D01*
X86503153Y-111324000D01*
X86503153Y-111557333D01*
X86469820Y-111690666D01*
X86403153Y-111757333D01*
X86336486Y-111790666D01*
X86203153Y-111790666D01*
X86136486Y-111757333D01*
X86069820Y-111690666D01*
X86036486Y-111557333D01*
X86036486Y-111324000D01*
X86069820Y-111190666D01*
X86136486Y-111124000D01*
X86203153Y-111090666D01*
X86736486Y-111090666D02*
X87169820Y-111090666D01*
X86936486Y-111357333D01*
X87036486Y-111357333D01*
X87103153Y-111390666D01*
X87136486Y-111424000D01*
X87169820Y-111490666D01*
X87169820Y-111657333D01*
X87136486Y-111724000D01*
X87103153Y-111757333D01*
X87036486Y-111790666D01*
X86836486Y-111790666D01*
X86769820Y-111757333D01*
X86736486Y-111724000D01*
X87403153Y-111090666D02*
X87836486Y-111090666D01*
X87603153Y-111357333D01*
X87703153Y-111357333D01*
X87769820Y-111390666D01*
X87803153Y-111424000D01*
X87836486Y-111490666D01*
X87836486Y-111657333D01*
X87803153Y-111724000D01*
X87769820Y-111757333D01*
X87703153Y-111790666D01*
X87503153Y-111790666D01*
X87436486Y-111757333D01*
X87403153Y-111724000D01*
X84703153Y-121284000D02*
X84636486Y-121250666D01*
X84536486Y-121250666D01*
X84436486Y-121284000D01*
X84369820Y-121350666D01*
X84336486Y-121417333D01*
X84303153Y-121550666D01*
X84303153Y-121650666D01*
X84336486Y-121784000D01*
X84369820Y-121850666D01*
X84436486Y-121917333D01*
X84536486Y-121950666D01*
X84603153Y-121950666D01*
X84703153Y-121917333D01*
X84736486Y-121884000D01*
X84736486Y-121650666D01*
X84603153Y-121650666D01*
X85036486Y-121950666D02*
X85036486Y-121250666D01*
X85303153Y-121250666D01*
X85369820Y-121284000D01*
X85403153Y-121317333D01*
X85436486Y-121384000D01*
X85436486Y-121484000D01*
X85403153Y-121550666D01*
X85369820Y-121584000D01*
X85303153Y-121617333D01*
X85036486Y-121617333D01*
X85736486Y-121950666D02*
X85736486Y-121250666D01*
X86203153Y-121250666D02*
X86336486Y-121250666D01*
X86403153Y-121284000D01*
X86469820Y-121350666D01*
X86503153Y-121484000D01*
X86503153Y-121717333D01*
X86469820Y-121850666D01*
X86403153Y-121917333D01*
X86336486Y-121950666D01*
X86203153Y-121950666D01*
X86136486Y-121917333D01*
X86069820Y-121850666D01*
X86036486Y-121717333D01*
X86036486Y-121484000D01*
X86069820Y-121350666D01*
X86136486Y-121284000D01*
X86203153Y-121250666D01*
X87169820Y-121950666D02*
X86769820Y-121950666D01*
X86969820Y-121950666D02*
X86969820Y-121250666D01*
X86903153Y-121350666D01*
X86836486Y-121417333D01*
X86769820Y-121450666D01*
X87769820Y-121484000D02*
X87769820Y-121950666D01*
X87603153Y-121217333D02*
X87436486Y-121717333D01*
X87869820Y-121717333D01*
X88636486Y-121217333D02*
X88036486Y-122117333D01*
X88869820Y-121950666D02*
X88869820Y-121250666D01*
X89103153Y-121750666D01*
X89336486Y-121250666D01*
X89336486Y-121950666D01*
X89569820Y-121250666D02*
X89969820Y-121250666D01*
X89769820Y-121950666D02*
X89769820Y-121250666D01*
X90203153Y-121950666D02*
X90203153Y-121250666D01*
X90436486Y-121750666D01*
X90669820Y-121250666D01*
X90669820Y-121950666D01*
X90969820Y-121917333D02*
X91069820Y-121950666D01*
X91236486Y-121950666D01*
X91303153Y-121917333D01*
X91336486Y-121884000D01*
X91369820Y-121817333D01*
X91369820Y-121750666D01*
X91336486Y-121684000D01*
X91303153Y-121650666D01*
X91236486Y-121617333D01*
X91103153Y-121584000D01*
X91036486Y-121550666D01*
X91003153Y-121517333D01*
X90969820Y-121450666D01*
X90969820Y-121384000D01*
X91003153Y-121317333D01*
X91036486Y-121284000D01*
X91103153Y-121250666D01*
X91269820Y-121250666D01*
X91369820Y-121284000D01*
X104238500Y-121284000D02*
X104171833Y-121250666D01*
X104071833Y-121250666D01*
X103971833Y-121284000D01*
X103905166Y-121350666D01*
X103871833Y-121417333D01*
X103838500Y-121550666D01*
X103838500Y-121650666D01*
X103871833Y-121784000D01*
X103905166Y-121850666D01*
X103971833Y-121917333D01*
X104071833Y-121950666D01*
X104138500Y-121950666D01*
X104238500Y-121917333D01*
X104271833Y-121884000D01*
X104271833Y-121650666D01*
X104138500Y-121650666D01*
X104571833Y-121950666D02*
X104571833Y-121250666D01*
X104838500Y-121250666D01*
X104905166Y-121284000D01*
X104938500Y-121317333D01*
X104971833Y-121384000D01*
X104971833Y-121484000D01*
X104938500Y-121550666D01*
X104905166Y-121584000D01*
X104838500Y-121617333D01*
X104571833Y-121617333D01*
X105271833Y-121950666D02*
X105271833Y-121250666D01*
X105738500Y-121250666D02*
X105871833Y-121250666D01*
X105938500Y-121284000D01*
X106005166Y-121350666D01*
X106038500Y-121484000D01*
X106038500Y-121717333D01*
X106005166Y-121850666D01*
X105938500Y-121917333D01*
X105871833Y-121950666D01*
X105738500Y-121950666D01*
X105671833Y-121917333D01*
X105605166Y-121850666D01*
X105571833Y-121717333D01*
X105571833Y-121484000D01*
X105605166Y-121350666D01*
X105671833Y-121284000D01*
X105738500Y-121250666D01*
X106638500Y-121484000D02*
X106638500Y-121950666D01*
X106471833Y-121217333D02*
X106305166Y-121717333D01*
X106738500Y-121717333D01*
X84703153Y-123824000D02*
X84636486Y-123790666D01*
X84536486Y-123790666D01*
X84436486Y-123824000D01*
X84369820Y-123890666D01*
X84336486Y-123957333D01*
X84303153Y-124090666D01*
X84303153Y-124190666D01*
X84336486Y-124324000D01*
X84369820Y-124390666D01*
X84436486Y-124457333D01*
X84536486Y-124490666D01*
X84603153Y-124490666D01*
X84703153Y-124457333D01*
X84736486Y-124424000D01*
X84736486Y-124190666D01*
X84603153Y-124190666D01*
X85036486Y-124490666D02*
X85036486Y-123790666D01*
X85303153Y-123790666D01*
X85369820Y-123824000D01*
X85403153Y-123857333D01*
X85436486Y-123924000D01*
X85436486Y-124024000D01*
X85403153Y-124090666D01*
X85369820Y-124124000D01*
X85303153Y-124157333D01*
X85036486Y-124157333D01*
X85736486Y-124490666D02*
X85736486Y-123790666D01*
X86203153Y-123790666D02*
X86336486Y-123790666D01*
X86403153Y-123824000D01*
X86469820Y-123890666D01*
X86503153Y-124024000D01*
X86503153Y-124257333D01*
X86469820Y-124390666D01*
X86403153Y-124457333D01*
X86336486Y-124490666D01*
X86203153Y-124490666D01*
X86136486Y-124457333D01*
X86069820Y-124390666D01*
X86036486Y-124257333D01*
X86036486Y-124024000D01*
X86069820Y-123890666D01*
X86136486Y-123824000D01*
X86203153Y-123790666D01*
X87169820Y-124490666D02*
X86769820Y-124490666D01*
X86969820Y-124490666D02*
X86969820Y-123790666D01*
X86903153Y-123890666D01*
X86836486Y-123957333D01*
X86769820Y-123990666D01*
X87436486Y-123857333D02*
X87469820Y-123824000D01*
X87536486Y-123790666D01*
X87703153Y-123790666D01*
X87769820Y-123824000D01*
X87803153Y-123857333D01*
X87836486Y-123924000D01*
X87836486Y-123990666D01*
X87803153Y-124090666D01*
X87403153Y-124490666D01*
X87836486Y-124490666D01*
X88636486Y-123757333D02*
X88036486Y-124657333D01*
X88869820Y-124490666D02*
X88869820Y-123790666D01*
X89103153Y-124290666D01*
X89336486Y-123790666D01*
X89336486Y-124490666D01*
X89569820Y-123790666D02*
X89969820Y-123790666D01*
X89769820Y-124490666D02*
X89769820Y-123790666D01*
X90203153Y-124490666D02*
X90203153Y-123790666D01*
X90369820Y-123790666D01*
X90469820Y-123824000D01*
X90536486Y-123890666D01*
X90569820Y-123957333D01*
X90603153Y-124090666D01*
X90603153Y-124190666D01*
X90569820Y-124324000D01*
X90536486Y-124390666D01*
X90469820Y-124457333D01*
X90369820Y-124490666D01*
X90203153Y-124490666D01*
X90903153Y-124490666D02*
X90903153Y-123790666D01*
X103571833Y-108584000D02*
X103505166Y-108550666D01*
X103405166Y-108550666D01*
X103305166Y-108584000D01*
X103238500Y-108650666D01*
X103205166Y-108717333D01*
X103171833Y-108850666D01*
X103171833Y-108950666D01*
X103205166Y-109084000D01*
X103238500Y-109150666D01*
X103305166Y-109217333D01*
X103405166Y-109250666D01*
X103471833Y-109250666D01*
X103571833Y-109217333D01*
X103605166Y-109184000D01*
X103605166Y-108950666D01*
X103471833Y-108950666D01*
X103905166Y-109250666D02*
X103905166Y-108550666D01*
X104171833Y-108550666D01*
X104238500Y-108584000D01*
X104271833Y-108617333D01*
X104305166Y-108684000D01*
X104305166Y-108784000D01*
X104271833Y-108850666D01*
X104238500Y-108884000D01*
X104171833Y-108917333D01*
X103905166Y-108917333D01*
X104605166Y-109250666D02*
X104605166Y-108550666D01*
X105071833Y-108550666D02*
X105205166Y-108550666D01*
X105271833Y-108584000D01*
X105338500Y-108650666D01*
X105371833Y-108784000D01*
X105371833Y-109017333D01*
X105338500Y-109150666D01*
X105271833Y-109217333D01*
X105205166Y-109250666D01*
X105071833Y-109250666D01*
X105005166Y-109217333D01*
X104938500Y-109150666D01*
X104905166Y-109017333D01*
X104905166Y-108784000D01*
X104938500Y-108650666D01*
X105005166Y-108584000D01*
X105071833Y-108550666D01*
X106038500Y-109250666D02*
X105638500Y-109250666D01*
X105838500Y-109250666D02*
X105838500Y-108550666D01*
X105771833Y-108650666D01*
X105705166Y-108717333D01*
X105638500Y-108750666D01*
X106371833Y-109250666D02*
X106505166Y-109250666D01*
X106571833Y-109217333D01*
X106605166Y-109184000D01*
X106671833Y-109084000D01*
X106705166Y-108950666D01*
X106705166Y-108684000D01*
X106671833Y-108617333D01*
X106638500Y-108584000D01*
X106571833Y-108550666D01*
X106438500Y-108550666D01*
X106371833Y-108584000D01*
X106338500Y-108617333D01*
X106305166Y-108684000D01*
X106305166Y-108850666D01*
X106338500Y-108917333D01*
X106371833Y-108950666D01*
X106438500Y-108984000D01*
X106571833Y-108984000D01*
X106638500Y-108950666D01*
X106671833Y-108917333D01*
X106705166Y-108850666D01*
X84236486Y-98390666D02*
X84469820Y-99090666D01*
X84703153Y-98390666D01*
X84936486Y-99090666D02*
X84936486Y-98390666D01*
X85203153Y-98390666D01*
X85269820Y-98424000D01*
X85303153Y-98457333D01*
X85336486Y-98524000D01*
X85336486Y-98624000D01*
X85303153Y-98690666D01*
X85269820Y-98724000D01*
X85203153Y-98757333D01*
X84936486Y-98757333D01*
X86136486Y-98357333D02*
X85536486Y-99257333D01*
X86736486Y-98424000D02*
X86669820Y-98390666D01*
X86569820Y-98390666D01*
X86469820Y-98424000D01*
X86403153Y-98490666D01*
X86369820Y-98557333D01*
X86336486Y-98690666D01*
X86336486Y-98790666D01*
X86369820Y-98924000D01*
X86403153Y-98990666D01*
X86469820Y-99057333D01*
X86569820Y-99090666D01*
X86636486Y-99090666D01*
X86736486Y-99057333D01*
X86769820Y-99024000D01*
X86769820Y-98790666D01*
X86636486Y-98790666D01*
X87069820Y-99090666D02*
X87069820Y-98390666D01*
X87336486Y-98390666D01*
X87403153Y-98424000D01*
X87436486Y-98457333D01*
X87469820Y-98524000D01*
X87469820Y-98624000D01*
X87436486Y-98690666D01*
X87403153Y-98724000D01*
X87336486Y-98757333D01*
X87069820Y-98757333D01*
X87769820Y-99090666D02*
X87769820Y-98390666D01*
X88236486Y-98390666D02*
X88369820Y-98390666D01*
X88436486Y-98424000D01*
X88503153Y-98490666D01*
X88536486Y-98624000D01*
X88536486Y-98857333D01*
X88503153Y-98990666D01*
X88436486Y-99057333D01*
X88369820Y-99090666D01*
X88236486Y-99090666D01*
X88169820Y-99057333D01*
X88103153Y-98990666D01*
X88069820Y-98857333D01*
X88069820Y-98624000D01*
X88103153Y-98490666D01*
X88169820Y-98424000D01*
X88236486Y-98390666D01*
X88769820Y-98390666D02*
X89203153Y-98390666D01*
X88969820Y-98657333D01*
X89069820Y-98657333D01*
X89136486Y-98690666D01*
X89169820Y-98724000D01*
X89203153Y-98790666D01*
X89203153Y-98957333D01*
X89169820Y-99024000D01*
X89136486Y-99057333D01*
X89069820Y-99090666D01*
X88869820Y-99090666D01*
X88803153Y-99057333D01*
X88769820Y-99024000D01*
X89803153Y-98390666D02*
X89669820Y-98390666D01*
X89603153Y-98424000D01*
X89569820Y-98457333D01*
X89503153Y-98557333D01*
X89469820Y-98690666D01*
X89469820Y-98957333D01*
X89503153Y-99024000D01*
X89536486Y-99057333D01*
X89603153Y-99090666D01*
X89736486Y-99090666D01*
X89803153Y-99057333D01*
X89836486Y-99024000D01*
X89869820Y-98957333D01*
X89869820Y-98790666D01*
X89836486Y-98724000D01*
X89803153Y-98690666D01*
X89736486Y-98657333D01*
X89603153Y-98657333D01*
X89536486Y-98690666D01*
X89503153Y-98724000D01*
X89469820Y-98790666D01*
X84703153Y-118744000D02*
X84636486Y-118710666D01*
X84536486Y-118710666D01*
X84436486Y-118744000D01*
X84369820Y-118810666D01*
X84336486Y-118877333D01*
X84303153Y-119010666D01*
X84303153Y-119110666D01*
X84336486Y-119244000D01*
X84369820Y-119310666D01*
X84436486Y-119377333D01*
X84536486Y-119410666D01*
X84603153Y-119410666D01*
X84703153Y-119377333D01*
X84736486Y-119344000D01*
X84736486Y-119110666D01*
X84603153Y-119110666D01*
X85036486Y-119410666D02*
X85036486Y-118710666D01*
X85303153Y-118710666D01*
X85369820Y-118744000D01*
X85403153Y-118777333D01*
X85436486Y-118844000D01*
X85436486Y-118944000D01*
X85403153Y-119010666D01*
X85369820Y-119044000D01*
X85303153Y-119077333D01*
X85036486Y-119077333D01*
X85736486Y-119410666D02*
X85736486Y-118710666D01*
X86203153Y-118710666D02*
X86336486Y-118710666D01*
X86403153Y-118744000D01*
X86469820Y-118810666D01*
X86503153Y-118944000D01*
X86503153Y-119177333D01*
X86469820Y-119310666D01*
X86403153Y-119377333D01*
X86336486Y-119410666D01*
X86203153Y-119410666D01*
X86136486Y-119377333D01*
X86069820Y-119310666D01*
X86036486Y-119177333D01*
X86036486Y-118944000D01*
X86069820Y-118810666D01*
X86136486Y-118744000D01*
X86203153Y-118710666D01*
X86769820Y-118777333D02*
X86803153Y-118744000D01*
X86869820Y-118710666D01*
X87036486Y-118710666D01*
X87103153Y-118744000D01*
X87136486Y-118777333D01*
X87169820Y-118844000D01*
X87169820Y-118910666D01*
X87136486Y-119010666D01*
X86736486Y-119410666D01*
X87169820Y-119410666D01*
X87403153Y-118710666D02*
X87869820Y-118710666D01*
X87569820Y-119410666D01*
X84703153Y-103504000D02*
X84636486Y-103470666D01*
X84536486Y-103470666D01*
X84436486Y-103504000D01*
X84369820Y-103570666D01*
X84336486Y-103637333D01*
X84303153Y-103770666D01*
X84303153Y-103870666D01*
X84336486Y-104004000D01*
X84369820Y-104070666D01*
X84436486Y-104137333D01*
X84536486Y-104170666D01*
X84603153Y-104170666D01*
X84703153Y-104137333D01*
X84736486Y-104104000D01*
X84736486Y-103870666D01*
X84603153Y-103870666D01*
X85036486Y-104170666D02*
X85036486Y-103470666D01*
X85303153Y-103470666D01*
X85369820Y-103504000D01*
X85403153Y-103537333D01*
X85436486Y-103604000D01*
X85436486Y-103704000D01*
X85403153Y-103770666D01*
X85369820Y-103804000D01*
X85303153Y-103837333D01*
X85036486Y-103837333D01*
X85736486Y-104170666D02*
X85736486Y-103470666D01*
X86203153Y-103470666D02*
X86336486Y-103470666D01*
X86403153Y-103504000D01*
X86469820Y-103570666D01*
X86503153Y-103704000D01*
X86503153Y-103937333D01*
X86469820Y-104070666D01*
X86403153Y-104137333D01*
X86336486Y-104170666D01*
X86203153Y-104170666D01*
X86136486Y-104137333D01*
X86069820Y-104070666D01*
X86036486Y-103937333D01*
X86036486Y-103704000D01*
X86069820Y-103570666D01*
X86136486Y-103504000D01*
X86203153Y-103470666D01*
X86736486Y-103470666D02*
X87169820Y-103470666D01*
X86936486Y-103737333D01*
X87036486Y-103737333D01*
X87103153Y-103770666D01*
X87136486Y-103804000D01*
X87169820Y-103870666D01*
X87169820Y-104037333D01*
X87136486Y-104104000D01*
X87103153Y-104137333D01*
X87036486Y-104170666D01*
X86836486Y-104170666D01*
X86769820Y-104137333D01*
X86736486Y-104104000D01*
X87769820Y-103704000D02*
X87769820Y-104170666D01*
X87603153Y-103437333D02*
X87436486Y-103937333D01*
X87869820Y-103937333D01*
X84236486Y-100930666D02*
X84469820Y-101630666D01*
X84703153Y-100930666D01*
X84936486Y-101630666D02*
X84936486Y-100930666D01*
X85336486Y-101630666D01*
X85336486Y-100930666D01*
X86169820Y-100897333D02*
X85569820Y-101797333D01*
X86769820Y-100964000D02*
X86703153Y-100930666D01*
X86603153Y-100930666D01*
X86503153Y-100964000D01*
X86436486Y-101030666D01*
X86403153Y-101097333D01*
X86369820Y-101230666D01*
X86369820Y-101330666D01*
X86403153Y-101464000D01*
X86436486Y-101530666D01*
X86503153Y-101597333D01*
X86603153Y-101630666D01*
X86669820Y-101630666D01*
X86769820Y-101597333D01*
X86803153Y-101564000D01*
X86803153Y-101330666D01*
X86669820Y-101330666D01*
X87103153Y-101630666D02*
X87103153Y-100930666D01*
X87369820Y-100930666D01*
X87436486Y-100964000D01*
X87469820Y-100997333D01*
X87503153Y-101064000D01*
X87503153Y-101164000D01*
X87469820Y-101230666D01*
X87436486Y-101264000D01*
X87369820Y-101297333D01*
X87103153Y-101297333D01*
X87803153Y-101630666D02*
X87803153Y-100930666D01*
X88269820Y-100930666D02*
X88403153Y-100930666D01*
X88469820Y-100964000D01*
X88536486Y-101030666D01*
X88569820Y-101164000D01*
X88569820Y-101397333D01*
X88536486Y-101530666D01*
X88469820Y-101597333D01*
X88403153Y-101630666D01*
X88269820Y-101630666D01*
X88203153Y-101597333D01*
X88136486Y-101530666D01*
X88103153Y-101397333D01*
X88103153Y-101164000D01*
X88136486Y-101030666D01*
X88203153Y-100964000D01*
X88269820Y-100930666D01*
X88803153Y-100930666D02*
X89236486Y-100930666D01*
X89003153Y-101197333D01*
X89103153Y-101197333D01*
X89169820Y-101230666D01*
X89203153Y-101264000D01*
X89236486Y-101330666D01*
X89236486Y-101497333D01*
X89203153Y-101564000D01*
X89169820Y-101597333D01*
X89103153Y-101630666D01*
X88903153Y-101630666D01*
X88836486Y-101597333D01*
X88803153Y-101564000D01*
X89569820Y-101630666D02*
X89703153Y-101630666D01*
X89769820Y-101597333D01*
X89803153Y-101564000D01*
X89869820Y-101464000D01*
X89903153Y-101330666D01*
X89903153Y-101064000D01*
X89869820Y-100997333D01*
X89836486Y-100964000D01*
X89769820Y-100930666D01*
X89636486Y-100930666D01*
X89569820Y-100964000D01*
X89536486Y-100997333D01*
X89503153Y-101064000D01*
X89503153Y-101230666D01*
X89536486Y-101297333D01*
X89569820Y-101330666D01*
X89636486Y-101364000D01*
X89769820Y-101364000D01*
X89836486Y-101330666D01*
X89869820Y-101297333D01*
X89903153Y-101230666D01*
X84703153Y-113664000D02*
X84636486Y-113630666D01*
X84536486Y-113630666D01*
X84436486Y-113664000D01*
X84369820Y-113730666D01*
X84336486Y-113797333D01*
X84303153Y-113930666D01*
X84303153Y-114030666D01*
X84336486Y-114164000D01*
X84369820Y-114230666D01*
X84436486Y-114297333D01*
X84536486Y-114330666D01*
X84603153Y-114330666D01*
X84703153Y-114297333D01*
X84736486Y-114264000D01*
X84736486Y-114030666D01*
X84603153Y-114030666D01*
X85036486Y-114330666D02*
X85036486Y-113630666D01*
X85303153Y-113630666D01*
X85369820Y-113664000D01*
X85403153Y-113697333D01*
X85436486Y-113764000D01*
X85436486Y-113864000D01*
X85403153Y-113930666D01*
X85369820Y-113964000D01*
X85303153Y-113997333D01*
X85036486Y-113997333D01*
X85736486Y-114330666D02*
X85736486Y-113630666D01*
X86203153Y-113630666D02*
X86336486Y-113630666D01*
X86403153Y-113664000D01*
X86469820Y-113730666D01*
X86503153Y-113864000D01*
X86503153Y-114097333D01*
X86469820Y-114230666D01*
X86403153Y-114297333D01*
X86336486Y-114330666D01*
X86203153Y-114330666D01*
X86136486Y-114297333D01*
X86069820Y-114230666D01*
X86036486Y-114097333D01*
X86036486Y-113864000D01*
X86069820Y-113730666D01*
X86136486Y-113664000D01*
X86203153Y-113630666D01*
X86769820Y-113697333D02*
X86803153Y-113664000D01*
X86869820Y-113630666D01*
X87036486Y-113630666D01*
X87103153Y-113664000D01*
X87136486Y-113697333D01*
X87169820Y-113764000D01*
X87169820Y-113830666D01*
X87136486Y-113930666D01*
X86736486Y-114330666D01*
X87169820Y-114330666D01*
X87803153Y-113630666D02*
X87469820Y-113630666D01*
X87436486Y-113964000D01*
X87469820Y-113930666D01*
X87536486Y-113897333D01*
X87703153Y-113897333D01*
X87769820Y-113930666D01*
X87803153Y-113964000D01*
X87836486Y-114030666D01*
X87836486Y-114197333D01*
X87803153Y-114264000D01*
X87769820Y-114297333D01*
X87703153Y-114330666D01*
X87536486Y-114330666D01*
X87469820Y-114297333D01*
X87436486Y-114264000D01*
X100201486Y-100964000D02*
X100134820Y-100930666D01*
X100034820Y-100930666D01*
X99934820Y-100964000D01*
X99868153Y-101030666D01*
X99834820Y-101097333D01*
X99801486Y-101230666D01*
X99801486Y-101330666D01*
X99834820Y-101464000D01*
X99868153Y-101530666D01*
X99934820Y-101597333D01*
X100034820Y-101630666D01*
X100101486Y-101630666D01*
X100201486Y-101597333D01*
X100234820Y-101564000D01*
X100234820Y-101330666D01*
X100101486Y-101330666D01*
X100534820Y-101630666D02*
X100534820Y-100930666D01*
X100801486Y-100930666D01*
X100868153Y-100964000D01*
X100901486Y-100997333D01*
X100934820Y-101064000D01*
X100934820Y-101164000D01*
X100901486Y-101230666D01*
X100868153Y-101264000D01*
X100801486Y-101297333D01*
X100534820Y-101297333D01*
X101234820Y-101630666D02*
X101234820Y-100930666D01*
X101701486Y-100930666D02*
X101834820Y-100930666D01*
X101901486Y-100964000D01*
X101968153Y-101030666D01*
X102001486Y-101164000D01*
X102001486Y-101397333D01*
X101968153Y-101530666D01*
X101901486Y-101597333D01*
X101834820Y-101630666D01*
X101701486Y-101630666D01*
X101634820Y-101597333D01*
X101568153Y-101530666D01*
X101534820Y-101397333D01*
X101534820Y-101164000D01*
X101568153Y-101030666D01*
X101634820Y-100964000D01*
X101701486Y-100930666D01*
X102668153Y-101630666D02*
X102268153Y-101630666D01*
X102468153Y-101630666D02*
X102468153Y-100930666D01*
X102401486Y-101030666D01*
X102334820Y-101097333D01*
X102268153Y-101130666D01*
X103468153Y-100897333D02*
X102868153Y-101797333D01*
X103701486Y-100930666D02*
X103701486Y-101497333D01*
X103734820Y-101564000D01*
X103768153Y-101597333D01*
X103834820Y-101630666D01*
X103968153Y-101630666D01*
X104034820Y-101597333D01*
X104068153Y-101564000D01*
X104101486Y-101497333D01*
X104101486Y-100930666D01*
X104568153Y-100930666D02*
X104634820Y-100930666D01*
X104701486Y-100964000D01*
X104734820Y-100997333D01*
X104768153Y-101064000D01*
X104801486Y-101197333D01*
X104801486Y-101364000D01*
X104768153Y-101497333D01*
X104734820Y-101564000D01*
X104701486Y-101597333D01*
X104634820Y-101630666D01*
X104568153Y-101630666D01*
X104501486Y-101597333D01*
X104468153Y-101564000D01*
X104434820Y-101497333D01*
X104401486Y-101364000D01*
X104401486Y-101197333D01*
X104434820Y-101064000D01*
X104468153Y-100997333D01*
X104501486Y-100964000D01*
X104568153Y-100930666D01*
X105001486Y-100930666D02*
X105401486Y-100930666D01*
X105201486Y-101630666D02*
X105201486Y-100930666D01*
X105568153Y-100930666D02*
X106034820Y-101630666D01*
X106034820Y-100930666D02*
X105568153Y-101630666D01*
X106301486Y-101630666D02*
X106301486Y-100930666D01*
X106468153Y-100930666D01*
X106568153Y-100964000D01*
X106634820Y-101030666D01*
X106668153Y-101097333D01*
X106701486Y-101230666D01*
X106701486Y-101330666D01*
X106668153Y-101464000D01*
X106634820Y-101530666D01*
X106568153Y-101597333D01*
X106468153Y-101630666D01*
X106301486Y-101630666D01*
X103571833Y-116204000D02*
X103505166Y-116170666D01*
X103405166Y-116170666D01*
X103305166Y-116204000D01*
X103238500Y-116270666D01*
X103205166Y-116337333D01*
X103171833Y-116470666D01*
X103171833Y-116570666D01*
X103205166Y-116704000D01*
X103238500Y-116770666D01*
X103305166Y-116837333D01*
X103405166Y-116870666D01*
X103471833Y-116870666D01*
X103571833Y-116837333D01*
X103605166Y-116804000D01*
X103605166Y-116570666D01*
X103471833Y-116570666D01*
X103905166Y-116870666D02*
X103905166Y-116170666D01*
X104171833Y-116170666D01*
X104238500Y-116204000D01*
X104271833Y-116237333D01*
X104305166Y-116304000D01*
X104305166Y-116404000D01*
X104271833Y-116470666D01*
X104238500Y-116504000D01*
X104171833Y-116537333D01*
X103905166Y-116537333D01*
X104605166Y-116870666D02*
X104605166Y-116170666D01*
X105071833Y-116170666D02*
X105205166Y-116170666D01*
X105271833Y-116204000D01*
X105338500Y-116270666D01*
X105371833Y-116404000D01*
X105371833Y-116637333D01*
X105338500Y-116770666D01*
X105271833Y-116837333D01*
X105205166Y-116870666D01*
X105071833Y-116870666D01*
X105005166Y-116837333D01*
X104938500Y-116770666D01*
X104905166Y-116637333D01*
X104905166Y-116404000D01*
X104938500Y-116270666D01*
X105005166Y-116204000D01*
X105071833Y-116170666D01*
X106038500Y-116870666D02*
X105638500Y-116870666D01*
X105838500Y-116870666D02*
X105838500Y-116170666D01*
X105771833Y-116270666D01*
X105705166Y-116337333D01*
X105638500Y-116370666D01*
X106271833Y-116170666D02*
X106738500Y-116170666D01*
X106438500Y-116870666D01*
X84265058Y-131500380D02*
X84598391Y-132500380D01*
X84931724Y-131500380D01*
X85265058Y-132500380D02*
X85265058Y-131833714D01*
X85265058Y-131500380D02*
X85217439Y-131548000D01*
X85265058Y-131595619D01*
X85312677Y-131548000D01*
X85265058Y-131500380D01*
X85265058Y-131595619D01*
X85741248Y-131833714D02*
X85741248Y-132500380D01*
X85741248Y-131928952D02*
X85788867Y-131881333D01*
X85884105Y-131833714D01*
X86026962Y-131833714D01*
X86122200Y-131881333D01*
X86169820Y-131976571D01*
X86169820Y-132500380D01*
X103571833Y-118744000D02*
X103505166Y-118710666D01*
X103405166Y-118710666D01*
X103305166Y-118744000D01*
X103238500Y-118810666D01*
X103205166Y-118877333D01*
X103171833Y-119010666D01*
X103171833Y-119110666D01*
X103205166Y-119244000D01*
X103238500Y-119310666D01*
X103305166Y-119377333D01*
X103405166Y-119410666D01*
X103471833Y-119410666D01*
X103571833Y-119377333D01*
X103605166Y-119344000D01*
X103605166Y-119110666D01*
X103471833Y-119110666D01*
X103905166Y-119410666D02*
X103905166Y-118710666D01*
X104171833Y-118710666D01*
X104238500Y-118744000D01*
X104271833Y-118777333D01*
X104305166Y-118844000D01*
X104305166Y-118944000D01*
X104271833Y-119010666D01*
X104238500Y-119044000D01*
X104171833Y-119077333D01*
X103905166Y-119077333D01*
X104605166Y-119410666D02*
X104605166Y-118710666D01*
X105071833Y-118710666D02*
X105205166Y-118710666D01*
X105271833Y-118744000D01*
X105338500Y-118810666D01*
X105371833Y-118944000D01*
X105371833Y-119177333D01*
X105338500Y-119310666D01*
X105271833Y-119377333D01*
X105205166Y-119410666D01*
X105071833Y-119410666D01*
X105005166Y-119377333D01*
X104938500Y-119310666D01*
X104905166Y-119177333D01*
X104905166Y-118944000D01*
X104938500Y-118810666D01*
X105005166Y-118744000D01*
X105071833Y-118710666D01*
X106038500Y-119410666D02*
X105638500Y-119410666D01*
X105838500Y-119410666D02*
X105838500Y-118710666D01*
X105771833Y-118810666D01*
X105705166Y-118877333D01*
X105638500Y-118910666D01*
X106638500Y-118710666D02*
X106505166Y-118710666D01*
X106438500Y-118744000D01*
X106405166Y-118777333D01*
X106338500Y-118877333D01*
X106305166Y-119010666D01*
X106305166Y-119277333D01*
X106338500Y-119344000D01*
X106371833Y-119377333D01*
X106438500Y-119410666D01*
X106571833Y-119410666D01*
X106638500Y-119377333D01*
X106671833Y-119344000D01*
X106705166Y-119277333D01*
X106705166Y-119110666D01*
X106671833Y-119044000D01*
X106638500Y-119010666D01*
X106571833Y-118977333D01*
X106438500Y-118977333D01*
X106371833Y-119010666D01*
X106338500Y-119044000D01*
X106305166Y-119110666D01*
X84706833Y-128906720D02*
X84640166Y-128873386D01*
X84540166Y-128873386D01*
X84440166Y-128906720D01*
X84373500Y-128973386D01*
X84340166Y-129040053D01*
X84306833Y-129173386D01*
X84306833Y-129273386D01*
X84340166Y-129406720D01*
X84373500Y-129473386D01*
X84440166Y-129540053D01*
X84540166Y-129573386D01*
X84606833Y-129573386D01*
X84706833Y-129540053D01*
X84740166Y-129506720D01*
X84740166Y-129273386D01*
X84606833Y-129273386D01*
X85040166Y-129573386D02*
X85040166Y-128873386D01*
X85440166Y-129573386D01*
X85440166Y-128873386D01*
X85773500Y-129573386D02*
X85773500Y-128873386D01*
X85940166Y-128873386D01*
X86040166Y-128906720D01*
X86106833Y-128973386D01*
X86140166Y-129040053D01*
X86173500Y-129173386D01*
X86173500Y-129273386D01*
X86140166Y-129406720D01*
X86106833Y-129473386D01*
X86040166Y-129540053D01*
X85940166Y-129573386D01*
X85773500Y-129573386D01*
X103279105Y-128754000D02*
X103183867Y-128706380D01*
X103041010Y-128706380D01*
X102898153Y-128754000D01*
X102802915Y-128849238D01*
X102755296Y-128944476D01*
X102707677Y-129134952D01*
X102707677Y-129277809D01*
X102755296Y-129468285D01*
X102802915Y-129563523D01*
X102898153Y-129658761D01*
X103041010Y-129706380D01*
X103136248Y-129706380D01*
X103279105Y-129658761D01*
X103326724Y-129611142D01*
X103326724Y-129277809D01*
X103136248Y-129277809D01*
X103755296Y-129706380D02*
X103755296Y-128706380D01*
X104326724Y-129706380D01*
X104326724Y-128706380D01*
X104802915Y-129706380D02*
X104802915Y-128706380D01*
X105041010Y-128706380D01*
X105183867Y-128754000D01*
X105279105Y-128849238D01*
X105326724Y-128944476D01*
X105374343Y-129134952D01*
X105374343Y-129277809D01*
X105326724Y-129468285D01*
X105279105Y-129563523D01*
X105183867Y-129658761D01*
X105041010Y-129706380D01*
X104802915Y-129706380D01*
X84703153Y-106044000D02*
X84636486Y-106010666D01*
X84536486Y-106010666D01*
X84436486Y-106044000D01*
X84369820Y-106110666D01*
X84336486Y-106177333D01*
X84303153Y-106310666D01*
X84303153Y-106410666D01*
X84336486Y-106544000D01*
X84369820Y-106610666D01*
X84436486Y-106677333D01*
X84536486Y-106710666D01*
X84603153Y-106710666D01*
X84703153Y-106677333D01*
X84736486Y-106644000D01*
X84736486Y-106410666D01*
X84603153Y-106410666D01*
X85036486Y-106710666D02*
X85036486Y-106010666D01*
X85303153Y-106010666D01*
X85369820Y-106044000D01*
X85403153Y-106077333D01*
X85436486Y-106144000D01*
X85436486Y-106244000D01*
X85403153Y-106310666D01*
X85369820Y-106344000D01*
X85303153Y-106377333D01*
X85036486Y-106377333D01*
X85736486Y-106710666D02*
X85736486Y-106010666D01*
X86203153Y-106010666D02*
X86336486Y-106010666D01*
X86403153Y-106044000D01*
X86469820Y-106110666D01*
X86503153Y-106244000D01*
X86503153Y-106477333D01*
X86469820Y-106610666D01*
X86403153Y-106677333D01*
X86336486Y-106710666D01*
X86203153Y-106710666D01*
X86136486Y-106677333D01*
X86069820Y-106610666D01*
X86036486Y-106477333D01*
X86036486Y-106244000D01*
X86069820Y-106110666D01*
X86136486Y-106044000D01*
X86203153Y-106010666D01*
X86736486Y-106010666D02*
X87169820Y-106010666D01*
X86936486Y-106277333D01*
X87036486Y-106277333D01*
X87103153Y-106310666D01*
X87136486Y-106344000D01*
X87169820Y-106410666D01*
X87169820Y-106577333D01*
X87136486Y-106644000D01*
X87103153Y-106677333D01*
X87036486Y-106710666D01*
X86836486Y-106710666D01*
X86769820Y-106677333D01*
X86736486Y-106644000D01*
X87803153Y-106010666D02*
X87469820Y-106010666D01*
X87436486Y-106344000D01*
X87469820Y-106310666D01*
X87536486Y-106277333D01*
X87703153Y-106277333D01*
X87769820Y-106310666D01*
X87803153Y-106344000D01*
X87836486Y-106410666D01*
X87836486Y-106577333D01*
X87803153Y-106644000D01*
X87769820Y-106677333D01*
X87703153Y-106710666D01*
X87536486Y-106710666D01*
X87469820Y-106677333D01*
X87436486Y-106644000D01*
X105005166Y-131413386D02*
X105438500Y-131413386D01*
X105205166Y-131680053D01*
X105305166Y-131680053D01*
X105371833Y-131713386D01*
X105405166Y-131746720D01*
X105438500Y-131813386D01*
X105438500Y-131980053D01*
X105405166Y-132046720D01*
X105371833Y-132080053D01*
X105305166Y-132113386D01*
X105105166Y-132113386D01*
X105038500Y-132080053D01*
X105005166Y-132046720D01*
X105638500Y-131413386D02*
X105871833Y-132113386D01*
X106105166Y-131413386D01*
X106271833Y-131413386D02*
X106705166Y-131413386D01*
X106471833Y-131680053D01*
X106571833Y-131680053D01*
X106638500Y-131713386D01*
X106671833Y-131746720D01*
X106705166Y-131813386D01*
X106705166Y-131980053D01*
X106671833Y-132046720D01*
X106638500Y-132080053D01*
X106571833Y-132113386D01*
X106371833Y-132113386D01*
X106305166Y-132080053D01*
X106271833Y-132046720D01*
X104238500Y-123826720D02*
X104171833Y-123793386D01*
X104071833Y-123793386D01*
X103971833Y-123826720D01*
X103905166Y-123893386D01*
X103871833Y-123960053D01*
X103838500Y-124093386D01*
X103838500Y-124193386D01*
X103871833Y-124326720D01*
X103905166Y-124393386D01*
X103971833Y-124460053D01*
X104071833Y-124493386D01*
X104138500Y-124493386D01*
X104238500Y-124460053D01*
X104271833Y-124426720D01*
X104271833Y-124193386D01*
X104138500Y-124193386D01*
X104571833Y-124493386D02*
X104571833Y-123793386D01*
X104838500Y-123793386D01*
X104905166Y-123826720D01*
X104938500Y-123860053D01*
X104971833Y-123926720D01*
X104971833Y-124026720D01*
X104938500Y-124093386D01*
X104905166Y-124126720D01*
X104838500Y-124160053D01*
X104571833Y-124160053D01*
X105271833Y-124493386D02*
X105271833Y-123793386D01*
X105738500Y-123793386D02*
X105871833Y-123793386D01*
X105938500Y-123826720D01*
X106005166Y-123893386D01*
X106038500Y-124026720D01*
X106038500Y-124260053D01*
X106005166Y-124393386D01*
X105938500Y-124460053D01*
X105871833Y-124493386D01*
X105738500Y-124493386D01*
X105671833Y-124460053D01*
X105605166Y-124393386D01*
X105571833Y-124260053D01*
X105571833Y-124026720D01*
X105605166Y-123893386D01*
X105671833Y-123826720D01*
X105738500Y-123793386D01*
X106305166Y-123860053D02*
X106338500Y-123826720D01*
X106405166Y-123793386D01*
X106571833Y-123793386D01*
X106638500Y-123826720D01*
X106671833Y-123860053D01*
X106705166Y-123926720D01*
X106705166Y-123993386D01*
X106671833Y-124093386D01*
X106271833Y-124493386D01*
X106705166Y-124493386D01*
X84703153Y-126364000D02*
X84636486Y-126330666D01*
X84536486Y-126330666D01*
X84436486Y-126364000D01*
X84369820Y-126430666D01*
X84336486Y-126497333D01*
X84303153Y-126630666D01*
X84303153Y-126730666D01*
X84336486Y-126864000D01*
X84369820Y-126930666D01*
X84436486Y-126997333D01*
X84536486Y-127030666D01*
X84603153Y-127030666D01*
X84703153Y-126997333D01*
X84736486Y-126964000D01*
X84736486Y-126730666D01*
X84603153Y-126730666D01*
X85036486Y-127030666D02*
X85036486Y-126330666D01*
X85303153Y-126330666D01*
X85369820Y-126364000D01*
X85403153Y-126397333D01*
X85436486Y-126464000D01*
X85436486Y-126564000D01*
X85403153Y-126630666D01*
X85369820Y-126664000D01*
X85303153Y-126697333D01*
X85036486Y-126697333D01*
X85736486Y-127030666D02*
X85736486Y-126330666D01*
X86203153Y-126330666D02*
X86336486Y-126330666D01*
X86403153Y-126364000D01*
X86469820Y-126430666D01*
X86503153Y-126564000D01*
X86503153Y-126797333D01*
X86469820Y-126930666D01*
X86403153Y-126997333D01*
X86336486Y-127030666D01*
X86203153Y-127030666D01*
X86136486Y-126997333D01*
X86069820Y-126930666D01*
X86036486Y-126797333D01*
X86036486Y-126564000D01*
X86069820Y-126430666D01*
X86136486Y-126364000D01*
X86203153Y-126330666D01*
X87169820Y-127030666D02*
X86769820Y-127030666D01*
X86969820Y-127030666D02*
X86969820Y-126330666D01*
X86903153Y-126430666D01*
X86836486Y-126497333D01*
X86769820Y-126530666D01*
X87403153Y-126330666D02*
X87836486Y-126330666D01*
X87603153Y-126597333D01*
X87703153Y-126597333D01*
X87769820Y-126630666D01*
X87803153Y-126664000D01*
X87836486Y-126730666D01*
X87836486Y-126897333D01*
X87803153Y-126964000D01*
X87769820Y-126997333D01*
X87703153Y-127030666D01*
X87503153Y-127030666D01*
X87436486Y-126997333D01*
X87403153Y-126964000D01*
X88636486Y-126297333D02*
X88036486Y-127197333D01*
X88869820Y-127030666D02*
X88869820Y-126330666D01*
X89103153Y-126830666D01*
X89336486Y-126330666D01*
X89336486Y-127030666D01*
X89569820Y-126330666D02*
X89969820Y-126330666D01*
X89769820Y-127030666D02*
X89769820Y-126330666D01*
X90603153Y-126964000D02*
X90569820Y-126997333D01*
X90469820Y-127030666D01*
X90403153Y-127030666D01*
X90303153Y-126997333D01*
X90236486Y-126930666D01*
X90203153Y-126864000D01*
X90169820Y-126730666D01*
X90169820Y-126630666D01*
X90203153Y-126497333D01*
X90236486Y-126430666D01*
X90303153Y-126364000D01*
X90403153Y-126330666D01*
X90469820Y-126330666D01*
X90569820Y-126364000D01*
X90603153Y-126397333D01*
X90903153Y-127030666D02*
X90903153Y-126330666D01*
X91303153Y-127030666D02*
X91003153Y-126630666D01*
X91303153Y-126330666D02*
X90903153Y-126730666D01*
X103568153Y-95884000D02*
X103501486Y-95850666D01*
X103401486Y-95850666D01*
X103301486Y-95884000D01*
X103234820Y-95950666D01*
X103201486Y-96017333D01*
X103168153Y-96150666D01*
X103168153Y-96250666D01*
X103201486Y-96384000D01*
X103234820Y-96450666D01*
X103301486Y-96517333D01*
X103401486Y-96550666D01*
X103468153Y-96550666D01*
X103568153Y-96517333D01*
X103601486Y-96484000D01*
X103601486Y-96250666D01*
X103468153Y-96250666D01*
X103901486Y-96550666D02*
X103901486Y-95850666D01*
X104168153Y-95850666D01*
X104234820Y-95884000D01*
X104268153Y-95917333D01*
X104301486Y-95984000D01*
X104301486Y-96084000D01*
X104268153Y-96150666D01*
X104234820Y-96184000D01*
X104168153Y-96217333D01*
X103901486Y-96217333D01*
X104601486Y-96550666D02*
X104601486Y-95850666D01*
X105068153Y-95850666D02*
X105201486Y-95850666D01*
X105268153Y-95884000D01*
X105334820Y-95950666D01*
X105368153Y-96084000D01*
X105368153Y-96317333D01*
X105334820Y-96450666D01*
X105268153Y-96517333D01*
X105201486Y-96550666D01*
X105068153Y-96550666D01*
X105001486Y-96517333D01*
X104934820Y-96450666D01*
X104901486Y-96317333D01*
X104901486Y-96084000D01*
X104934820Y-95950666D01*
X105001486Y-95884000D01*
X105068153Y-95850666D01*
X105634820Y-95917333D02*
X105668153Y-95884000D01*
X105734820Y-95850666D01*
X105901486Y-95850666D01*
X105968153Y-95884000D01*
X106001486Y-95917333D01*
X106034820Y-95984000D01*
X106034820Y-96050666D01*
X106001486Y-96150666D01*
X105601486Y-96550666D01*
X106034820Y-96550666D01*
X106268153Y-95850666D02*
X106701486Y-95850666D01*
X106468153Y-96117333D01*
X106568153Y-96117333D01*
X106634820Y-96150666D01*
X106668153Y-96184000D01*
X106701486Y-96250666D01*
X106701486Y-96417333D01*
X106668153Y-96484000D01*
X106634820Y-96517333D01*
X106568153Y-96550666D01*
X106368153Y-96550666D01*
X106301486Y-96517333D01*
X106268153Y-96484000D01*
X84703153Y-116204000D02*
X84636486Y-116170666D01*
X84536486Y-116170666D01*
X84436486Y-116204000D01*
X84369820Y-116270666D01*
X84336486Y-116337333D01*
X84303153Y-116470666D01*
X84303153Y-116570666D01*
X84336486Y-116704000D01*
X84369820Y-116770666D01*
X84436486Y-116837333D01*
X84536486Y-116870666D01*
X84603153Y-116870666D01*
X84703153Y-116837333D01*
X84736486Y-116804000D01*
X84736486Y-116570666D01*
X84603153Y-116570666D01*
X85036486Y-116870666D02*
X85036486Y-116170666D01*
X85303153Y-116170666D01*
X85369820Y-116204000D01*
X85403153Y-116237333D01*
X85436486Y-116304000D01*
X85436486Y-116404000D01*
X85403153Y-116470666D01*
X85369820Y-116504000D01*
X85303153Y-116537333D01*
X85036486Y-116537333D01*
X85736486Y-116870666D02*
X85736486Y-116170666D01*
X86203153Y-116170666D02*
X86336486Y-116170666D01*
X86403153Y-116204000D01*
X86469820Y-116270666D01*
X86503153Y-116404000D01*
X86503153Y-116637333D01*
X86469820Y-116770666D01*
X86403153Y-116837333D01*
X86336486Y-116870666D01*
X86203153Y-116870666D01*
X86136486Y-116837333D01*
X86069820Y-116770666D01*
X86036486Y-116637333D01*
X86036486Y-116404000D01*
X86069820Y-116270666D01*
X86136486Y-116204000D01*
X86203153Y-116170666D01*
X86769820Y-116237333D02*
X86803153Y-116204000D01*
X86869820Y-116170666D01*
X87036486Y-116170666D01*
X87103153Y-116204000D01*
X87136486Y-116237333D01*
X87169820Y-116304000D01*
X87169820Y-116370666D01*
X87136486Y-116470666D01*
X86736486Y-116870666D01*
X87169820Y-116870666D01*
X87769820Y-116170666D02*
X87636486Y-116170666D01*
X87569820Y-116204000D01*
X87536486Y-116237333D01*
X87469820Y-116337333D01*
X87436486Y-116470666D01*
X87436486Y-116737333D01*
X87469820Y-116804000D01*
X87503153Y-116837333D01*
X87569820Y-116870666D01*
X87703153Y-116870666D01*
X87769820Y-116837333D01*
X87803153Y-116804000D01*
X87836486Y-116737333D01*
X87836486Y-116570666D01*
X87803153Y-116504000D01*
X87769820Y-116470666D01*
X87703153Y-116437333D01*
X87569820Y-116437333D01*
X87503153Y-116470666D01*
X87469820Y-116504000D01*
X87436486Y-116570666D01*
X103568153Y-98424000D02*
X103501486Y-98390666D01*
X103401486Y-98390666D01*
X103301486Y-98424000D01*
X103234820Y-98490666D01*
X103201486Y-98557333D01*
X103168153Y-98690666D01*
X103168153Y-98790666D01*
X103201486Y-98924000D01*
X103234820Y-98990666D01*
X103301486Y-99057333D01*
X103401486Y-99090666D01*
X103468153Y-99090666D01*
X103568153Y-99057333D01*
X103601486Y-99024000D01*
X103601486Y-98790666D01*
X103468153Y-98790666D01*
X103901486Y-99090666D02*
X103901486Y-98390666D01*
X104168153Y-98390666D01*
X104234820Y-98424000D01*
X104268153Y-98457333D01*
X104301486Y-98524000D01*
X104301486Y-98624000D01*
X104268153Y-98690666D01*
X104234820Y-98724000D01*
X104168153Y-98757333D01*
X103901486Y-98757333D01*
X104601486Y-99090666D02*
X104601486Y-98390666D01*
X105068153Y-98390666D02*
X105201486Y-98390666D01*
X105268153Y-98424000D01*
X105334820Y-98490666D01*
X105368153Y-98624000D01*
X105368153Y-98857333D01*
X105334820Y-98990666D01*
X105268153Y-99057333D01*
X105201486Y-99090666D01*
X105068153Y-99090666D01*
X105001486Y-99057333D01*
X104934820Y-98990666D01*
X104901486Y-98857333D01*
X104901486Y-98624000D01*
X104934820Y-98490666D01*
X105001486Y-98424000D01*
X105068153Y-98390666D01*
X105634820Y-98457333D02*
X105668153Y-98424000D01*
X105734820Y-98390666D01*
X105901486Y-98390666D01*
X105968153Y-98424000D01*
X106001486Y-98457333D01*
X106034820Y-98524000D01*
X106034820Y-98590666D01*
X106001486Y-98690666D01*
X105601486Y-99090666D01*
X106034820Y-99090666D01*
X106301486Y-98457333D02*
X106334820Y-98424000D01*
X106401486Y-98390666D01*
X106568153Y-98390666D01*
X106634820Y-98424000D01*
X106668153Y-98457333D01*
X106701486Y-98524000D01*
X106701486Y-98590666D01*
X106668153Y-98690666D01*
X106268153Y-99090666D01*
X106701486Y-99090666D01*
%TO.C,D1*%
X57605704Y-90190580D02*
X57605704Y-89190580D01*
X57843800Y-89190580D01*
X57986657Y-89238200D01*
X58081895Y-89333438D01*
X58129514Y-89428676D01*
X58177133Y-89619152D01*
X58177133Y-89762009D01*
X58129514Y-89952485D01*
X58081895Y-90047723D01*
X57986657Y-90142961D01*
X57843800Y-90190580D01*
X57605704Y-90190580D01*
X59129514Y-90190580D02*
X58558085Y-90190580D01*
X58843800Y-90190580D02*
X58843800Y-89190580D01*
X58748561Y-89333438D01*
X58653323Y-89428676D01*
X58558085Y-89476295D01*
%TO.C,C5*%
X58820442Y-73910366D02*
X58868061Y-73957985D01*
X58915680Y-74100842D01*
X58915680Y-74196080D01*
X58868061Y-74338938D01*
X58772823Y-74434176D01*
X58677585Y-74481795D01*
X58487109Y-74529414D01*
X58344252Y-74529414D01*
X58153776Y-74481795D01*
X58058538Y-74434176D01*
X57963300Y-74338938D01*
X57915680Y-74196080D01*
X57915680Y-74100842D01*
X57963300Y-73957985D01*
X58010919Y-73910366D01*
X57915680Y-73005604D02*
X57915680Y-73481795D01*
X58391871Y-73529414D01*
X58344252Y-73481795D01*
X58296633Y-73386557D01*
X58296633Y-73148461D01*
X58344252Y-73053223D01*
X58391871Y-73005604D01*
X58487109Y-72957985D01*
X58725204Y-72957985D01*
X58820442Y-73005604D01*
X58868061Y-73053223D01*
X58915680Y-73148461D01*
X58915680Y-73386557D01*
X58868061Y-73481795D01*
X58820442Y-73529414D01*
%TO.C,C4*%
X98335442Y-58015366D02*
X98383061Y-58062985D01*
X98430680Y-58205842D01*
X98430680Y-58301080D01*
X98383061Y-58443938D01*
X98287823Y-58539176D01*
X98192585Y-58586795D01*
X98002109Y-58634414D01*
X97859252Y-58634414D01*
X97668776Y-58586795D01*
X97573538Y-58539176D01*
X97478300Y-58443938D01*
X97430680Y-58301080D01*
X97430680Y-58205842D01*
X97478300Y-58062985D01*
X97525919Y-58015366D01*
X97764014Y-57158223D02*
X98430680Y-57158223D01*
X97383061Y-57396319D02*
X98097347Y-57634414D01*
X98097347Y-57015366D01*
%TO.C,R14*%
X121526142Y-126436380D02*
X121192809Y-125960190D01*
X120954714Y-126436380D02*
X120954714Y-125436380D01*
X121335666Y-125436380D01*
X121430904Y-125484000D01*
X121478523Y-125531619D01*
X121526142Y-125626857D01*
X121526142Y-125769714D01*
X121478523Y-125864952D01*
X121430904Y-125912571D01*
X121335666Y-125960190D01*
X120954714Y-125960190D01*
X122478523Y-126436380D02*
X121907095Y-126436380D01*
X122192809Y-126436380D02*
X122192809Y-125436380D01*
X122097571Y-125579238D01*
X122002333Y-125674476D01*
X121907095Y-125722095D01*
X123335666Y-125769714D02*
X123335666Y-126436380D01*
X123097571Y-125388761D02*
X122859476Y-126103047D01*
X123478523Y-126103047D01*
%TO.C,D2*%
X57605704Y-110586780D02*
X57605704Y-109586780D01*
X57843800Y-109586780D01*
X57986657Y-109634400D01*
X58081895Y-109729638D01*
X58129514Y-109824876D01*
X58177133Y-110015352D01*
X58177133Y-110158209D01*
X58129514Y-110348685D01*
X58081895Y-110443923D01*
X57986657Y-110539161D01*
X57843800Y-110586780D01*
X57605704Y-110586780D01*
X58558085Y-109682019D02*
X58605704Y-109634400D01*
X58700942Y-109586780D01*
X58939038Y-109586780D01*
X59034276Y-109634400D01*
X59081895Y-109682019D01*
X59129514Y-109777257D01*
X59129514Y-109872495D01*
X59081895Y-110015352D01*
X58510466Y-110586780D01*
X59129514Y-110586780D01*
%TO.C,U2*%
X118033895Y-67087580D02*
X118033895Y-67897104D01*
X118081514Y-67992342D01*
X118129133Y-68039961D01*
X118224371Y-68087580D01*
X118414847Y-68087580D01*
X118510085Y-68039961D01*
X118557704Y-67992342D01*
X118605323Y-67897104D01*
X118605323Y-67087580D01*
X119033895Y-67182819D02*
X119081514Y-67135200D01*
X119176752Y-67087580D01*
X119414847Y-67087580D01*
X119510085Y-67135200D01*
X119557704Y-67182819D01*
X119605323Y-67278057D01*
X119605323Y-67373295D01*
X119557704Y-67516152D01*
X118986276Y-68087580D01*
X119605323Y-68087580D01*
%TO.C,R13*%
X113609380Y-140596857D02*
X113133190Y-140930190D01*
X113609380Y-141168285D02*
X112609380Y-141168285D01*
X112609380Y-140787333D01*
X112657000Y-140692095D01*
X112704619Y-140644476D01*
X112799857Y-140596857D01*
X112942714Y-140596857D01*
X113037952Y-140644476D01*
X113085571Y-140692095D01*
X113133190Y-140787333D01*
X113133190Y-141168285D01*
X113609380Y-139644476D02*
X113609380Y-140215904D01*
X113609380Y-139930190D02*
X112609380Y-139930190D01*
X112752238Y-140025428D01*
X112847476Y-140120666D01*
X112895095Y-140215904D01*
X112609380Y-139311142D02*
X112609380Y-138692095D01*
X112990333Y-139025428D01*
X112990333Y-138882571D01*
X113037952Y-138787333D01*
X113085571Y-138739714D01*
X113180809Y-138692095D01*
X113418904Y-138692095D01*
X113514142Y-138739714D01*
X113561761Y-138787333D01*
X113609380Y-138882571D01*
X113609380Y-139168285D01*
X113561761Y-139263523D01*
X113514142Y-139311142D01*
%TO.C,H3*%
X50546095Y-141062380D02*
X50546095Y-140062380D01*
X50546095Y-140538571D02*
X51117523Y-140538571D01*
X51117523Y-141062380D02*
X51117523Y-140062380D01*
X51498476Y-140062380D02*
X52117523Y-140062380D01*
X51784190Y-140443333D01*
X51927047Y-140443333D01*
X52022285Y-140490952D01*
X52069904Y-140538571D01*
X52117523Y-140633809D01*
X52117523Y-140871904D01*
X52069904Y-140967142D01*
X52022285Y-141014761D01*
X51927047Y-141062380D01*
X51641333Y-141062380D01*
X51546095Y-141014761D01*
X51498476Y-140967142D01*
%TO.C,J10*%
X128070076Y-116205780D02*
X128070076Y-116920066D01*
X128022457Y-117062923D01*
X127927219Y-117158161D01*
X127784361Y-117205780D01*
X127689123Y-117205780D01*
X129070076Y-117205780D02*
X128498647Y-117205780D01*
X128784361Y-117205780D02*
X128784361Y-116205780D01*
X128689123Y-116348638D01*
X128593885Y-116443876D01*
X128498647Y-116491495D01*
X129689123Y-116205780D02*
X129784361Y-116205780D01*
X129879600Y-116253400D01*
X129927219Y-116301019D01*
X129974838Y-116396257D01*
X130022457Y-116586733D01*
X130022457Y-116824828D01*
X129974838Y-117015304D01*
X129927219Y-117110542D01*
X129879600Y-117158161D01*
X129784361Y-117205780D01*
X129689123Y-117205780D01*
X129593885Y-117158161D01*
X129546266Y-117110542D01*
X129498647Y-117015304D01*
X129451028Y-116824828D01*
X129451028Y-116586733D01*
X129498647Y-116396257D01*
X129546266Y-116301019D01*
X129593885Y-116253400D01*
X129689123Y-116205780D01*
%TO.C,R9*%
X70683380Y-92876666D02*
X70207190Y-93210000D01*
X70683380Y-93448095D02*
X69683380Y-93448095D01*
X69683380Y-93067142D01*
X69731000Y-92971904D01*
X69778619Y-92924285D01*
X69873857Y-92876666D01*
X70016714Y-92876666D01*
X70111952Y-92924285D01*
X70159571Y-92971904D01*
X70207190Y-93067142D01*
X70207190Y-93448095D01*
X70683380Y-92400476D02*
X70683380Y-92210000D01*
X70635761Y-92114761D01*
X70588142Y-92067142D01*
X70445285Y-91971904D01*
X70254809Y-91924285D01*
X69873857Y-91924285D01*
X69778619Y-91971904D01*
X69731000Y-92019523D01*
X69683380Y-92114761D01*
X69683380Y-92305238D01*
X69731000Y-92400476D01*
X69778619Y-92448095D01*
X69873857Y-92495714D01*
X70111952Y-92495714D01*
X70207190Y-92448095D01*
X70254809Y-92400476D01*
X70302428Y-92305238D01*
X70302428Y-92114761D01*
X70254809Y-92019523D01*
X70207190Y-91971904D01*
X70111952Y-91924285D01*
%TO.C,H2*%
X135128095Y-49876380D02*
X135128095Y-48876380D01*
X135128095Y-49352571D02*
X135699523Y-49352571D01*
X135699523Y-49876380D02*
X135699523Y-48876380D01*
X136128095Y-48971619D02*
X136175714Y-48924000D01*
X136270952Y-48876380D01*
X136509047Y-48876380D01*
X136604285Y-48924000D01*
X136651904Y-48971619D01*
X136699523Y-49066857D01*
X136699523Y-49162095D01*
X136651904Y-49304952D01*
X136080476Y-49876380D01*
X136699523Y-49876380D01*
%TO.C,RV4*%
X93840680Y-73683938D02*
X93364490Y-74017271D01*
X93840680Y-74255366D02*
X92840680Y-74255366D01*
X92840680Y-73874414D01*
X92888300Y-73779176D01*
X92935919Y-73731557D01*
X93031157Y-73683938D01*
X93174014Y-73683938D01*
X93269252Y-73731557D01*
X93316871Y-73779176D01*
X93364490Y-73874414D01*
X93364490Y-74255366D01*
X92840680Y-73398223D02*
X93840680Y-73064890D01*
X92840680Y-72731557D01*
X93174014Y-71969652D02*
X93840680Y-71969652D01*
X92793061Y-72207747D02*
X93507347Y-72445842D01*
X93507347Y-71826795D01*
%TO.C,J2*%
X117901180Y-62410933D02*
X118615466Y-62410933D01*
X118758323Y-62458552D01*
X118853561Y-62553790D01*
X118901180Y-62696647D01*
X118901180Y-62791885D01*
X117996419Y-61982361D02*
X117948800Y-61934742D01*
X117901180Y-61839504D01*
X117901180Y-61601409D01*
X117948800Y-61506171D01*
X117996419Y-61458552D01*
X118091657Y-61410933D01*
X118186895Y-61410933D01*
X118329752Y-61458552D01*
X118901180Y-62029980D01*
X118901180Y-61410933D01*
%TO.C,Q1*%
X127699619Y-114496838D02*
X127652000Y-114592076D01*
X127556761Y-114687314D01*
X127413904Y-114830171D01*
X127366285Y-114925409D01*
X127366285Y-115020647D01*
X127604380Y-114973028D02*
X127556761Y-115068266D01*
X127461523Y-115163504D01*
X127271047Y-115211123D01*
X126937714Y-115211123D01*
X126747238Y-115163504D01*
X126652000Y-115068266D01*
X126604380Y-114973028D01*
X126604380Y-114782552D01*
X126652000Y-114687314D01*
X126747238Y-114592076D01*
X126937714Y-114544457D01*
X127271047Y-114544457D01*
X127461523Y-114592076D01*
X127556761Y-114687314D01*
X127604380Y-114782552D01*
X127604380Y-114973028D01*
X127604380Y-113592076D02*
X127604380Y-114163504D01*
X127604380Y-113877790D02*
X126604380Y-113877790D01*
X126747238Y-113973028D01*
X126842476Y-114068266D01*
X126890095Y-114163504D01*
%TO.C,D3*%
X57605704Y-96946980D02*
X57605704Y-95946980D01*
X57843800Y-95946980D01*
X57986657Y-95994600D01*
X58081895Y-96089838D01*
X58129514Y-96185076D01*
X58177133Y-96375552D01*
X58177133Y-96518409D01*
X58129514Y-96708885D01*
X58081895Y-96804123D01*
X57986657Y-96899361D01*
X57843800Y-96946980D01*
X57605704Y-96946980D01*
X58510466Y-95946980D02*
X59129514Y-95946980D01*
X58796180Y-96327933D01*
X58939038Y-96327933D01*
X59034276Y-96375552D01*
X59081895Y-96423171D01*
X59129514Y-96518409D01*
X59129514Y-96756504D01*
X59081895Y-96851742D01*
X59034276Y-96899361D01*
X58939038Y-96946980D01*
X58653323Y-96946980D01*
X58558085Y-96899361D01*
X58510466Y-96851742D01*
%TO.C,R15*%
X74598380Y-121978657D02*
X74122190Y-122311990D01*
X74598380Y-122550085D02*
X73598380Y-122550085D01*
X73598380Y-122169133D01*
X73646000Y-122073895D01*
X73693619Y-122026276D01*
X73788857Y-121978657D01*
X73931714Y-121978657D01*
X74026952Y-122026276D01*
X74074571Y-122073895D01*
X74122190Y-122169133D01*
X74122190Y-122550085D01*
X74598380Y-121026276D02*
X74598380Y-121597704D01*
X74598380Y-121311990D02*
X73598380Y-121311990D01*
X73741238Y-121407228D01*
X73836476Y-121502466D01*
X73884095Y-121597704D01*
X73598380Y-120121514D02*
X73598380Y-120597704D01*
X74074571Y-120645323D01*
X74026952Y-120597704D01*
X73979333Y-120502466D01*
X73979333Y-120264371D01*
X74026952Y-120169133D01*
X74074571Y-120121514D01*
X74169809Y-120073895D01*
X74407904Y-120073895D01*
X74503142Y-120121514D01*
X74550761Y-120169133D01*
X74598380Y-120264371D01*
X74598380Y-120502466D01*
X74550761Y-120597704D01*
X74503142Y-120645323D01*
%TO.C,R1*%
X62106633Y-51486080D02*
X61773300Y-51009890D01*
X61535204Y-51486080D02*
X61535204Y-50486080D01*
X61916157Y-50486080D01*
X62011395Y-50533700D01*
X62059014Y-50581319D01*
X62106633Y-50676557D01*
X62106633Y-50819414D01*
X62059014Y-50914652D01*
X62011395Y-50962271D01*
X61916157Y-51009890D01*
X61535204Y-51009890D01*
X63059014Y-51486080D02*
X62487585Y-51486080D01*
X62773300Y-51486080D02*
X62773300Y-50486080D01*
X62678061Y-50628938D01*
X62582823Y-50724176D01*
X62487585Y-50771795D01*
%TO.C,J7*%
X128851066Y-96708980D02*
X128851066Y-97423266D01*
X128803447Y-97566123D01*
X128708209Y-97661361D01*
X128565352Y-97708980D01*
X128470114Y-97708980D01*
X129232019Y-96708980D02*
X129898685Y-96708980D01*
X129470114Y-97708980D01*
%TO.C,R20*%
X116552380Y-116593857D02*
X116076190Y-116927190D01*
X116552380Y-117165285D02*
X115552380Y-117165285D01*
X115552380Y-116784333D01*
X115600000Y-116689095D01*
X115647619Y-116641476D01*
X115742857Y-116593857D01*
X115885714Y-116593857D01*
X115980952Y-116641476D01*
X116028571Y-116689095D01*
X116076190Y-116784333D01*
X116076190Y-117165285D01*
X115647619Y-116212904D02*
X115600000Y-116165285D01*
X115552380Y-116070047D01*
X115552380Y-115831952D01*
X115600000Y-115736714D01*
X115647619Y-115689095D01*
X115742857Y-115641476D01*
X115838095Y-115641476D01*
X115980952Y-115689095D01*
X116552380Y-116260523D01*
X116552380Y-115641476D01*
X115552380Y-115022428D02*
X115552380Y-114927190D01*
X115600000Y-114831952D01*
X115647619Y-114784333D01*
X115742857Y-114736714D01*
X115933333Y-114689095D01*
X116171428Y-114689095D01*
X116361904Y-114736714D01*
X116457142Y-114784333D01*
X116504761Y-114831952D01*
X116552380Y-114927190D01*
X116552380Y-115022428D01*
X116504761Y-115117666D01*
X116457142Y-115165285D01*
X116361904Y-115212904D01*
X116171428Y-115260523D01*
X115933333Y-115260523D01*
X115742857Y-115212904D01*
X115647619Y-115165285D01*
X115600000Y-115117666D01*
X115552380Y-115022428D01*
%TO.C,R11*%
X75466380Y-107830857D02*
X74990190Y-108164190D01*
X75466380Y-108402285D02*
X74466380Y-108402285D01*
X74466380Y-108021333D01*
X74514000Y-107926095D01*
X74561619Y-107878476D01*
X74656857Y-107830857D01*
X74799714Y-107830857D01*
X74894952Y-107878476D01*
X74942571Y-107926095D01*
X74990190Y-108021333D01*
X74990190Y-108402285D01*
X75466380Y-106878476D02*
X75466380Y-107449904D01*
X75466380Y-107164190D02*
X74466380Y-107164190D01*
X74609238Y-107259428D01*
X74704476Y-107354666D01*
X74752095Y-107449904D01*
X75466380Y-105926095D02*
X75466380Y-106497523D01*
X75466380Y-106211809D02*
X74466380Y-106211809D01*
X74609238Y-106307047D01*
X74704476Y-106402285D01*
X74752095Y-106497523D01*
%TO.C,R21*%
X131447980Y-86698057D02*
X130971790Y-87031390D01*
X131447980Y-87269485D02*
X130447980Y-87269485D01*
X130447980Y-86888533D01*
X130495600Y-86793295D01*
X130543219Y-86745676D01*
X130638457Y-86698057D01*
X130781314Y-86698057D01*
X130876552Y-86745676D01*
X130924171Y-86793295D01*
X130971790Y-86888533D01*
X130971790Y-87269485D01*
X130543219Y-86317104D02*
X130495600Y-86269485D01*
X130447980Y-86174247D01*
X130447980Y-85936152D01*
X130495600Y-85840914D01*
X130543219Y-85793295D01*
X130638457Y-85745676D01*
X130733695Y-85745676D01*
X130876552Y-85793295D01*
X131447980Y-86364723D01*
X131447980Y-85745676D01*
X131447980Y-84793295D02*
X131447980Y-85364723D01*
X131447980Y-85079009D02*
X130447980Y-85079009D01*
X130590838Y-85174247D01*
X130686076Y-85269485D01*
X130733695Y-85364723D01*
%TO.C,R3*%
X60201633Y-64016080D02*
X59868300Y-63539890D01*
X59630204Y-64016080D02*
X59630204Y-63016080D01*
X60011157Y-63016080D01*
X60106395Y-63063700D01*
X60154014Y-63111319D01*
X60201633Y-63206557D01*
X60201633Y-63349414D01*
X60154014Y-63444652D01*
X60106395Y-63492271D01*
X60011157Y-63539890D01*
X59630204Y-63539890D01*
X60534966Y-63016080D02*
X61154014Y-63016080D01*
X60820680Y-63397033D01*
X60963538Y-63397033D01*
X61058776Y-63444652D01*
X61106395Y-63492271D01*
X61154014Y-63587509D01*
X61154014Y-63825604D01*
X61106395Y-63920842D01*
X61058776Y-63968461D01*
X60963538Y-64016080D01*
X60677823Y-64016080D01*
X60582585Y-63968461D01*
X60534966Y-63920842D01*
%TO.C,RV2*%
X93840680Y-59713938D02*
X93364490Y-60047271D01*
X93840680Y-60285366D02*
X92840680Y-60285366D01*
X92840680Y-59904414D01*
X92888300Y-59809176D01*
X92935919Y-59761557D01*
X93031157Y-59713938D01*
X93174014Y-59713938D01*
X93269252Y-59761557D01*
X93316871Y-59809176D01*
X93364490Y-59904414D01*
X93364490Y-60285366D01*
X92840680Y-59428223D02*
X93840680Y-59094890D01*
X92840680Y-58761557D01*
X92935919Y-58475842D02*
X92888300Y-58428223D01*
X92840680Y-58332985D01*
X92840680Y-58094890D01*
X92888300Y-57999652D01*
X92935919Y-57952033D01*
X93031157Y-57904414D01*
X93126395Y-57904414D01*
X93269252Y-57952033D01*
X93840680Y-58523461D01*
X93840680Y-57904414D01*
%TO.C,C2*%
X63900442Y-58650366D02*
X63948061Y-58697985D01*
X63995680Y-58840842D01*
X63995680Y-58936080D01*
X63948061Y-59078938D01*
X63852823Y-59174176D01*
X63757585Y-59221795D01*
X63567109Y-59269414D01*
X63424252Y-59269414D01*
X63233776Y-59221795D01*
X63138538Y-59174176D01*
X63043300Y-59078938D01*
X62995680Y-58936080D01*
X62995680Y-58840842D01*
X63043300Y-58697985D01*
X63090919Y-58650366D01*
X63090919Y-58269414D02*
X63043300Y-58221795D01*
X62995680Y-58126557D01*
X62995680Y-57888461D01*
X63043300Y-57793223D01*
X63090919Y-57745604D01*
X63186157Y-57697985D01*
X63281395Y-57697985D01*
X63424252Y-57745604D01*
X63995680Y-58317033D01*
X63995680Y-57697985D01*
%TO.C,DISP1*%
X135326380Y-139391780D02*
X134326380Y-139391780D01*
X134326380Y-139153685D01*
X134374000Y-139010828D01*
X134469238Y-138915590D01*
X134564476Y-138867971D01*
X134754952Y-138820352D01*
X134897809Y-138820352D01*
X135088285Y-138867971D01*
X135183523Y-138915590D01*
X135278761Y-139010828D01*
X135326380Y-139153685D01*
X135326380Y-139391780D01*
X135326380Y-138391780D02*
X134326380Y-138391780D01*
X135278761Y-137963209D02*
X135326380Y-137820352D01*
X135326380Y-137582257D01*
X135278761Y-137487019D01*
X135231142Y-137439400D01*
X135135904Y-137391780D01*
X135040666Y-137391780D01*
X134945428Y-137439400D01*
X134897809Y-137487019D01*
X134850190Y-137582257D01*
X134802571Y-137772733D01*
X134754952Y-137867971D01*
X134707333Y-137915590D01*
X134612095Y-137963209D01*
X134516857Y-137963209D01*
X134421619Y-137915590D01*
X134374000Y-137867971D01*
X134326380Y-137772733D01*
X134326380Y-137534638D01*
X134374000Y-137391780D01*
X135326380Y-136963209D02*
X134326380Y-136963209D01*
X134326380Y-136582257D01*
X134374000Y-136487019D01*
X134421619Y-136439400D01*
X134516857Y-136391780D01*
X134659714Y-136391780D01*
X134754952Y-136439400D01*
X134802571Y-136487019D01*
X134850190Y-136582257D01*
X134850190Y-136963209D01*
X135326380Y-135439400D02*
X135326380Y-136010828D01*
X135326380Y-135725114D02*
X134326380Y-135725114D01*
X134469238Y-135820352D01*
X134564476Y-135915590D01*
X134612095Y-136010828D01*
%TO.C,C10*%
X120074763Y-75967142D02*
X120027144Y-76014761D01*
X119884287Y-76062380D01*
X119789049Y-76062380D01*
X119646192Y-76014761D01*
X119550954Y-75919523D01*
X119503335Y-75824285D01*
X119455716Y-75633809D01*
X119455716Y-75490952D01*
X119503335Y-75300476D01*
X119550954Y-75205238D01*
X119646192Y-75110000D01*
X119789049Y-75062380D01*
X119884287Y-75062380D01*
X120027144Y-75110000D01*
X120074763Y-75157619D01*
X121027144Y-76062380D02*
X120455716Y-76062380D01*
X120741430Y-76062380D02*
X120741430Y-75062380D01*
X120646192Y-75205238D01*
X120550954Y-75300476D01*
X120455716Y-75348095D01*
X121646192Y-75062380D02*
X121741430Y-75062380D01*
X121836668Y-75110000D01*
X121884287Y-75157619D01*
X121931906Y-75252857D01*
X121979525Y-75443333D01*
X121979525Y-75681428D01*
X121931906Y-75871904D01*
X121884287Y-75967142D01*
X121836668Y-76014761D01*
X121741430Y-76062380D01*
X121646192Y-76062380D01*
X121550954Y-76014761D01*
X121503335Y-75967142D01*
X121455716Y-75871904D01*
X121408097Y-75681428D01*
X121408097Y-75443333D01*
X121455716Y-75252857D01*
X121503335Y-75157619D01*
X121550954Y-75110000D01*
X121646192Y-75062380D01*
%TO.C,J6*%
X112696666Y-92948380D02*
X112696666Y-93662666D01*
X112649047Y-93805523D01*
X112553809Y-93900761D01*
X112410952Y-93948380D01*
X112315714Y-93948380D01*
X113601428Y-92948380D02*
X113410952Y-92948380D01*
X113315714Y-92996000D01*
X113268095Y-93043619D01*
X113172857Y-93186476D01*
X113125238Y-93376952D01*
X113125238Y-93757904D01*
X113172857Y-93853142D01*
X113220476Y-93900761D01*
X113315714Y-93948380D01*
X113506190Y-93948380D01*
X113601428Y-93900761D01*
X113649047Y-93853142D01*
X113696666Y-93757904D01*
X113696666Y-93519809D01*
X113649047Y-93424571D01*
X113601428Y-93376952D01*
X113506190Y-93329333D01*
X113315714Y-93329333D01*
X113220476Y-93376952D01*
X113172857Y-93424571D01*
X113125238Y-93519809D01*
%TO.C,R19*%
X126209142Y-123515380D02*
X125875809Y-123039190D01*
X125637714Y-123515380D02*
X125637714Y-122515380D01*
X126018666Y-122515380D01*
X126113904Y-122563000D01*
X126161523Y-122610619D01*
X126209142Y-122705857D01*
X126209142Y-122848714D01*
X126161523Y-122943952D01*
X126113904Y-122991571D01*
X126018666Y-123039190D01*
X125637714Y-123039190D01*
X127161523Y-123515380D02*
X126590095Y-123515380D01*
X126875809Y-123515380D02*
X126875809Y-122515380D01*
X126780571Y-122658238D01*
X126685333Y-122753476D01*
X126590095Y-122801095D01*
X127637714Y-123515380D02*
X127828190Y-123515380D01*
X127923428Y-123467761D01*
X127971047Y-123420142D01*
X128066285Y-123277285D01*
X128113904Y-123086809D01*
X128113904Y-122705857D01*
X128066285Y-122610619D01*
X128018666Y-122563000D01*
X127923428Y-122515380D01*
X127732952Y-122515380D01*
X127637714Y-122563000D01*
X127590095Y-122610619D01*
X127542476Y-122705857D01*
X127542476Y-122943952D01*
X127590095Y-123039190D01*
X127637714Y-123086809D01*
X127732952Y-123134428D01*
X127923428Y-123134428D01*
X128018666Y-123086809D01*
X128066285Y-123039190D01*
X128113904Y-122943952D01*
%TO.C,RV3*%
X68440680Y-74318938D02*
X67964490Y-74652271D01*
X68440680Y-74890366D02*
X67440680Y-74890366D01*
X67440680Y-74509414D01*
X67488300Y-74414176D01*
X67535919Y-74366557D01*
X67631157Y-74318938D01*
X67774014Y-74318938D01*
X67869252Y-74366557D01*
X67916871Y-74414176D01*
X67964490Y-74509414D01*
X67964490Y-74890366D01*
X67440680Y-74033223D02*
X68440680Y-73699890D01*
X67440680Y-73366557D01*
X67440680Y-73128461D02*
X67440680Y-72509414D01*
X67821633Y-72842747D01*
X67821633Y-72699890D01*
X67869252Y-72604652D01*
X67916871Y-72557033D01*
X68012109Y-72509414D01*
X68250204Y-72509414D01*
X68345442Y-72557033D01*
X68393061Y-72604652D01*
X68440680Y-72699890D01*
X68440680Y-72985604D01*
X68393061Y-73080842D01*
X68345442Y-73128461D01*
%TO.C,J4*%
X132508666Y-59345380D02*
X132508666Y-60059666D01*
X132461047Y-60202523D01*
X132365809Y-60297761D01*
X132222952Y-60345380D01*
X132127714Y-60345380D01*
X133413428Y-59678714D02*
X133413428Y-60345380D01*
X133175333Y-59297761D02*
X132937238Y-60012047D01*
X133556285Y-60012047D01*
%TO.C,C6*%
X63755442Y-73910366D02*
X63803061Y-73957985D01*
X63850680Y-74100842D01*
X63850680Y-74196080D01*
X63803061Y-74338938D01*
X63707823Y-74434176D01*
X63612585Y-74481795D01*
X63422109Y-74529414D01*
X63279252Y-74529414D01*
X63088776Y-74481795D01*
X62993538Y-74434176D01*
X62898300Y-74338938D01*
X62850680Y-74196080D01*
X62850680Y-74100842D01*
X62898300Y-73957985D01*
X62945919Y-73910366D01*
X62850680Y-73053223D02*
X62850680Y-73243700D01*
X62898300Y-73338938D01*
X62945919Y-73386557D01*
X63088776Y-73481795D01*
X63279252Y-73529414D01*
X63660204Y-73529414D01*
X63755442Y-73481795D01*
X63803061Y-73434176D01*
X63850680Y-73338938D01*
X63850680Y-73148461D01*
X63803061Y-73053223D01*
X63755442Y-73005604D01*
X63660204Y-72957985D01*
X63422109Y-72957985D01*
X63326871Y-73005604D01*
X63279252Y-73053223D01*
X63231633Y-73148461D01*
X63231633Y-73338938D01*
X63279252Y-73434176D01*
X63326871Y-73481795D01*
X63422109Y-73529414D01*
%TO.C,J3*%
X117901180Y-57325933D02*
X118615466Y-57325933D01*
X118758323Y-57373552D01*
X118853561Y-57468790D01*
X118901180Y-57611647D01*
X118901180Y-57706885D01*
X117901180Y-56944980D02*
X117901180Y-56325933D01*
X118282133Y-56659266D01*
X118282133Y-56516409D01*
X118329752Y-56421171D01*
X118377371Y-56373552D01*
X118472609Y-56325933D01*
X118710704Y-56325933D01*
X118805942Y-56373552D01*
X118853561Y-56421171D01*
X118901180Y-56516409D01*
X118901180Y-56802123D01*
X118853561Y-56897361D01*
X118805942Y-56944980D01*
%TO.C,H1*%
X50546095Y-49876380D02*
X50546095Y-48876380D01*
X50546095Y-49352571D02*
X51117523Y-49352571D01*
X51117523Y-49876380D02*
X51117523Y-48876380D01*
X52117523Y-49876380D02*
X51546095Y-49876380D01*
X51831809Y-49876380D02*
X51831809Y-48876380D01*
X51736571Y-49019238D01*
X51641333Y-49114476D01*
X51546095Y-49162095D01*
%TO.C,J1*%
X55605366Y-59268680D02*
X55605366Y-59982966D01*
X55557747Y-60125823D01*
X55462509Y-60221061D01*
X55319652Y-60268680D01*
X55224414Y-60268680D01*
X56605366Y-60268680D02*
X56033938Y-60268680D01*
X56319652Y-60268680D02*
X56319652Y-59268680D01*
X56224414Y-59411538D01*
X56129176Y-59506776D01*
X56033938Y-59554395D01*
%TO.C,R10*%
X75466380Y-95130857D02*
X74990190Y-95464190D01*
X75466380Y-95702285D02*
X74466380Y-95702285D01*
X74466380Y-95321333D01*
X74514000Y-95226095D01*
X74561619Y-95178476D01*
X74656857Y-95130857D01*
X74799714Y-95130857D01*
X74894952Y-95178476D01*
X74942571Y-95226095D01*
X74990190Y-95321333D01*
X74990190Y-95702285D01*
X75466380Y-94178476D02*
X75466380Y-94749904D01*
X75466380Y-94464190D02*
X74466380Y-94464190D01*
X74609238Y-94559428D01*
X74704476Y-94654666D01*
X74752095Y-94749904D01*
X74466380Y-93559428D02*
X74466380Y-93464190D01*
X74514000Y-93368952D01*
X74561619Y-93321333D01*
X74656857Y-93273714D01*
X74847333Y-93226095D01*
X75085428Y-93226095D01*
X75275904Y-93273714D01*
X75371142Y-93321333D01*
X75418761Y-93368952D01*
X75466380Y-93464190D01*
X75466380Y-93559428D01*
X75418761Y-93654666D01*
X75371142Y-93702285D01*
X75275904Y-93749904D01*
X75085428Y-93797523D01*
X74847333Y-93797523D01*
X74656857Y-93749904D01*
X74561619Y-93702285D01*
X74514000Y-93654666D01*
X74466380Y-93559428D01*
%TO.C,R2*%
X99571633Y-51570080D02*
X99238300Y-51093890D01*
X99000204Y-51570080D02*
X99000204Y-50570080D01*
X99381157Y-50570080D01*
X99476395Y-50617700D01*
X99524014Y-50665319D01*
X99571633Y-50760557D01*
X99571633Y-50903414D01*
X99524014Y-50998652D01*
X99476395Y-51046271D01*
X99381157Y-51093890D01*
X99000204Y-51093890D01*
X99952585Y-50665319D02*
X100000204Y-50617700D01*
X100095442Y-50570080D01*
X100333538Y-50570080D01*
X100428776Y-50617700D01*
X100476395Y-50665319D01*
X100524014Y-50760557D01*
X100524014Y-50855795D01*
X100476395Y-50998652D01*
X99904966Y-51570080D01*
X100524014Y-51570080D01*
%TO.C,R6*%
X98936633Y-81626080D02*
X98603300Y-81149890D01*
X98365204Y-81626080D02*
X98365204Y-80626080D01*
X98746157Y-80626080D01*
X98841395Y-80673700D01*
X98889014Y-80721319D01*
X98936633Y-80816557D01*
X98936633Y-80959414D01*
X98889014Y-81054652D01*
X98841395Y-81102271D01*
X98746157Y-81149890D01*
X98365204Y-81149890D01*
X99793776Y-80626080D02*
X99603300Y-80626080D01*
X99508061Y-80673700D01*
X99460442Y-80721319D01*
X99365204Y-80864176D01*
X99317585Y-81054652D01*
X99317585Y-81435604D01*
X99365204Y-81530842D01*
X99412823Y-81578461D01*
X99508061Y-81626080D01*
X99698538Y-81626080D01*
X99793776Y-81578461D01*
X99841395Y-81530842D01*
X99889014Y-81435604D01*
X99889014Y-81197509D01*
X99841395Y-81102271D01*
X99793776Y-81054652D01*
X99698538Y-81007033D01*
X99508061Y-81007033D01*
X99412823Y-81054652D01*
X99365204Y-81102271D01*
X99317585Y-81197509D01*
%TO.C,R16*%
X63386142Y-114930180D02*
X63052809Y-114453990D01*
X62814714Y-114930180D02*
X62814714Y-113930180D01*
X63195666Y-113930180D01*
X63290904Y-113977800D01*
X63338523Y-114025419D01*
X63386142Y-114120657D01*
X63386142Y-114263514D01*
X63338523Y-114358752D01*
X63290904Y-114406371D01*
X63195666Y-114453990D01*
X62814714Y-114453990D01*
X64338523Y-114930180D02*
X63767095Y-114930180D01*
X64052809Y-114930180D02*
X64052809Y-113930180D01*
X63957571Y-114073038D01*
X63862333Y-114168276D01*
X63767095Y-114215895D01*
X65195666Y-113930180D02*
X65005190Y-113930180D01*
X64909952Y-113977800D01*
X64862333Y-114025419D01*
X64767095Y-114168276D01*
X64719476Y-114358752D01*
X64719476Y-114739704D01*
X64767095Y-114834942D01*
X64814714Y-114882561D01*
X64909952Y-114930180D01*
X65100428Y-114930180D01*
X65195666Y-114882561D01*
X65243285Y-114834942D01*
X65290904Y-114739704D01*
X65290904Y-114501609D01*
X65243285Y-114406371D01*
X65195666Y-114358752D01*
X65100428Y-114311133D01*
X64909952Y-114311133D01*
X64814714Y-114358752D01*
X64767095Y-114406371D01*
X64719476Y-114501609D01*
%TO.C,R7*%
X101476633Y-69096080D02*
X101143300Y-68619890D01*
X100905204Y-69096080D02*
X100905204Y-68096080D01*
X101286157Y-68096080D01*
X101381395Y-68143700D01*
X101429014Y-68191319D01*
X101476633Y-68286557D01*
X101476633Y-68429414D01*
X101429014Y-68524652D01*
X101381395Y-68572271D01*
X101286157Y-68619890D01*
X100905204Y-68619890D01*
X101809966Y-68096080D02*
X102476633Y-68096080D01*
X102048061Y-69096080D01*
%TO.C,D4*%
X57605704Y-103754180D02*
X57605704Y-102754180D01*
X57843800Y-102754180D01*
X57986657Y-102801800D01*
X58081895Y-102897038D01*
X58129514Y-102992276D01*
X58177133Y-103182752D01*
X58177133Y-103325609D01*
X58129514Y-103516085D01*
X58081895Y-103611323D01*
X57986657Y-103706561D01*
X57843800Y-103754180D01*
X57605704Y-103754180D01*
X59034276Y-103087514D02*
X59034276Y-103754180D01*
X58796180Y-102706561D02*
X58558085Y-103420847D01*
X59177133Y-103420847D01*
%TO.C,C1*%
X59455442Y-58650366D02*
X59503061Y-58697985D01*
X59550680Y-58840842D01*
X59550680Y-58936080D01*
X59503061Y-59078938D01*
X59407823Y-59174176D01*
X59312585Y-59221795D01*
X59122109Y-59269414D01*
X58979252Y-59269414D01*
X58788776Y-59221795D01*
X58693538Y-59174176D01*
X58598300Y-59078938D01*
X58550680Y-58936080D01*
X58550680Y-58840842D01*
X58598300Y-58697985D01*
X58645919Y-58650366D01*
X59550680Y-57697985D02*
X59550680Y-58269414D01*
X59550680Y-57983700D02*
X58550680Y-57983700D01*
X58693538Y-58078938D01*
X58788776Y-58174176D01*
X58836395Y-58269414D01*
%TO.C,H4*%
X136144095Y-141062380D02*
X136144095Y-140062380D01*
X136144095Y-140538571D02*
X136715523Y-140538571D01*
X136715523Y-141062380D02*
X136715523Y-140062380D01*
X137620285Y-140395714D02*
X137620285Y-141062380D01*
X137382190Y-140014761D02*
X137144095Y-140729047D01*
X137763142Y-140729047D01*
%TO.C,R17*%
X125971742Y-109926380D02*
X125638409Y-109450190D01*
X125400314Y-109926380D02*
X125400314Y-108926380D01*
X125781266Y-108926380D01*
X125876504Y-108974000D01*
X125924123Y-109021619D01*
X125971742Y-109116857D01*
X125971742Y-109259714D01*
X125924123Y-109354952D01*
X125876504Y-109402571D01*
X125781266Y-109450190D01*
X125400314Y-109450190D01*
X126924123Y-109926380D02*
X126352695Y-109926380D01*
X126638409Y-109926380D02*
X126638409Y-108926380D01*
X126543171Y-109069238D01*
X126447933Y-109164476D01*
X126352695Y-109212095D01*
X127257457Y-108926380D02*
X127924123Y-108926380D01*
X127495552Y-109926380D01*
%TO.C,J9*%
X77619666Y-136558380D02*
X77619666Y-137272666D01*
X77572047Y-137415523D01*
X77476809Y-137510761D01*
X77333952Y-137558380D01*
X77238714Y-137558380D01*
X78143476Y-137558380D02*
X78333952Y-137558380D01*
X78429190Y-137510761D01*
X78476809Y-137463142D01*
X78572047Y-137320285D01*
X78619666Y-137129809D01*
X78619666Y-136748857D01*
X78572047Y-136653619D01*
X78524428Y-136606000D01*
X78429190Y-136558380D01*
X78238714Y-136558380D01*
X78143476Y-136606000D01*
X78095857Y-136653619D01*
X78048238Y-136748857D01*
X78048238Y-136986952D01*
X78095857Y-137082190D01*
X78143476Y-137129809D01*
X78238714Y-137177428D01*
X78429190Y-137177428D01*
X78524428Y-137129809D01*
X78572047Y-137082190D01*
X78619666Y-136986952D01*
%TO.C,C9*%
X129667333Y-76684142D02*
X129619714Y-76731761D01*
X129476857Y-76779380D01*
X129381619Y-76779380D01*
X129238761Y-76731761D01*
X129143523Y-76636523D01*
X129095904Y-76541285D01*
X129048285Y-76350809D01*
X129048285Y-76207952D01*
X129095904Y-76017476D01*
X129143523Y-75922238D01*
X129238761Y-75827000D01*
X129381619Y-75779380D01*
X129476857Y-75779380D01*
X129619714Y-75827000D01*
X129667333Y-75874619D01*
X130143523Y-76779380D02*
X130334000Y-76779380D01*
X130429238Y-76731761D01*
X130476857Y-76684142D01*
X130572095Y-76541285D01*
X130619714Y-76350809D01*
X130619714Y-75969857D01*
X130572095Y-75874619D01*
X130524476Y-75827000D01*
X130429238Y-75779380D01*
X130238761Y-75779380D01*
X130143523Y-75827000D01*
X130095904Y-75874619D01*
X130048285Y-75969857D01*
X130048285Y-76207952D01*
X130095904Y-76303190D01*
X130143523Y-76350809D01*
X130238761Y-76398428D01*
X130429238Y-76398428D01*
X130524476Y-76350809D01*
X130572095Y-76303190D01*
X130619714Y-76207952D01*
%TO.C,Q2*%
X127699619Y-100933238D02*
X127652000Y-101028476D01*
X127556761Y-101123714D01*
X127413904Y-101266571D01*
X127366285Y-101361809D01*
X127366285Y-101457047D01*
X127604380Y-101409428D02*
X127556761Y-101504666D01*
X127461523Y-101599904D01*
X127271047Y-101647523D01*
X126937714Y-101647523D01*
X126747238Y-101599904D01*
X126652000Y-101504666D01*
X126604380Y-101409428D01*
X126604380Y-101218952D01*
X126652000Y-101123714D01*
X126747238Y-101028476D01*
X126937714Y-100980857D01*
X127271047Y-100980857D01*
X127461523Y-101028476D01*
X127556761Y-101123714D01*
X127604380Y-101218952D01*
X127604380Y-101409428D01*
X126699619Y-100599904D02*
X126652000Y-100552285D01*
X126604380Y-100457047D01*
X126604380Y-100218952D01*
X126652000Y-100123714D01*
X126699619Y-100076095D01*
X126794857Y-100028476D01*
X126890095Y-100028476D01*
X127032952Y-100076095D01*
X127604380Y-100647523D01*
X127604380Y-100028476D01*
%TO.C,RV1*%
X68590680Y-59713938D02*
X68114490Y-60047271D01*
X68590680Y-60285366D02*
X67590680Y-60285366D01*
X67590680Y-59904414D01*
X67638300Y-59809176D01*
X67685919Y-59761557D01*
X67781157Y-59713938D01*
X67924014Y-59713938D01*
X68019252Y-59761557D01*
X68066871Y-59809176D01*
X68114490Y-59904414D01*
X68114490Y-60285366D01*
X67590680Y-59428223D02*
X68590680Y-59094890D01*
X67590680Y-58761557D01*
X68590680Y-57904414D02*
X68590680Y-58475842D01*
X68590680Y-58190128D02*
X67590680Y-58190128D01*
X67733538Y-58285366D01*
X67828776Y-58380604D01*
X67876395Y-58475842D01*
%TO.C,D5*%
X123010704Y-87576780D02*
X123010704Y-86576780D01*
X123248800Y-86576780D01*
X123391657Y-86624400D01*
X123486895Y-86719638D01*
X123534514Y-86814876D01*
X123582133Y-87005352D01*
X123582133Y-87148209D01*
X123534514Y-87338685D01*
X123486895Y-87433923D01*
X123391657Y-87529161D01*
X123248800Y-87576780D01*
X123010704Y-87576780D01*
X124486895Y-86576780D02*
X124010704Y-86576780D01*
X123963085Y-87052971D01*
X124010704Y-87005352D01*
X124105942Y-86957733D01*
X124344038Y-86957733D01*
X124439276Y-87005352D01*
X124486895Y-87052971D01*
X124534514Y-87148209D01*
X124534514Y-87386304D01*
X124486895Y-87481542D01*
X124439276Y-87529161D01*
X124344038Y-87576780D01*
X124105942Y-87576780D01*
X124010704Y-87529161D01*
X123963085Y-87481542D01*
%TO.C,C7*%
X98825442Y-73890366D02*
X98873061Y-73937985D01*
X98920680Y-74080842D01*
X98920680Y-74176080D01*
X98873061Y-74318938D01*
X98777823Y-74414176D01*
X98682585Y-74461795D01*
X98492109Y-74509414D01*
X98349252Y-74509414D01*
X98158776Y-74461795D01*
X98063538Y-74414176D01*
X97968300Y-74318938D01*
X97920680Y-74176080D01*
X97920680Y-74080842D01*
X97968300Y-73937985D01*
X98015919Y-73890366D01*
X97920680Y-73557033D02*
X97920680Y-72890366D01*
X98920680Y-73318938D01*
%TO.C,C8*%
X103336642Y-73824566D02*
X103384261Y-73872185D01*
X103431880Y-74015042D01*
X103431880Y-74110280D01*
X103384261Y-74253138D01*
X103289023Y-74348376D01*
X103193785Y-74395995D01*
X103003309Y-74443614D01*
X102860452Y-74443614D01*
X102669976Y-74395995D01*
X102574738Y-74348376D01*
X102479500Y-74253138D01*
X102431880Y-74110280D01*
X102431880Y-74015042D01*
X102479500Y-73872185D01*
X102527119Y-73824566D01*
X102860452Y-73253138D02*
X102812833Y-73348376D01*
X102765214Y-73395995D01*
X102669976Y-73443614D01*
X102622357Y-73443614D01*
X102527119Y-73395995D01*
X102479500Y-73348376D01*
X102431880Y-73253138D01*
X102431880Y-73062661D01*
X102479500Y-72967423D01*
X102527119Y-72919804D01*
X102622357Y-72872185D01*
X102669976Y-72872185D01*
X102765214Y-72919804D01*
X102812833Y-72967423D01*
X102860452Y-73062661D01*
X102860452Y-73253138D01*
X102908071Y-73348376D01*
X102955690Y-73395995D01*
X103050928Y-73443614D01*
X103241404Y-73443614D01*
X103336642Y-73395995D01*
X103384261Y-73348376D01*
X103431880Y-73253138D01*
X103431880Y-73062661D01*
X103384261Y-72967423D01*
X103336642Y-72919804D01*
X103241404Y-72872185D01*
X103050928Y-72872185D01*
X102955690Y-72919804D01*
X102908071Y-72967423D01*
X102860452Y-73062661D01*
%TO.C,R5*%
X60201633Y-69096080D02*
X59868300Y-68619890D01*
X59630204Y-69096080D02*
X59630204Y-68096080D01*
X60011157Y-68096080D01*
X60106395Y-68143700D01*
X60154014Y-68191319D01*
X60201633Y-68286557D01*
X60201633Y-68429414D01*
X60154014Y-68524652D01*
X60106395Y-68572271D01*
X60011157Y-68619890D01*
X59630204Y-68619890D01*
X61106395Y-68096080D02*
X60630204Y-68096080D01*
X60582585Y-68572271D01*
X60630204Y-68524652D01*
X60725442Y-68477033D01*
X60963538Y-68477033D01*
X61058776Y-68524652D01*
X61106395Y-68572271D01*
X61154014Y-68667509D01*
X61154014Y-68905604D01*
X61106395Y-69000842D01*
X61058776Y-69048461D01*
X60963538Y-69096080D01*
X60725442Y-69096080D01*
X60630204Y-69048461D01*
X60582585Y-69000842D01*
%TO.C,J8*%
X58340666Y-125944380D02*
X58340666Y-126658666D01*
X58293047Y-126801523D01*
X58197809Y-126896761D01*
X58054952Y-126944380D01*
X57959714Y-126944380D01*
X58959714Y-126372952D02*
X58864476Y-126325333D01*
X58816857Y-126277714D01*
X58769238Y-126182476D01*
X58769238Y-126134857D01*
X58816857Y-126039619D01*
X58864476Y-125992000D01*
X58959714Y-125944380D01*
X59150190Y-125944380D01*
X59245428Y-125992000D01*
X59293047Y-126039619D01*
X59340666Y-126134857D01*
X59340666Y-126182476D01*
X59293047Y-126277714D01*
X59245428Y-126325333D01*
X59150190Y-126372952D01*
X58959714Y-126372952D01*
X58864476Y-126420571D01*
X58816857Y-126468190D01*
X58769238Y-126563428D01*
X58769238Y-126753904D01*
X58816857Y-126849142D01*
X58864476Y-126896761D01*
X58959714Y-126944380D01*
X59150190Y-126944380D01*
X59245428Y-126896761D01*
X59293047Y-126849142D01*
X59340666Y-126753904D01*
X59340666Y-126563428D01*
X59293047Y-126468190D01*
X59245428Y-126420571D01*
X59150190Y-126372952D01*
%TO.C,R12*%
X70683380Y-105798857D02*
X70207190Y-106132190D01*
X70683380Y-106370285D02*
X69683380Y-106370285D01*
X69683380Y-105989333D01*
X69731000Y-105894095D01*
X69778619Y-105846476D01*
X69873857Y-105798857D01*
X70016714Y-105798857D01*
X70111952Y-105846476D01*
X70159571Y-105894095D01*
X70207190Y-105989333D01*
X70207190Y-106370285D01*
X70683380Y-104846476D02*
X70683380Y-105417904D01*
X70683380Y-105132190D02*
X69683380Y-105132190D01*
X69826238Y-105227428D01*
X69921476Y-105322666D01*
X69969095Y-105417904D01*
X69778619Y-104465523D02*
X69731000Y-104417904D01*
X69683380Y-104322666D01*
X69683380Y-104084571D01*
X69731000Y-103989333D01*
X69778619Y-103941714D01*
X69873857Y-103894095D01*
X69969095Y-103894095D01*
X70111952Y-103941714D01*
X70683380Y-104513142D01*
X70683380Y-103894095D01*
D11*
%TO.C,J11*%
X137270800Y-123174600D02*
X137270800Y-130854600D01*
X134610800Y-121904600D02*
X134610800Y-120574600D01*
X134610800Y-130854600D02*
X137270800Y-130854600D01*
X134610800Y-123174600D02*
X137270800Y-123174600D01*
X134610800Y-120574600D02*
X135940800Y-120574600D01*
X134610800Y-123174600D02*
X134610800Y-130854600D01*
%TO.C,U1*%
X78438300Y-75053700D02*
X82938300Y-75053700D01*
X85938300Y-75113700D02*
X85938300Y-57093700D01*
X85938300Y-57093700D02*
X75438300Y-57093700D01*
X75438300Y-57093700D02*
X75438300Y-75113700D01*
X75438300Y-75113700D02*
X85938300Y-75113700D01*
X82938300Y-57153700D02*
X81688300Y-57153700D01*
X82938300Y-75053700D02*
X82938300Y-57153700D01*
X78438300Y-57153700D02*
X78438300Y-75053700D01*
X79688300Y-57153700D02*
X78438300Y-57153700D01*
X79688300Y-57153700D02*
G75*
G03*
X81688300Y-57153700I1000000J0D01*
G01*
%TO.C,C3*%
X101039300Y-57072700D02*
X101039300Y-58330700D01*
X99199300Y-57072700D02*
X99199300Y-58330700D01*
%TO.C,R8*%
X96658300Y-62193700D02*
X90118300Y-62193700D01*
X97428300Y-63563700D02*
X96658300Y-63563700D01*
X89348300Y-63563700D02*
X90118300Y-63563700D01*
X90118300Y-62193700D02*
X90118300Y-64933700D01*
X96658300Y-64933700D02*
X96658300Y-62193700D01*
X90118300Y-64933700D02*
X96658300Y-64933700D01*
%TO.C,Q3*%
X68779000Y-124609000D02*
X68779000Y-121009000D01*
X65830193Y-120452600D02*
G75*
G03*
X64329000Y-122809000I1098807J-2356400D01*
G01*
X68051795Y-125133184D02*
G75*
G03*
X68779000Y-124609000I-1122795J2324184D01*
G01*
X64329000Y-122809000D02*
G75*
G03*
X65830193Y-125165400I2600000J0D01*
G01*
X68779000Y-121009000D02*
G75*
G03*
X68051795Y-120484816I-1850000J-1800000D01*
G01*
%TO.C,R4*%
X58233300Y-78803700D02*
X59003300Y-78803700D01*
X65543300Y-77433700D02*
X59003300Y-77433700D01*
X59003300Y-77433700D02*
X59003300Y-80173700D01*
X59003300Y-80173700D02*
X65543300Y-80173700D01*
X66313300Y-78803700D02*
X65543300Y-78803700D01*
X65543300Y-80173700D02*
X65543300Y-77433700D01*
%TO.C,J5*%
X57083000Y-104521000D02*
X57083000Y-96841000D01*
X57083000Y-107121000D02*
X55753000Y-107121000D01*
X57083000Y-96841000D02*
X54423000Y-96841000D01*
X57083000Y-104521000D02*
X54423000Y-104521000D01*
X57083000Y-105791000D02*
X57083000Y-107121000D01*
X54423000Y-104521000D02*
X54423000Y-96841000D01*
%TO.C,R18*%
X120034400Y-99092000D02*
X117294400Y-99092000D01*
X118664400Y-106402000D02*
X118664400Y-105632000D01*
X120034400Y-105632000D02*
X120034400Y-99092000D01*
X117294400Y-105632000D02*
X120034400Y-105632000D01*
X117294400Y-99092000D02*
X117294400Y-105632000D01*
X118664400Y-98322000D02*
X118664400Y-99092000D01*
%TO.C,U3*%
X81306000Y-141954000D02*
X109705999Y-141954000D01*
X91716000Y-142716000D02*
X91716000Y-136112000D01*
X81302000Y-90392000D02*
X81306000Y-141954000D01*
X109705999Y-141954000D02*
X109706000Y-90392000D01*
X99336000Y-136112000D02*
X99336000Y-142716000D01*
X99336000Y-142716000D02*
X91716000Y-142716000D01*
X91716000Y-136112000D02*
X99336000Y-136112000D01*
X109706000Y-90392000D02*
X81302000Y-90392000D01*
%TO.C,D1*%
X60096800Y-88193200D02*
X60096800Y-91283200D01*
X60096800Y-91283030D02*
G75*
G03*
X65646800Y-89737738I2560000J1544830D01*
G01*
X65646800Y-89738662D02*
G75*
G03*
X60096800Y-88193370I-2990000J462D01*
G01*
X65156800Y-89738200D02*
G75*
G03*
X65156800Y-89738200I-2500000J0D01*
G01*
%TO.C,C5*%
X60083300Y-74372700D02*
X60083300Y-73114700D01*
X61923300Y-74372700D02*
X61923300Y-73114700D01*
%TO.C,C4*%
X95008300Y-57219700D02*
X95008300Y-58477700D01*
X96848300Y-57219700D02*
X96848300Y-58477700D01*
%TO.C,R14*%
X126214000Y-125984000D02*
X125444000Y-125984000D01*
X118904000Y-127354000D02*
X125444000Y-127354000D01*
X118904000Y-124614000D02*
X118904000Y-127354000D01*
X125444000Y-124614000D02*
X118904000Y-124614000D01*
X118134000Y-125984000D02*
X118904000Y-125984000D01*
X125444000Y-127354000D02*
X125444000Y-124614000D01*
%TO.C,D2*%
X60096800Y-108589400D02*
X60096800Y-111679400D01*
X65646800Y-110134862D02*
G75*
G03*
X60096800Y-108589570I-2990000J462D01*
G01*
X60096800Y-111679230D02*
G75*
G03*
X65646800Y-110133938I2560000J1544830D01*
G01*
X65156800Y-110134400D02*
G75*
G03*
X65156800Y-110134400I-2500000J0D01*
G01*
%TO.C,U2*%
X131827700Y-71953500D02*
X120207700Y-71953500D01*
X131827700Y-63333500D02*
X120207700Y-63333500D01*
X132067700Y-70953500D02*
X132067700Y-72193500D01*
X131827700Y-71953500D02*
X131827700Y-63333500D01*
X120207700Y-71953500D02*
X120207700Y-63333500D01*
X132067700Y-72193500D02*
X130827700Y-72193500D01*
%TO.C,R13*%
X111660000Y-136684000D02*
X111660000Y-143224000D01*
X114400000Y-143224000D02*
X114400000Y-136684000D01*
X111660000Y-143224000D02*
X114400000Y-143224000D01*
X113030000Y-143994000D02*
X113030000Y-143224000D01*
X113030000Y-135914000D02*
X113030000Y-136684000D01*
X114400000Y-136684000D02*
X111660000Y-136684000D01*
%TO.C,J10*%
X133308400Y-115366800D02*
X133308400Y-110226800D01*
X133308400Y-116636800D02*
X133308400Y-117966800D01*
X130648400Y-115366800D02*
X130648400Y-110226800D01*
X133308400Y-115366800D02*
X130648400Y-115366800D01*
X133308400Y-110226800D02*
X130648400Y-110226800D01*
X133308400Y-117966800D02*
X131978400Y-117966800D01*
%TO.C,R9*%
X67818000Y-96623000D02*
X67818000Y-95853000D01*
X69188000Y-89313000D02*
X66448000Y-89313000D01*
X69188000Y-95853000D02*
X69188000Y-89313000D01*
X66448000Y-95853000D02*
X69188000Y-95853000D01*
X67818000Y-88543000D02*
X67818000Y-89313000D01*
X66448000Y-89313000D02*
X66448000Y-95853000D01*
%TO.C,RV4*%
X92108300Y-71378700D02*
X92108300Y-81148700D01*
X92108300Y-71378700D02*
X87038300Y-71378700D01*
X87038300Y-71378700D02*
X87038300Y-81148700D01*
X92108300Y-81148700D02*
X87038300Y-81148700D01*
%TO.C,J2*%
X107168800Y-60747600D02*
X107168800Y-63407600D01*
X116118800Y-60747600D02*
X117448800Y-60747600D01*
X114848800Y-63407600D02*
X107168800Y-63407600D01*
X114848800Y-60747600D02*
X107168800Y-60747600D01*
X114848800Y-60747600D02*
X114848800Y-63407600D01*
X117448800Y-60747600D02*
X117448800Y-62077600D01*
%TO.C,Q1*%
X121742000Y-112601600D02*
X121742000Y-116201600D01*
X121742000Y-116201600D02*
G75*
G03*
X122469205Y-116725784I1850000J1800000D01*
G01*
X122469205Y-112077416D02*
G75*
G03*
X121742000Y-112601600I1122795J-2324184D01*
G01*
X124690807Y-116758000D02*
G75*
G03*
X126192000Y-114401600I-1098807J2356400D01*
G01*
X126192000Y-114401600D02*
G75*
G03*
X124690807Y-112045200I-2600000J0D01*
G01*
%TO.C,D3*%
X60101800Y-94949600D02*
X60101800Y-98039600D01*
X60101800Y-98039430D02*
G75*
G03*
X65651800Y-96494138I2560000J1544830D01*
G01*
X65651800Y-96495062D02*
G75*
G03*
X60101800Y-94949770I-2990000J462D01*
G01*
X65161800Y-96494600D02*
G75*
G03*
X65161800Y-96494600I-2500000J0D01*
G01*
%TO.C,R15*%
X70406000Y-118065800D02*
X70406000Y-124605800D01*
X70406000Y-124605800D02*
X73146000Y-124605800D01*
X73146000Y-124605800D02*
X73146000Y-118065800D01*
X71776000Y-117295800D02*
X71776000Y-118065800D01*
X71776000Y-125375800D02*
X71776000Y-124605800D01*
X73146000Y-118065800D02*
X70406000Y-118065800D01*
%TO.C,R1*%
X65543300Y-54773700D02*
X65543300Y-52033700D01*
X66313300Y-53403700D02*
X65543300Y-53403700D01*
X65543300Y-52033700D02*
X59003300Y-52033700D01*
X58233300Y-53403700D02*
X59003300Y-53403700D01*
X59003300Y-52033700D02*
X59003300Y-54773700D01*
X59003300Y-54773700D02*
X65543300Y-54773700D01*
%TO.C,J7*%
X133308400Y-104352400D02*
X131978400Y-104352400D01*
X130648400Y-101752400D02*
X130648400Y-96612400D01*
X133308400Y-101752400D02*
X133308400Y-96612400D01*
X133308400Y-96612400D02*
X130648400Y-96612400D01*
X133308400Y-101752400D02*
X130648400Y-101752400D01*
X133308400Y-103022400D02*
X133308400Y-104352400D01*
%TO.C,R20*%
X119840000Y-119221000D02*
X119840000Y-112681000D01*
X118470000Y-119991000D02*
X118470000Y-119221000D01*
X117100000Y-112681000D02*
X117100000Y-119221000D01*
X118470000Y-111911000D02*
X118470000Y-112681000D01*
X117100000Y-119221000D02*
X119840000Y-119221000D01*
X119840000Y-112681000D02*
X117100000Y-112681000D01*
%TO.C,R11*%
X72644000Y-111228000D02*
X72644000Y-110458000D01*
X71274000Y-110458000D02*
X74014000Y-110458000D01*
X72644000Y-103148000D02*
X72644000Y-103918000D01*
X71274000Y-103918000D02*
X71274000Y-110458000D01*
X74014000Y-103918000D02*
X71274000Y-103918000D01*
X74014000Y-110458000D02*
X74014000Y-103918000D01*
%TO.C,R21*%
X128625600Y-82015200D02*
X128625600Y-82785200D01*
X128625600Y-90095200D02*
X128625600Y-89325200D01*
X129995600Y-89325200D02*
X129995600Y-82785200D01*
X129995600Y-82785200D02*
X127255600Y-82785200D01*
X127255600Y-82785200D02*
X127255600Y-89325200D01*
X127255600Y-89325200D02*
X129995600Y-89325200D01*
%TO.C,R3*%
X72028300Y-63563700D02*
X71258300Y-63563700D01*
X71258300Y-62193700D02*
X64718300Y-62193700D01*
X64718300Y-62193700D02*
X64718300Y-64933700D01*
X64718300Y-64933700D02*
X71258300Y-64933700D01*
X63948300Y-63563700D02*
X64718300Y-63563700D01*
X71258300Y-64933700D02*
X71258300Y-62193700D01*
%TO.C,RV2*%
X87048300Y-60818700D02*
X92118300Y-60818700D01*
X92118300Y-60818700D02*
X92118300Y-51048700D01*
X87048300Y-51048700D02*
X92118300Y-51048700D01*
X87048300Y-60818700D02*
X87048300Y-51048700D01*
%TO.C,C2*%
X66368300Y-57834700D02*
X66368300Y-59092700D01*
X64528300Y-57834700D02*
X64528300Y-59092700D01*
%TO.C,DISP1*%
X130179000Y-133837000D02*
X130179000Y-139837000D01*
X120909000Y-131177000D02*
X120909000Y-133837000D01*
X127639000Y-133837000D02*
X127639000Y-139837000D01*
X127639000Y-139837000D02*
X126879000Y-139837000D01*
X118369000Y-131177000D02*
X118369000Y-133837000D01*
X132059000Y-133837000D02*
X132059000Y-139837000D01*
X115769000Y-131177000D02*
X115769000Y-133837000D01*
X124339000Y-139837000D02*
X124339000Y-133837000D01*
X132539000Y-133837000D02*
X132539000Y-139837000D01*
X117479000Y-130779929D02*
X117479000Y-131177000D01*
X129419000Y-130779929D02*
X129419000Y-131177000D01*
X132719000Y-133837000D02*
X132719000Y-139837000D01*
X128529000Y-131177000D02*
X128529000Y-133837000D01*
X129419000Y-139837000D02*
X129419000Y-133837000D01*
X133669000Y-131177000D02*
X115769000Y-131177000D01*
X120019000Y-133837000D02*
X120019000Y-139837000D01*
X133669000Y-133837000D02*
X133669000Y-131177000D01*
X121799000Y-130779929D02*
X121799000Y-131177000D01*
X117479000Y-139837000D02*
X116719000Y-139837000D01*
X133609000Y-128467000D02*
X133609000Y-129737000D01*
X119259000Y-139837000D02*
X119259000Y-133837000D01*
X122559000Y-130779929D02*
X122559000Y-131177000D01*
X120019000Y-130779929D02*
X120019000Y-131177000D01*
X125989000Y-131177000D02*
X125989000Y-133837000D01*
X121799000Y-139837000D02*
X121799000Y-133837000D01*
X125099000Y-133837000D02*
X125099000Y-139837000D01*
X130179000Y-130779929D02*
X130179000Y-131177000D01*
X125099000Y-139837000D02*
X124339000Y-139837000D01*
X127639000Y-130779929D02*
X127639000Y-131177000D01*
X131959000Y-130847000D02*
X131959000Y-131177000D01*
X132659000Y-133837000D02*
X132659000Y-139837000D01*
X132719000Y-139837000D02*
X131959000Y-139837000D01*
X131959000Y-139837000D02*
X131959000Y-133837000D01*
X132339000Y-128467000D02*
X133609000Y-128467000D01*
X132299000Y-133837000D02*
X132299000Y-139837000D01*
X123449000Y-131177000D02*
X123449000Y-133837000D01*
X130179000Y-139837000D02*
X129419000Y-139837000D01*
X125099000Y-130779929D02*
X125099000Y-131177000D01*
X119259000Y-130779929D02*
X119259000Y-131177000D01*
X120019000Y-139837000D02*
X119259000Y-139837000D01*
X122559000Y-133837000D02*
X122559000Y-139837000D01*
X131069000Y-131177000D02*
X131069000Y-133837000D01*
X115769000Y-133837000D02*
X133669000Y-133837000D01*
X116719000Y-130779929D02*
X116719000Y-131177000D01*
X117479000Y-133837000D02*
X117479000Y-139837000D01*
X132719000Y-130847000D02*
X132719000Y-131177000D01*
X122559000Y-139837000D02*
X121799000Y-139837000D01*
X132419000Y-133837000D02*
X132419000Y-139837000D01*
X132179000Y-133837000D02*
X132179000Y-139837000D01*
X126879000Y-130779929D02*
X126879000Y-131177000D01*
X124339000Y-130779929D02*
X124339000Y-131177000D01*
X126879000Y-139837000D02*
X126879000Y-133837000D01*
X116719000Y-139837000D02*
X116719000Y-133837000D01*
%TO.C,C10*%
X121037621Y-81050000D02*
X121037621Y-83225000D01*
X121798621Y-81050000D02*
X121798621Y-83057000D01*
X123638621Y-78578000D02*
X123638621Y-81442000D01*
X121998621Y-81050000D02*
X121998621Y-82980000D01*
X122798621Y-77526000D02*
X122798621Y-78970000D01*
X122678621Y-77432000D02*
X122678621Y-78970000D01*
X121638621Y-81050000D02*
X121638621Y-83108000D01*
X123198621Y-77918000D02*
X123198621Y-82102000D01*
X122998621Y-77705000D02*
X122998621Y-78970000D01*
X117217380Y-78171000D02*
X117847380Y-78171000D01*
X121918621Y-77008000D02*
X121918621Y-78970000D01*
X120957621Y-81050000D02*
X120957621Y-83232000D01*
X123878621Y-79208000D02*
X123878621Y-80812000D01*
X121598621Y-76900000D02*
X121598621Y-78970000D01*
X122478621Y-77294000D02*
X122478621Y-78970000D01*
X123398621Y-78176000D02*
X123398621Y-81844000D01*
X121518621Y-81050000D02*
X121518621Y-83141000D01*
X122358621Y-81050000D02*
X122358621Y-82800000D01*
X121397621Y-76851000D02*
X121397621Y-78970000D01*
X122198621Y-77134000D02*
X122198621Y-78970000D01*
X122878621Y-81050000D02*
X122878621Y-82426000D01*
X122918621Y-77630000D02*
X122918621Y-78970000D01*
X123798621Y-78951000D02*
X123798621Y-81069000D01*
X123518621Y-78360000D02*
X123518621Y-81660000D01*
X121357621Y-76843000D02*
X121357621Y-78970000D01*
X122398621Y-77244000D02*
X122398621Y-78970000D01*
X123318621Y-78066000D02*
X123318621Y-81954000D01*
X121077621Y-81050000D02*
X121077621Y-83221000D01*
X121237621Y-76821000D02*
X121237621Y-78970000D01*
X121758621Y-81050000D02*
X121758621Y-83071000D01*
X121838621Y-81050000D02*
X121838621Y-83043000D01*
X122718621Y-81050000D02*
X122718621Y-82558000D01*
X123238621Y-77966000D02*
X123238621Y-82054000D01*
X123438621Y-78234000D02*
X123438621Y-81786000D01*
X122638621Y-81050000D02*
X122638621Y-82617000D01*
X123758621Y-78845000D02*
X123758621Y-81175000D01*
X122078621Y-77076000D02*
X122078621Y-78970000D01*
X122558621Y-81050000D02*
X122558621Y-82674000D01*
X122558621Y-77346000D02*
X122558621Y-78970000D01*
X123158621Y-77873000D02*
X123158621Y-82147000D01*
X121157621Y-76809000D02*
X121157621Y-78970000D01*
X121678621Y-76924000D02*
X121678621Y-78970000D01*
X121157621Y-81050000D02*
X121157621Y-83211000D01*
X121077621Y-76799000D02*
X121077621Y-78970000D01*
X122238621Y-77154000D02*
X122238621Y-78970000D01*
X121438621Y-76860000D02*
X121438621Y-78970000D01*
X121598621Y-81050000D02*
X121598621Y-83120000D01*
X122158621Y-81050000D02*
X122158621Y-82906000D01*
X121558621Y-81050000D02*
X121558621Y-83131000D01*
X121998621Y-77040000D02*
X121998621Y-78970000D01*
X121878621Y-81050000D02*
X121878621Y-83028000D01*
X121317621Y-76835000D02*
X121317621Y-78970000D01*
X121317621Y-81050000D02*
X121317621Y-83185000D01*
X120837621Y-76782000D02*
X120837621Y-83238000D01*
X122758621Y-77494000D02*
X122758621Y-78970000D01*
X122838621Y-77560000D02*
X122838621Y-78970000D01*
X121438621Y-81050000D02*
X121438621Y-83160000D01*
X120917621Y-76786000D02*
X120917621Y-83234000D01*
X121958621Y-81050000D02*
X121958621Y-82996000D01*
X123038621Y-77745000D02*
X123038621Y-82275000D01*
X120757621Y-76780000D02*
X120757621Y-83240000D01*
X121678621Y-81050000D02*
X121678621Y-83096000D01*
X122038621Y-77058000D02*
X122038621Y-78970000D01*
X122958621Y-77667000D02*
X122958621Y-78970000D01*
X121117621Y-76804000D02*
X121117621Y-78970000D01*
X121397621Y-81050000D02*
X121397621Y-83169000D01*
X121838621Y-76977000D02*
X121838621Y-78970000D01*
X122918621Y-81050000D02*
X122918621Y-82390000D01*
X122638621Y-77403000D02*
X122638621Y-78970000D01*
X120997621Y-76792000D02*
X120997621Y-78970000D01*
X123078621Y-77786000D02*
X123078621Y-82234000D01*
X122838621Y-81050000D02*
X122838621Y-82460000D01*
X123278621Y-78015000D02*
X123278621Y-82005000D01*
X122078621Y-81050000D02*
X122078621Y-82944000D01*
X123598621Y-78501000D02*
X123598621Y-81519000D01*
X121878621Y-76992000D02*
X121878621Y-78970000D01*
X121237621Y-81050000D02*
X121237621Y-83199000D01*
X123718621Y-78748000D02*
X123718621Y-81272000D01*
X121758621Y-76949000D02*
X121758621Y-78970000D01*
X121478621Y-76869000D02*
X121478621Y-78970000D01*
X121558621Y-76889000D02*
X121558621Y-78970000D01*
X121037621Y-76795000D02*
X121037621Y-78970000D01*
X120797621Y-76780000D02*
X120797621Y-83240000D01*
X122158621Y-77114000D02*
X122158621Y-78970000D01*
X122478621Y-81050000D02*
X122478621Y-82726000D01*
X123478621Y-78296000D02*
X123478621Y-81724000D01*
X123958621Y-79608000D02*
X123958621Y-80412000D01*
X120717621Y-76780000D02*
X120717621Y-83240000D01*
X121918621Y-81050000D02*
X121918621Y-83012000D01*
X122238621Y-81050000D02*
X122238621Y-82866000D01*
X121798621Y-76963000D02*
X121798621Y-78970000D01*
X122118621Y-77094000D02*
X122118621Y-78970000D01*
X122038621Y-81050000D02*
X122038621Y-82962000D01*
X123358621Y-78120000D02*
X123358621Y-81900000D01*
X122998621Y-81050000D02*
X122998621Y-82315000D01*
X122438621Y-81050000D02*
X122438621Y-82752000D01*
X120957621Y-76788000D02*
X120957621Y-78970000D01*
X121718621Y-76936000D02*
X121718621Y-78970000D01*
X120997621Y-81050000D02*
X120997621Y-83228000D01*
X123918621Y-79377000D02*
X123918621Y-80643000D01*
X122438621Y-77268000D02*
X122438621Y-78970000D01*
X122278621Y-81050000D02*
X122278621Y-82844000D01*
X122598621Y-77374000D02*
X122598621Y-78970000D01*
X122758621Y-81050000D02*
X122758621Y-82526000D01*
X122718621Y-77462000D02*
X122718621Y-78970000D01*
X123118621Y-77828000D02*
X123118621Y-82192000D01*
X122598621Y-81050000D02*
X122598621Y-82646000D01*
X122358621Y-77220000D02*
X122358621Y-78970000D01*
X122518621Y-77320000D02*
X122518621Y-78970000D01*
X122798621Y-81050000D02*
X122798621Y-82494000D01*
X117532380Y-77856000D02*
X117532380Y-78486000D01*
X122318621Y-77198000D02*
X122318621Y-78970000D01*
X123838621Y-79070000D02*
X123838621Y-80950000D01*
X122678621Y-81050000D02*
X122678621Y-82588000D01*
X122198621Y-81050000D02*
X122198621Y-82886000D01*
X121197621Y-81050000D02*
X121197621Y-83205000D01*
X122878621Y-77594000D02*
X122878621Y-78970000D01*
X121478621Y-81050000D02*
X121478621Y-83151000D01*
X122398621Y-81050000D02*
X122398621Y-82776000D01*
X122518621Y-81050000D02*
X122518621Y-82700000D01*
X122318621Y-81050000D02*
X122318621Y-82822000D01*
X122958621Y-81050000D02*
X122958621Y-82353000D01*
X121197621Y-76815000D02*
X121197621Y-78970000D01*
X121357621Y-81050000D02*
X121357621Y-83177000D01*
X123678621Y-78660000D02*
X123678621Y-81360000D01*
X123558621Y-78429000D02*
X123558621Y-81591000D01*
X122278621Y-77176000D02*
X122278621Y-78970000D01*
X121718621Y-81050000D02*
X121718621Y-83084000D01*
X121958621Y-77024000D02*
X121958621Y-78970000D01*
X121117621Y-81050000D02*
X121117621Y-83216000D01*
X121638621Y-76912000D02*
X121638621Y-78970000D01*
X121277621Y-81050000D02*
X121277621Y-83192000D01*
X121518621Y-76879000D02*
X121518621Y-78970000D01*
X120877621Y-76783000D02*
X120877621Y-83237000D01*
X121277621Y-76828000D02*
X121277621Y-78970000D01*
X122118621Y-81050000D02*
X122118621Y-82926000D01*
X123987621Y-80010000D02*
G75*
G03*
X123987621Y-80010000I-3270000J0D01*
G01*
%TO.C,J6*%
X111700000Y-133156000D02*
X114360000Y-133156000D01*
X114360000Y-94936000D02*
X114360000Y-96266000D01*
X111700000Y-97536000D02*
X114360000Y-97536000D01*
X114360000Y-97536000D02*
X114360000Y-133156000D01*
X113030000Y-94936000D02*
X114360000Y-94936000D01*
X111700000Y-97536000D02*
X111700000Y-133156000D01*
%TO.C,R19*%
X123328000Y-119153000D02*
X123328000Y-121893000D01*
X129868000Y-119153000D02*
X123328000Y-119153000D01*
X129868000Y-121893000D02*
X129868000Y-119153000D01*
X130638000Y-120523000D02*
X129868000Y-120523000D01*
X123328000Y-121893000D02*
X129868000Y-121893000D01*
X122558000Y-120523000D02*
X123328000Y-120523000D01*
%TO.C,RV3*%
X69258300Y-71378700D02*
X69258300Y-81148700D01*
X74328300Y-71378700D02*
X69258300Y-71378700D01*
X74328300Y-81148700D02*
X69258300Y-81148700D01*
X74328300Y-71378700D02*
X74328300Y-81148700D01*
%TO.C,J4*%
X124671000Y-54806000D02*
X124718000Y-54760000D01*
X131364000Y-51669000D02*
X131364000Y-50929000D01*
X120844000Y-61090000D02*
X120844000Y-51169000D01*
X131124000Y-58130000D02*
X120844000Y-58130000D01*
X122374000Y-57104000D02*
X122409000Y-57068000D01*
X131124000Y-53229000D02*
X120844000Y-53229000D01*
X131364000Y-50929000D02*
X130864000Y-50929000D01*
X131124000Y-61090000D02*
X120844000Y-61090000D01*
X131124000Y-61090000D02*
X131124000Y-51169000D01*
X122169000Y-56898000D02*
X122216000Y-56852000D01*
X131124000Y-51169000D02*
X120844000Y-51169000D01*
X124478000Y-54590000D02*
X124513000Y-54555000D01*
X131124000Y-51729000D02*
X120844000Y-51729000D01*
X128524000Y-54149000D02*
G75*
G03*
X127840682Y-54294244I0J-1680000D01*
G01*
X130059000Y-56513000D02*
G75*
G03*
X130059427Y-55145958I-1534993J684001D01*
G01*
X129208000Y-54294000D02*
G75*
G03*
X128495195Y-54148747I-683999J-1535001D01*
G01*
X126988999Y-55145000D02*
G75*
G03*
X126988573Y-56512042I1535001J-684000D01*
G01*
X127840000Y-57364000D02*
G75*
G03*
X129207042Y-57364427I684001J1534993D01*
G01*
X125124000Y-55829000D02*
G75*
G03*
X125124000Y-55829000I-1680000J0D01*
G01*
%TO.C,C6*%
X64528300Y-74372700D02*
X64528300Y-73114700D01*
X66368300Y-74372700D02*
X66368300Y-73114700D01*
%TO.C,J3*%
X117448800Y-56992600D02*
X117448800Y-59592600D01*
X117448800Y-59592600D02*
X107168800Y-59592600D01*
X116118800Y-54392600D02*
X117448800Y-54392600D01*
X117448800Y-54392600D02*
X117448800Y-55722600D01*
X107168800Y-54392600D02*
X107168800Y-59592600D01*
X114848800Y-54392600D02*
X107168800Y-54392600D01*
X114848800Y-56992600D02*
X117448800Y-56992600D01*
X114848800Y-54392600D02*
X114848800Y-56992600D01*
%TO.C,J1*%
X54608700Y-63416300D02*
X57268700Y-63416300D01*
X54608700Y-60816300D02*
X55938700Y-60816300D01*
X54608700Y-71096300D02*
X57268700Y-71096300D01*
X57268700Y-63416300D02*
X57268700Y-71096300D01*
X54608700Y-63416300D02*
X54608700Y-71096300D01*
X54608700Y-62146300D02*
X54608700Y-60816300D01*
%TO.C,R10*%
X71274000Y-97758000D02*
X74014000Y-97758000D01*
X71274000Y-91218000D02*
X71274000Y-97758000D01*
X74014000Y-97758000D02*
X74014000Y-91218000D01*
X72644000Y-98528000D02*
X72644000Y-97758000D01*
X72644000Y-90448000D02*
X72644000Y-91218000D01*
X74014000Y-91218000D02*
X71274000Y-91218000D01*
%TO.C,R2*%
X103008300Y-52033700D02*
X96468300Y-52033700D01*
X96468300Y-54773700D02*
X103008300Y-54773700D01*
X103008300Y-54773700D02*
X103008300Y-52033700D01*
X95698300Y-53403700D02*
X96468300Y-53403700D01*
X96468300Y-52033700D02*
X96468300Y-54773700D01*
X103778300Y-53403700D02*
X103008300Y-53403700D01*
%TO.C,R6*%
X103143300Y-78803700D02*
X102373300Y-78803700D01*
X102373300Y-80173700D02*
X102373300Y-77433700D01*
X95063300Y-78803700D02*
X95833300Y-78803700D01*
X95833300Y-77433700D02*
X95833300Y-80173700D01*
X95833300Y-80173700D02*
X102373300Y-80173700D01*
X102373300Y-77433700D02*
X95833300Y-77433700D01*
%TO.C,R16*%
X60505000Y-118133800D02*
X67045000Y-118133800D01*
X67045000Y-115393800D02*
X60505000Y-115393800D01*
X67045000Y-118133800D02*
X67045000Y-115393800D01*
X60505000Y-115393800D02*
X60505000Y-118133800D01*
X59735000Y-116763800D02*
X60505000Y-116763800D01*
X67815000Y-116763800D02*
X67045000Y-116763800D01*
%TO.C,R7*%
X96658300Y-67273700D02*
X90118300Y-67273700D01*
X90118300Y-70013700D02*
X96658300Y-70013700D01*
X96658300Y-70013700D02*
X96658300Y-67273700D01*
X97428300Y-68643700D02*
X96658300Y-68643700D01*
X90118300Y-67273700D02*
X90118300Y-70013700D01*
X89348300Y-68643700D02*
X90118300Y-68643700D01*
%TO.C,D4*%
X60096800Y-101756800D02*
X60096800Y-104846800D01*
X65646800Y-103302262D02*
G75*
G03*
X60096800Y-101756970I-2990000J462D01*
G01*
X60096800Y-104846630D02*
G75*
G03*
X65646800Y-103301338I2560000J1544830D01*
G01*
X65156800Y-103301800D02*
G75*
G03*
X65156800Y-103301800I-2500000J0D01*
G01*
%TO.C,C1*%
X60083300Y-57854700D02*
X60083300Y-59112700D01*
X61923300Y-57854700D02*
X61923300Y-59112700D01*
%TO.C,R17*%
X130730800Y-106934000D02*
X129960800Y-106934000D01*
X123420800Y-105564000D02*
X123420800Y-108304000D01*
X123420800Y-108304000D02*
X129960800Y-108304000D01*
X129960800Y-108304000D02*
X129960800Y-105564000D01*
X129960800Y-105564000D02*
X123420800Y-105564000D01*
X122650800Y-106934000D02*
X123420800Y-106934000D01*
%TO.C,J9*%
X76623000Y-135666000D02*
X76623000Y-134336000D01*
X76623000Y-133066000D02*
X76623000Y-97446000D01*
X79283000Y-133066000D02*
X76623000Y-133066000D01*
X79283000Y-133066000D02*
X79283000Y-97446000D01*
X77953000Y-135666000D02*
X76623000Y-135666000D01*
X79283000Y-97446000D02*
X76623000Y-97446000D01*
%TO.C,C9*%
X130443000Y-77312000D02*
X129185000Y-77312000D01*
X130443000Y-79152000D02*
X129185000Y-79152000D01*
%TO.C,Q2*%
X121742000Y-99038000D02*
X121742000Y-102638000D01*
X124690807Y-103194400D02*
G75*
G03*
X126192000Y-100838000I-1098807J2356400D01*
G01*
X122469205Y-98513816D02*
G75*
G03*
X121742000Y-99038000I1122795J-2324184D01*
G01*
X126192000Y-100838000D02*
G75*
G03*
X124690807Y-98481600I-2600000J0D01*
G01*
X121742000Y-102638000D02*
G75*
G03*
X122469205Y-103162184I1850000J1800000D01*
G01*
%TO.C,RV1*%
X74338300Y-60828700D02*
X74338300Y-51058700D01*
X69268300Y-60828700D02*
X74338300Y-60828700D01*
X69268300Y-51058700D02*
X74338300Y-51058700D01*
X69268300Y-60828700D02*
X69268300Y-51058700D01*
%TO.C,D5*%
X121188800Y-89539400D02*
X121188800Y-92629400D01*
X126738800Y-91084862D02*
G75*
G03*
X121188800Y-89539570I-2990000J462D01*
G01*
X121188800Y-92629230D02*
G75*
G03*
X126738800Y-91083938I2560000J1544830D01*
G01*
X126248800Y-91084400D02*
G75*
G03*
X126248800Y-91084400I-2500000J0D01*
G01*
%TO.C,C7*%
X95008300Y-74352700D02*
X95008300Y-73094700D01*
X96848300Y-74352700D02*
X96848300Y-73094700D01*
%TO.C,C8*%
X100129100Y-74205300D02*
X100129100Y-72947300D01*
X101969100Y-74205300D02*
X101969100Y-72947300D01*
%TO.C,R5*%
X71258300Y-67273700D02*
X64718300Y-67273700D01*
X64718300Y-70013700D02*
X71258300Y-70013700D01*
X72028300Y-68643700D02*
X71258300Y-68643700D01*
X63948300Y-68643700D02*
X64718300Y-68643700D01*
X64718300Y-67273700D02*
X64718300Y-70013700D01*
X71258300Y-70013700D02*
X71258300Y-67273700D01*
%TO.C,J8*%
X54471600Y-119269200D02*
X55801600Y-119269200D01*
X54471600Y-127009200D02*
X57131600Y-127009200D01*
X54471600Y-121869200D02*
X57131600Y-121869200D01*
X54471600Y-121869200D02*
X54471600Y-127009200D01*
X57131600Y-121869200D02*
X57131600Y-127009200D01*
X54471600Y-120599200D02*
X54471600Y-119269200D01*
%TO.C,R12*%
X66448000Y-101759000D02*
X66448000Y-108299000D01*
X66448000Y-108299000D02*
X69188000Y-108299000D01*
X67818000Y-109069000D02*
X67818000Y-108299000D01*
X69188000Y-108299000D02*
X69188000Y-101759000D01*
X67818000Y-100989000D02*
X67818000Y-101759000D01*
X69188000Y-101759000D02*
X66448000Y-101759000D01*
%TD*%
M02*
