M48
; DRILL file {KiCad (6.0.6)} date Fri Sep 23 16:31:58 2022
; FORMAT={-:-/ absolute / inch / decimal}
; #@! TF.CreationDate,2022-09-23T16:31:58-07:00
; #@! TF.GenerationSoftware,Kicad,Pcbnew,(6.0.6)
; #@! TF.FileFunction,Plated,1,2,PTH
FMAT,2
INCH
; #@! TA.AperFunction,Plated,PTH,ViaDrill
T1C0.0157
; #@! TA.AperFunction,Plated,PTH,ComponentDrill
T2C0.0315
; #@! TA.AperFunction,Plated,PTH,ComponentDrill
T3C0.0354
; #@! TA.AperFunction,Plated,PTH,ComponentDrill
T4C0.0394
; #@! TA.AperFunction,Plated,PTH,ComponentDrill
T5C0.0472
; #@! TA.AperFunction,Plated,PTH,ComponentDrill
T6C0.0512
; #@! TA.AperFunction,Plated,PTH,ComponentDrill
T7C0.0866
%
G90
G05
T1
X2.582Y-3.533
X2.97Y-3.23
X2.99Y-4.155
X3.16Y-3.24
X3.24Y-3.225
X3.34Y-3.23
X3.735Y-4.99
X3.76Y-3.992
X3.762Y-4.062
X3.97Y-3.385
X4.186Y-3.94
X4.372Y-3.504
X4.468Y-3.34
X4.546Y-3.492
X4.735Y-4.295
X4.745Y-4.56
X4.76Y-4.025
X4.956Y-4.856
X5.1102Y-4.9874
T2
X2.2517Y-2.1025
X2.2517Y-3.1025
X2.3108Y-4.597
X2.4017Y-2.2533
X2.4017Y-2.3517
X2.4017Y-2.8541
X2.4017Y-2.9525
X2.4767Y-2.5025
X2.4767Y-2.7025
X2.5767Y-2.2525
X2.5767Y-2.3509
X2.5767Y-2.8541
X2.5767Y-2.9525
X2.635Y-4.735
X2.635Y-4.835
X2.635Y-4.935
X2.6517Y-2.1025
X2.6517Y-3.1025
X2.67Y-3.445
X2.67Y-3.845
X2.67Y-3.935
X2.67Y-4.335
X2.7108Y-4.597
X2.8258Y-4.577
X2.8258Y-4.977
X2.8267Y-2.1025
X2.8267Y-2.2025
X2.8267Y-2.3025
X2.8267Y-2.9025
X2.8267Y-3.0025
X2.8267Y-3.1025
X2.86Y-3.52
X2.86Y-3.92
X2.86Y-4.02
X2.86Y-4.42
X2.8767Y-2.5025
X2.8767Y-2.7025
X3.0267Y-2.3025
X3.0267Y-2.4025
X3.0267Y-2.5025
X3.0267Y-2.6025
X3.0267Y-2.7025
X3.0267Y-2.8025
X3.0267Y-2.9025
X3.2599Y-3.8887
X3.2599Y-3.9887
X3.2599Y-4.0887
X3.2599Y-4.1887
X3.2599Y-4.2887
X3.2599Y-4.3887
X3.2599Y-4.4887
X3.2599Y-4.5887
X3.2599Y-4.6887
X3.2599Y-4.7887
X3.2601Y-4.8887
X3.2601Y-4.9887
X3.2601Y-5.0888
X3.2601Y-5.1888
X3.2609Y-3.7887
X3.3267Y-2.3025
X3.3267Y-2.4025
X3.3267Y-2.5025
X3.3267Y-2.6025
X3.3267Y-2.7025
X3.3267Y-2.8025
X3.3267Y-2.9025
X3.4767Y-2.5025
X3.4767Y-2.7025
X3.5267Y-2.1021
X3.5267Y-2.2021
X3.5267Y-2.3021
X3.5267Y-2.9025
X3.5267Y-3.0025
X3.5267Y-3.1025
X3.7017Y-3.1025
X3.7267Y-2.1025
X3.7767Y-2.2283
X3.7767Y-2.3267
X3.7767Y-2.8533
X3.7767Y-2.9517
X3.8767Y-2.5025
X3.8767Y-2.7025
X3.9417Y-2.2225
X3.9417Y-2.3209
X3.9783Y-2.8475
X3.9783Y-2.9459
X4.1017Y-3.1025
X4.1267Y-2.1025
X4.2599Y-3.7887
X4.2599Y-3.8887
X4.2599Y-3.9887
X4.2599Y-4.0887
X4.2599Y-4.1887
X4.2599Y-5.1887
X4.2601Y-4.2887
X4.2601Y-4.3887
X4.2601Y-4.4887
X4.2601Y-4.5887
X4.2601Y-4.6887
X4.2601Y-4.7887
X4.2601Y-4.8888
X4.2601Y-4.9888
X4.2601Y-5.0887
X4.45Y-5.31
X4.45Y-5.71
X4.61Y-4.96
X4.6642Y-4.365
X4.6642Y-4.765
X4.6718Y-3.83
X4.6718Y-4.23
X4.7034Y-3.15
X4.7842Y-4.745
X4.7878Y-4.21
X4.8019Y-3.15
X4.8658Y-3.87
X4.8658Y-3.97
X4.8658Y-4.07
X4.8658Y-4.404
X4.8658Y-4.504
X4.8658Y-4.604
X5.01Y-4.96
X5.0616Y-3.07
X5.064Y-3.188
X5.064Y-3.588
X5.16Y-3.07
X5.1842Y-4.745
X5.1878Y-4.21
T3
X2.4168Y-3.533
X2.4168Y-4.067
X2.4168Y-4.336
X2.417Y-3.799
X2.5168Y-3.533
X2.5168Y-4.067
X2.5168Y-4.336
X2.517Y-3.799
X4.822Y-3.586
X4.922Y-3.586
T4
X2.195Y-3.865
X2.195Y-3.965
X2.195Y-4.065
X2.195Y-4.165
X2.1969Y-4.748
X2.1969Y-4.848
X2.1969Y-4.948
X2.2023Y-2.4467
X2.2023Y-2.5467
X2.2023Y-2.6467
X2.2023Y-2.7467
X3.069Y-3.8888
X3.069Y-3.9888
X3.069Y-4.0888
X3.069Y-4.1888
X3.069Y-4.2888
X3.069Y-4.3888
X3.069Y-4.4888
X3.069Y-4.5888
X3.069Y-4.6888
X3.069Y-4.7888
X3.069Y-4.8888
X3.069Y-4.9888
X3.069Y-5.0888
X3.069Y-5.1888
X3.069Y-5.2888
X4.2716Y-2.1938
X4.2716Y-2.2938
X4.2716Y-2.444
X4.3716Y-2.1938
X4.3716Y-2.2938
X4.3716Y-2.444
X4.45Y-3.79
X4.45Y-3.89
X4.45Y-3.99
X4.45Y-4.09
X4.45Y-4.19
X4.45Y-4.29
X4.45Y-4.39
X4.45Y-4.49
X4.45Y-4.59
X4.45Y-4.69
X4.45Y-4.79
X4.45Y-4.89
X4.45Y-4.99
X4.45Y-5.09
X4.45Y-5.19
X4.4716Y-2.1938
X4.4716Y-2.2938
X4.4716Y-2.444
X4.5716Y-2.1938
X4.5716Y-2.2938
X4.5716Y-2.444
X4.6102Y-5.1078
X4.7102Y-5.1078
X4.8102Y-5.1078
X4.9102Y-5.1078
X5.0102Y-5.1078
X5.1102Y-5.1078
X5.196Y-3.856
X5.196Y-3.956
X5.196Y-4.056
X5.196Y-4.392
X5.196Y-4.492
X5.196Y-4.592
X5.2102Y-5.1078
X5.352Y-4.7994
X5.352Y-4.8994
X5.352Y-4.9994
X5.352Y-5.0994
T5
X4.8613Y-2.7517
X4.9613Y-2.7517
X5.0613Y-2.7517
T6
X4.86Y-2.198
X5.06Y-2.198
T7
X2.02Y-2.06
X2.02Y-5.65
X5.39Y-2.06
X5.39Y-5.65
T0
M30
